<svg width="40" height="52" viewBox="0 0 40 52" fill="none" xmlns="http://www.w3.org/2000/svg">
<path fill-rule="evenodd" clip-rule="evenodd" d="M21.3024 19.1199C26.8495 18.4815 31.0958 9.9253 36.1274 12.4751C40.8529 14.8699 39.4962 22.6217 39.1154 28.1469C38.7691 33.1716 37.0982 37.7622 34.1141 41.6903C30.6702 46.2235 26.8001 51.7596 21.3024 51.5943C15.8472 51.4304 12.9796 45.1023 9.19931 40.9413C5.55031 36.9249 -0.0412413 33.7155 0.000229361 28.1469C0.0416078 22.5906 4.50957 17.6197 9.38839 15.5523C13.3712 13.8645 17.0367 19.6108 21.3024 19.1199Z" fill="#FFD1D7"/>
<path d="M33.3817 16.1342C33.6448 15.1512 33.7773 14.1427 33.7763 13.1305C33.8336 11.4255 33.5168 9.72727 32.8448 8.13663C32.1728 6.546 31.1592 5.09533 29.8642 3.8707C28.5692 2.64608 27.0192 1.67241 25.3061 1.00751C23.593 0.342606 21.7517 0 19.8915 0C18.0312 0 16.19 0.342606 14.4769 1.00751C12.7638 1.67241 11.2137 2.64608 9.91873 3.8707C8.62375 5.09533 7.61022 6.546 6.93819 8.13663C6.26616 9.72727 5.94934 11.4255 6.00658 13.1305C6.00564 14.1427 6.13813 15.1512 6.40121 16.1342C6.65686 17.8423 7.16587 19.5103 7.91404 21.0921C9.22952 23.7218 15.0176 32.3951 17.6617 36.3518C14.0968 36.7619 12.3998 38.1733 12.3998 39.5002C12.3998 41.0684 14.7282 42.7693 19.8455 42.7693C24.9627 42.7693 27.3042 41.0684 27.3042 39.5002C27.3042 38.1733 25.6467 36.7619 22.0423 36.3518C24.6732 32.3951 30.4219 23.7218 31.79 21.0921C32.5653 19.5139 33.1009 17.8458 33.3817 16.1342ZM25.1995 39.5002C25.0548 39.8742 23.2526 40.803 19.9375 40.803C16.6225 40.803 14.7414 39.85 14.6756 39.5123C14.7677 39.1866 16.2279 38.3783 19.0035 38.2215L19.0693 38.3301C19.1685 38.4695 19.3041 38.584 19.4638 38.6632C19.6234 38.7425 19.802 38.784 19.9836 38.784C20.1651 38.784 20.3438 38.7425 20.5034 38.6632C20.6631 38.584 20.7986 38.4695 20.8978 38.3301V38.2215C23.6077 38.3783 25.0679 39.2107 25.1995 39.5002ZM31.2901 15.6999C31.2901 15.6999 31.2901 15.6999 31.2901 15.7844C31.0624 17.3178 30.6203 18.8179 29.9747 20.2477C28.6592 22.9016 22.3054 32.371 19.9244 35.9296C17.5565 32.371 11.2685 22.9016 9.88726 20.2477C9.23547 18.8198 8.79312 17.3189 8.57178 15.7844C8.57178 15.7844 8.57178 15.7844 8.57178 15.712C8.34724 14.8669 8.23243 14.0004 8.22974 13.1305C8.22064 11.6016 8.56654 10.0885 9.24445 8.6917C9.92237 7.29489 10.9168 6.04637 12.1616 5.02922C13.4063 4.01206 14.873 3.24957 16.4639 2.79237C18.0549 2.33517 19.7338 2.19376 21.389 2.37755C23.0441 2.56135 24.6377 3.06612 26.0637 3.85833C27.4897 4.65054 28.7155 5.71202 29.6595 6.97223C30.6036 8.23243 31.2443 9.66251 31.539 11.1673C31.8338 12.6721 31.7759 14.2172 31.3691 15.6999H31.2901Z" fill="#665F5F"/>
<path d="M19.4587 6.00098C17.9835 6.00098 16.5415 6.40212 15.3149 7.15368C14.0883 7.90523 13.1323 8.97345 12.5678 10.2232C12.0033 11.473 11.8555 12.8483 12.1433 14.1751C12.4311 15.5019 13.1415 16.7206 14.1846 17.6771C15.2277 18.6337 16.5568 19.2851 18.0036 19.549C19.4505 19.8129 20.9502 19.6774 22.3132 19.1598C23.6761 18.6421 24.841 17.7654 25.6605 16.6406C26.4801 15.5158 26.9176 14.1934 26.9176 12.8407C26.9176 11.0267 26.1317 9.28698 24.7329 8.00429C23.3342 6.72159 21.4369 6.00098 19.4587 6.00098ZM19.4587 17.7021C18.418 17.7021 17.4008 17.4191 16.5354 16.8889C15.6701 16.3587 14.9957 15.6051 14.5974 14.7234C14.1991 13.8417 14.095 12.8715 14.298 11.9355C14.501 10.9995 15.0021 10.1398 15.738 9.46497C16.4739 8.79015 17.4115 8.33058 18.4322 8.1444C19.4529 7.95822 20.5109 8.05374 21.4724 8.41895C22.4339 8.78416 23.2557 9.40265 23.8339 10.1962C24.4121 10.9897 24.7207 11.9226 24.7207 12.8769C24.7207 14.1566 24.1663 15.3839 23.1795 16.2888C22.1927 17.1937 20.8543 17.7021 19.4587 17.7021Z" fill="#665F5F"/>
</svg>
