<svg width="25" height="25" viewBox="0 0 25 25" fill="none" xmlns="http://www.w3.org/2000/svg">
<path d="M4.63864 0C3.40987 0.00478824 2.23279 0.495038 1.36392 1.36392C0.495038 2.23279 0.00478824 3.40987 0 4.63864V20.3614C0.00478824 21.5901 0.495038 22.7672 1.36392 23.6361C2.23279 24.505 3.40987 24.9952 4.63864 25H20.3614C21.5901 24.9952 22.7672 24.505 23.6361 23.6361C24.505 22.7672 24.9952 21.5901 25 20.3614V4.63864C24.9952 3.40987 24.505 2.23279 23.6361 1.36392C22.7672 0.495038 21.5901 0.00478824 20.3614 0H4.63864ZM4.63864 2.27273H20.3614C21.6795 2.27273 22.7273 3.32045 22.7273 4.63864V20.3614C22.7273 21.6795 21.6795 22.7273 20.3614 22.7273H4.63864C4.32739 22.7292 4.01886 22.6694 3.73093 22.5512C3.44299 22.433 3.1814 22.2588 2.96131 22.0387C2.74123 21.8186 2.56703 21.557 2.44883 21.2691C2.33062 20.9811 2.27077 20.6726 2.27273 20.3614V4.63864C2.27273 3.32045 3.32045 2.27273 4.63864 2.27273Z" fill="#665F5F"/>
<path d="M17.1688 6.94678L6.09442 11.5831C5.64876 11.799 5.49803 12.2314 5.9867 12.466L8.82776 13.4462L15.6971 8.83724C16.0722 8.54789 16.4562 8.62505 16.1257 8.94335L10.2259 14.7428L10.0406 17.1971C10.2122 17.576 10.5265 17.5778 10.727 17.3894L12.3593 15.7127L15.1548 17.9853C15.8041 18.4026 16.1574 18.1333 16.2971 17.3684L18.1307 7.94239C18.3211 7.00089 17.9965 6.58606 17.1688 6.94678Z" fill="#665F5F"/>
</svg>
