<svg width="25" height="25" viewBox="0 0 25 25" fill="none" xmlns="http://www.w3.org/2000/svg">
<path d="M13.0295 17.1049C8.98348 17.1049 6.67575 14.1415 6.57959 9.21021H8.60628C8.67285 12.8296 10.1669 14.3627 11.3504 14.6788V9.21021H13.2588V12.3317C14.4275 12.1974 15.6552 10.7749 16.0694 9.21021H17.9778C17.6598 11.1384 16.3284 12.5609 15.3816 13.1457C16.3284 13.6199 17.8448 14.8606 18.4217 17.1049H16.321C15.8698 15.6034 14.7456 14.4418 13.2588 14.2837V17.1049H13.0295Z" fill="#665F5F"/>
<path d="M4.63864 0C3.40987 0.00478824 2.23279 0.495038 1.36392 1.36392C0.495038 2.23279 0.00478824 3.40987 0 4.63864V20.3614C0.00478824 21.5901 0.495038 22.7672 1.36392 23.6361C2.23279 24.505 3.40987 24.9952 4.63864 25H20.3614C21.5901 24.9952 22.7672 24.505 23.6361 23.6361C24.505 22.7672 24.9952 21.5901 25 20.3614V4.63864C24.9952 3.40987 24.505 2.23279 23.6361 1.36392C22.7672 0.495038 21.5901 0.00478824 20.3614 0H4.63864ZM4.63864 2.27273H20.3614C21.6795 2.27273 22.7273 3.32045 22.7273 4.63864V20.3614C22.7273 21.6795 21.6795 22.7273 20.3614 22.7273H4.63864C4.32739 22.7292 4.01886 22.6694 3.73093 22.5512C3.44299 22.433 3.1814 22.2588 2.96131 22.0387C2.74123 21.8186 2.56703 21.557 2.44883 21.2691C2.33062 20.9811 2.27077 20.6726 2.27273 20.3614V4.63864C2.27273 3.32045 3.32045 2.27273 4.63864 2.27273Z" fill="#665F5F"/>
</svg>
