<?xml version="1.0" encoding="utf-8"?>
<!-- Generator: Adobe Illustrator 27.5.0, SVG Export Plug-In . SVG Version: 6.00 Build 0)  -->
<svg version="1.1" id="Capa_1" xmlns="http://www.w3.org/2000/svg" xmlns:xlink="http://www.w3.org/1999/xlink" x="0px" y="0px"
	 viewBox="0 0 2122 2122" style="enable-background:new 0 0 2122 2122;" xml:space="preserve">
<path style="fill:#F7BFCA;" d="M1867.49,816.42c-4.698-1.319-10.201-4.014-10.024-8.518c0.133-3.385,3.523-5.777,6.609-7.623
	c4.046-2.42,8.135-4.779,12.265-7.075c7.505-4.174,15.15-8.141,22.914-11.896c-43.156-76.946-128.508-129.856-223.744-145.125
	l-0.04-0.006c-34.941-5.598-71.209-6.132-107.213-0.924c-115.135,16.655-212.691,86.65-291.382,169.513
	c35.406-93.726,51.939-194.988,24.446-292.343c-5.791-20.507-13.502-40.311-22.869-59.172
	c-50.302-101.293-148.377-175.359-253.541-184.832c0.873,13.015-0.338,26.171-3.662,38.785c-1.191,4.522-3.779,9.865-8.457,9.867
	c-3.514,0.001-6.122-3.136-8.152-6.005c-2.66-3.761-5.258-7.565-7.795-11.41c-4.947-7.502-9.65-15.164-14.108-22.966
	c-4.641,3.209-9.002,7.005-13.213,10.848c-56.116,51.227-98.548,119.527-123.152,194.793
	c-15.781,48.276-24.228,99.417-24.246,150.759c-0.022,64.796,13.333,129.333,37.806,188.434
	c-99.047-72.909-216.943-129.964-342.527-123.827H517.4c-0.614,0.03-1.229,0.061-1.843,0.095
	c-139.262,7.489-265.991,96.137-303.425,213.977c15.952,3.539,31.195,10.3,44.455,19.852c3.795,2.734,7.855,7.064,6.181,11.431
	c-1.26,3.282-5.122,4.591-8.528,5.458c-4.465,1.136-8.947,2.198-13.446,3.188c-9.334,2.052-18.739,3.783-28.191,5.197
	c2.092,4.389,4.599,8.675,7.166,12.861c43.544,71.02,110.88,130.729,189.963,171.148c40.112,20.501,83.246,36.04,127.83,45.575
	c89.278,19.093,183.262,13.96,267.439-12.669c-84.755,41.539-158.999,108.655-208.417,191.308
	c-26.797,44.818-46.078,93.908-57.442,144.436l-0.016,0.07c-18.104,80.547-16.086,164.746,7.702,241.124
	c1.204,3.866,2.484,7.75,3.965,11.525c15.012-10.213,32.023-17.498,49.805-21.18c5.253-1.088,12.065-1.161,14.458,3.642
	c1.799,3.61-0.091,7.891-2,11.444c-2.503,4.655-5.082,9.27-7.735,13.841c-5.554,9.568-11.439,18.943-17.635,28.108
	c113.894,54.808,263.455,30.887,365.695-55.592l0.029-0.023c4.192-3.547,8.306-7.199,12.333-10.955
	c93.686-87.373,130.64-215.826,141.622-341.544c25.729,106.973,73.569,210.592,161.249,279.186
	c11.865,9.282,24.293,17.719,37.154,25.3c100.619,59.311,227.958,66.165,322.898,13.901c-10.446-12.931-18.553-27.755-23.687-43.567
	c-1.632-5.028-2.44-11.689,2.006-14.551c3.342-2.151,7.737-0.763,11.422,0.723c4.829,1.948,9.627,3.975,14.388,6.081
	c11.282,4.986,22.368,10.416,33.23,16.261c2.188-5.855,3.617-12.141,4.859-18.364c15.403-77.212,8.215-160.534-18.642-238.268
	l-0.001-0.005c-15.879-45.955-38.63-89.957-67.657-129.587c-40.942-55.899-93.933-102.602-153.085-136.68
	c71.004,0.911,143.706-13.11,210.303-41.981c41.835-18.135,80.989-42.038,116.061-70.304
	c66.571-53.652,118.431-123.028,145.978-198.542c2.183-5.981,4.231-12.112,5.35-18.239
	C1895.122,821.854,1880.963,820.202,1867.49,816.42z"/>
<path style="fill:#F192AD;" d="M1729.202,847.042c-43.463-82.213-149.773-129.685-253.187-114.725
	c-118.864,17.195-213.021,109.345-280.017,199.038c17.693,13.477,31.357,32.34,39.065,53.285
	c54.892-23.167,115.876-34.714,175.003-45.427l-170.281,61.886c1.614,7.766,2.406,15.69,2.294,23.62c0,0.006,0,0.011,0,0.017
	c-0.008,0.541-0.02,1.082-0.036,1.623c-0.004,0.142-0.011,0.283-0.016,0.425c-0.014,0.417-0.028,0.834-0.047,1.251
	c-0.026,0.568-0.056,1.135-0.092,1.704l-0.01,0.152c-0.035,0.547-0.074,1.094-0.118,1.64l-0.008,0.108l-0.006,0.089l270.742-17.919
	c-89.434,21.454-182.781,42.88-272.973,32.734l-0.261,1.326c-0.463,2.335-0.928,4.669-1.341,7.007
	c-0.059,0.334-0.117,0.667-0.174,1.002c-0.85,5.01-1.422,10.034-1.168,15.107c0.112,2.231,0.383,4.441,0.754,6.637
	c0.123,0.732,0.259,1.463,0.403,2.193l0.273,1.337c0.297,1.402,0.624,2.8,0.964,4.197l0.134,0.545
	c0.16,0.651,0.322,1.302,0.486,1.953c0.187,0.742,0.375,1.485,0.562,2.228l0.279,1.114c0.163,0.652,0.324,1.305,0.482,1.958
	c0.112,0.463,0.223,0.925,0.331,1.388l0.257,1.117l0.255,1.159c1.28,0.544,2.557,1.097,3.844,1.617
	c5.266,2.131,10.607,4.122,16.015,5.976c-6.344-1.4-12.713-2.609-19.096-3.624c0.34,2.038,0.594,4.087,0.712,6.154
	c0.261,4.579-0.138,9.048-1.092,13.379c-0.174,0.788-0.366,1.571-0.575,2.349c-1.049,3.891-2.541,7.667-4.398,11.305
	c-0.372,0.728-0.758,1.45-1.158,2.167c-0.4,0.716-0.814,1.428-1.241,2.133c-0.428,0.705-0.869,1.405-1.323,2.098
	c-0.453,0.693-0.92,1.381-1.398,2.063c-0.479,0.682-0.969,1.358-1.471,2.026c-0.502,0.67-1.016,1.333-1.54,1.99
	c-0.524,0.657-1.061,1.308-1.606,1.952c-0.273,0.322-0.548,0.642-0.826,0.961c-0.556,0.637-1.122,1.268-1.697,1.892
	c-0.287,0.312-0.577,0.623-0.869,0.931c-0.876,0.926-1.773,1.837-2.687,2.731c-0.41,0.401-0.824,0.798-1.241,1.193
	c-0.15,0.142-0.302,0.282-0.453,0.423c-0.278,0.26-0.557,0.519-0.837,0.776c-0.153,0.14-0.308,0.279-0.462,0.418
	c-0.288,0.26-0.577,0.52-0.869,0.777c-0.147,0.131-0.295,0.261-0.443,0.391c-0.311,0.272-0.624,0.542-0.937,0.811
	c-0.125,0.107-0.249,0.214-0.375,0.32c-0.359,0.305-0.721,0.608-1.084,0.908c-0.085,0.07-0.17,0.142-0.255,0.212
	c-1.401,1.152-2.829,2.27-4.276,3.353c-0.007,0.005-0.015,0.011-0.022,0.016c45.588,44.65,80.53,101.573,113.814,156.836
	l-127.499-147.903c-0.097,0.056-0.194,0.112-0.292,0.168c-0.31,0.18-0.621,0.359-0.931,0.537c-0.164,0.093-0.327,0.187-0.49,0.279
	c-0.343,0.195-0.687,0.39-1.032,0.584c-0.108,0.061-0.216,0.122-0.324,0.183c-0.378,0.212-0.756,0.423-1.135,0.633
	c-0.119,0.066-0.237,0.132-0.357,0.197c-0.365,0.202-0.732,0.403-1.099,0.604c-0.113,0.061-0.226,0.123-0.338,0.185
	c-0.37,0.202-0.741,0.403-1.113,0.603c-0.131,0.071-0.262,0.142-0.393,0.213c-0.364,0.195-0.729,0.391-1.094,0.585l-0.346,0.185
	c-0.381,0.203-0.762,0.405-1.144,0.606c-0.112,0.059-0.225,0.118-0.337,0.178c-0.347,0.183-0.694,0.366-1.042,0.547
	c-0.17,0.089-0.34,0.178-0.51,0.266c-0.337,0.176-0.674,0.351-1.011,0.526c-0.141,0.073-0.281,0.146-0.421,0.218
	c-0.35,0.182-0.701,0.363-1.052,0.543c-0.165,0.085-0.329,0.17-0.493,0.254c-0.266,0.137-0.533,0.274-0.799,0.411
	c-0.274,0.141-0.55,0.281-0.824,0.422c-0.188,0.096-0.376,0.193-0.565,0.289c-0.312,0.159-0.624,0.318-0.936,0.477
	c-0.18,0.091-0.359,0.183-0.538,0.274c-0.277,0.141-0.555,0.283-0.832,0.424c-0.804,0.408-1.607,0.816-2.41,1.224
	c-0.497,0.252-0.994,0.505-1.491,0.757c-0.115,0.058-0.228,0.115-0.342,0.173l117.804,257.589
	c-53.363-78.286-108.17-160.464-129.444-251.551c-0.004,0.002-0.008,0.004-0.013,0.006c-0.462,0.248-0.923,0.497-1.384,0.747
	c-0.074,0.041-0.15,0.081-0.224,0.121c-0.398,0.217-0.794,0.434-1.191,0.652c-0.122,0.066-0.244,0.133-0.366,0.2
	c-0.357,0.197-0.714,0.396-1.071,0.594c-0.153,0.085-0.307,0.171-0.46,0.256c-0.495,0.277-0.989,0.556-1.482,0.837
	c-1.491,0.849-2.972,1.714-4.438,2.598c-1.468,0.884-2.921,1.787-4.359,2.714c-0.958,0.618-1.91,1.245-2.854,1.884
	c-1.029,0.697-2.05,1.407-3.061,2.133c-0.673,0.483-1.342,0.974-2.007,1.47l-0.993,0.751c-0.659,0.504-1.314,1.015-1.963,1.534
	c-0.974,0.778-1.936,1.574-2.886,2.388c-0.972,0.833-1.929,1.685-2.878,2.547c-0.474,0.432-0.946,0.866-1.416,1.303l-0.705,0.656
	c-0.469,0.438-0.937,0.878-1.404,1.319l-1.041,0.982c-0.563,0.532-1.126,1.063-1.689,1.593c-1.691,1.59-3.392,3.166-5.135,4.687
	l-0.963,0.83l-0.795,0.67c-1.828,1.524-3.71,2.974-5.685,4.304c-0.529,0.357-1.065,0.705-1.608,1.044
	c-2.349,1.464-4.817,2.731-7.37,3.796c12.124,109.561,46.427,231.366,137.891,302.92c82.522,64.559,200.776,75.33,282.518,24.181
	c4.986-3.12,9.913-6.505,13.546-11.162c5.167-6.624,7.324-15.29,9.022-23.8c18.589-93.18-6.198-198.093-65.451-278.99
	c-45.46-62.066-110.505-109.182-181.122-133.188c75.409,16.63,159.576,8.76,233.755-23.397
	c91.952-39.862,166.834-116.454,198.734-203.897c2.913-7.985,5.515-16.324,4.505-24.378
	C1734.318,857.266,1731.852,852.056,1729.202,847.042z"/>
<path style="fill:#DC638E;" d="M1431.497,1150.445c59.152,34.077,112.143,80.781,153.085,136.68
	c29.027,39.63,51.779,83.632,67.657,129.587c6.842-1.202,13.622-2.667,20.316-4.381c-0.864-4.936-1.748-9.868-2.735-14.786
	c-4.737-23.572-10.903-46.853-18.53-69.656c-7.187-21.485-16.672-42.051-24.073-63.438c-10.772-31.132-18.488-68.672,0.293-98.419
	c21.947-34.759,66.894-42.526,102.189-57.133c19.987-8.272,39.943-19.462,52.992-37.18c0.588-0.798,1.12-1.63,1.69-2.439
	c-7.192-8.439-14.383-16.878-21.576-25.317c-1.648-1.934-3.296-3.868-4.945-5.803c-35.072,28.266-74.226,52.169-116.061,70.304
	C1575.203,1137.334,1502.501,1151.356,1431.497,1150.445z"/>
<path style="fill:#EF82A4;" d="M1850.034,1146.315l-65.653-77.035c-0.57,0.809-1.102,1.641-1.69,2.439
	c-13.049,17.719-33.005,28.908-52.992,37.18c-35.295,14.607-80.241,22.374-102.189,57.133
	c-18.782,29.747-11.066,67.287-0.293,98.419c7.401,21.387,16.886,41.953,24.073,63.438c7.627,22.802,13.793,46.084,18.53,69.656
	c0.982,4.887,1.861,9.789,2.719,14.694c31.423-8.048,61.011-21.461,86.496-38.617c45.104-30.365,79.167-71.021,107.919-113.943
	C1896.063,1216.223,1887.095,1189.802,1850.034,1146.315z"/>
<path style="fill:#EF82A4;" d="M532.298,1270.961c-10.061-15.756-25.818-26.395-41.877-35.322
	c-18.923-10.519-39.413-18.999-57.049-31.68c-15.848-11.396-27.806-27.241-34.751-45.365c-23.801,37.894-47.601,75.788-71.4,113.683
	c-30.39,48.387-35.446,75.826-0.363,114.619c34.652,38.317,74.231,73.626,123.25,97.155c17.607,8.451,35.979,14.968,55.79,19.645
	c-1.747-26.445,2.152-52.946,9.941-78.221c9.233-29.96,23.128-58.64,27.847-89.867
	C546.933,1314.116,544.175,1289.561,532.298,1270.961z"/>
<path style="fill:#DC638E;" d="M433.372,1203.959c17.636,12.681,38.126,21.161,57.049,31.68
	c16.059,8.927,31.816,19.566,41.877,35.322c11.877,18.6,14.636,43.155,11.388,64.647c-4.719,31.227-18.614,59.907-27.847,89.867
	c-7.789,25.275-11.688,51.776-9.941,78.221c10.877,2.597,21.992,4.569,33.243,5.858c11.365-50.528,30.646-99.618,57.442-144.436
	c49.418-82.653,123.663-149.769,208.417-191.308c-84.177,26.629-178.161,31.762-267.439,12.669
	c-44.584-9.535-87.718-25.073-127.83-45.575c-3.703,5.897-7.406,11.793-11.109,17.69v0
	C405.565,1176.718,417.523,1192.562,433.372,1203.959z"/>
<path style="fill:#F192AD;" d="M1087.915,1238.299c-0.648,0.082-1.298,0.153-1.949,0.21c-0.651,0.058-1.303,0.104-1.955,0.138
	c-1.306,0.068-2.613,0.087-3.92,0.056l-0.979-0.032c-1.291-0.054-2.574-0.156-3.848-0.299c-0.765-0.086-1.526-0.188-2.285-0.303
	c-0.759-0.116-1.515-0.247-2.268-0.391l-0.752-0.148c-1.252-0.255-2.496-0.548-3.733-0.874l-0.741-0.2
	c-0.494-0.136-0.986-0.277-1.477-0.423c-0.737-0.22-1.471-0.45-2.204-0.691c-0.975-0.321-1.946-0.661-2.914-1.018
	c-0.483-0.178-0.966-0.361-1.447-0.547c-8.423-3.264-16.525-7.739-24.42-12.153c-2.969-1.66-5.938-3.32-8.907-4.98
	c-24.581,65.896-69.837,124.501-113.914,180.497l101.724-187.312c-6.575-3.676-13.151-7.352-19.726-11.029l-208.133,210.385
	c56.373-80.544,116.114-164.027,198.3-215.882c-7.626-4.264-15.253-8.528-22.88-12.792c-2.02-1.13-4.057-2.279-6.092-3.455
	c-2.036-1.177-4.07-2.381-6.083-3.621c-1.438-0.886-2.866-1.79-4.276-2.716c-1.976-1.296-3.917-2.634-5.807-4.022
	c-0.809-0.595-1.61-1.199-2.399-1.814c-0.574-0.446-1.141-0.898-1.702-1.355c-1.241-1.01-2.452-2.047-3.625-3.114l-0.725-0.668
	c-1.199-1.119-2.358-2.271-3.469-3.458l-0.66-0.717c-2.16-2.378-4.124-4.898-5.843-7.582
	c-88.242,25.055-168.498,86.526-217.096,167.807c-52.729,88.19-67.099,198.186-37.734,292.467
	c2.681,8.611,5.857,17.344,11.934,23.722c4.273,4.486,9.753,7.553,15.262,10.343c90.344,45.741,211.873,24.721,290.512-48.62
	c95.674-89.227,113.339-234.943,109.942-356.019c-0.64,0.128-1.281,0.244-1.924,0.348
	C1089.109,1238.136,1088.513,1238.223,1087.915,1238.299z"/>
<path style="fill:#F192AD;" d="M910.6,1107.746c-0.03-7.13-0.119-14.27-1.443-21.214c-0.812-4.264-2.083-8.405-3.52-12.502
	c-0.452-1.288-0.919-2.572-1.395-3.855c-0.426-1.148-0.859-2.295-1.291-3.442c-0.135-0.358-0.27-0.717-0.404-1.075
	c-2.021-5.378-3.988-10.773-5.235-16.366c-67.333-7.53-133.189-34.56-196.423-61.177l195.557,45.598l0.038-0.358l0.089-0.76
	l0.06-0.49l0.145-1.013l0.087-0.553l0.147-0.877l0.1-0.531l0.137-0.714l0.118-0.563l0.147-0.68l0.13-0.566l0.166-0.689l0.138-0.553
	l0.188-0.711l0.142-0.529l0.223-0.776l0.134-0.461l0.375-1.209l0.09-0.274l0.322-0.965l0.169-0.482l0.265-0.747l0.2-0.538
	l0.264-0.701l0.21-0.536l0.283-0.709l0.217-0.53l0.302-0.713l0.222-0.518l0.342-0.768l0.203-0.455l0.557-1.196l0.141-0.29
	l0.455-0.931l0.237-0.468l0.38-0.746l0.271-0.518l0.196-0.374L655.823,869.692c90.202,32.134,183.941,66.61,255.094,128.895
	l0.22-0.308l0.435-0.605l0.421-0.582l0.436-0.59l0.42-0.566l0.659-0.868l0.559-0.725l0.518-0.664l0.424-0.532l0.492-0.615
	l0.482-0.592l0.424-0.515l0.517-0.624l0.446-0.53l0.506-0.596l0.456-0.53l0.516-0.596l0.472-0.535l0.515-0.583l0.417-0.461
	l1.107-1.214l0.43-0.466l0.646-0.687l0.354-0.376l0.632-0.659l0.45-0.466l0.604-0.618l0.421-0.428l0.656-0.66l0.4-0.397l0.673-0.666
	l0.315-0.307c0.922-0.898,1.857-1.789,2.806-2.672l0.055-0.051l0.839-0.773l0.297-0.272l0.775-0.701l0.358-0.322l0.777-0.691
	l0.357-0.315l0.784-0.685l0.351-0.303l0.824-0.709l0.159-0.134c1.378-1.172,2.777-2.327,4.196-3.463l0.232-0.185l0.893-0.708
	l0.312-0.246l0.929-0.722l0.216-0.167l1.01-0.774l0.097-0.074c0.571-0.434,1.144-0.864,1.72-1.291
	c1.151-0.855,2.313-1.697,3.484-2.526c0.585-0.414,1.173-0.826,1.762-1.233l0.134-0.092l1.105-0.757l0.09-0.061
	c0.498-0.338,0.998-0.674,1.498-1.007c0.13-0.087,0.26-0.173,0.391-0.259c0.42-0.278,0.84-0.554,1.261-0.828
	c0.087-0.057,0.175-0.115,0.263-0.172c0.508-0.33,1.017-0.657,1.527-0.981c0.095-0.06,0.189-0.12,0.283-0.179
	c0.434-0.276,0.87-0.549,1.306-0.82c0.106-0.066,0.212-0.133,0.318-0.198c1.041-0.646,2.086-1.28,3.135-1.903
	c0.1-0.06,0.2-0.119,0.301-0.179c0.509-0.301,1.018-0.601,1.529-0.896c0.012-0.007,0.023-0.013,0.035-0.021
	c0.547-0.317,1.094-0.63,1.642-0.94c0.066-0.038,0.133-0.075,0.199-0.112c0.504-0.284,1.009-0.567,1.515-0.846
	c0.039-0.022,0.078-0.043,0.117-0.065c1.112-0.614,2.225-1.213,3.339-1.799c0.049-0.026,0.098-0.052,0.147-0.077
	c19.814-10.4,40.057-16.493,55.754-15.878c5.731,0.224,11.536,0.704,17.351,1.162c-23.052-61.381-29.888-129.794-35.911-195.86
	l52.43,196.87c8.332,0.244,16.549-0.104,24.453-1.87l6.458-290.442c14.061,94.882,27.716,194,6.03,286.213
	c8.961-4.227,16.753-10.769,25.967-14.421c14.877-5.897,31.898-3.571,46.865,2.095c9.098,3.444,17.599,8.189,25.347,13.959
	c47.103-89.495,80.419-195.288,52.087-295.612c-28.301-100.219-117.028-178.31-212.89-185.324c-5.847-0.427-11.804-0.609-17.47,0.99
	c-8.057,2.274-14.899,7.954-21.279,13.778c-69.856,63.771-111.754,162.424-111.789,262.071
	c-0.021,60.483,15.328,120.667,42.849,173.237c-82.327-68.699-186.472-129.301-298.64-123.268
	c-106.947,5.751-204.15,74.612-231.163,165.666c-1.647,5.553-3.069,11.266-2.635,17.081c0.618,8.27,4.922,16.099,9.468,23.513
	c49.776,81.183,140.542,142.878,241.018,164.366c91.152,19.493,188.772,5.692,266.008-36.362c-0.003-0.46-0.005-0.919-0.006-1.38
	C910.604,1108.846,910.602,1108.296,910.6,1107.746z"/>
<path style="fill:#4C0D33;" d="M1110.609,1229.801c1.975-1.33,3.856-2.78,5.685-4.304l0.795-0.67l0.963-0.83
	c1.743-1.521,3.444-3.096,5.135-4.687c0.564-0.53,1.126-1.061,1.689-1.593l1.041-0.982c0.467-0.441,0.935-0.88,1.404-1.319
	l0.705-0.656c0.47-0.436,0.942-0.871,1.416-1.303c0.949-0.863,1.906-1.715,2.878-2.547c0.95-0.814,1.912-1.61,2.886-2.388
	c0.649-0.519,1.304-1.03,1.963-1.534l0.993-0.751c0.665-0.497,1.333-0.987,2.007-1.47c1.011-0.725,2.031-1.436,3.061-2.133
	c0.944-0.639,1.895-1.267,2.854-1.884c1.438-0.926,2.892-1.829,4.359-2.714c1.466-0.885,2.948-1.749,4.438-2.598
	c0.493-0.281,0.987-0.56,1.482-0.837c0.154-0.086,0.307-0.171,0.46-0.256c0.357-0.199,0.714-0.398,1.071-0.594
	c0.122-0.067,0.243-0.134,0.366-0.2c0.396-0.218,0.793-0.436,1.191-0.652c0.075-0.04,0.15-0.081,0.224-0.121
	c0.461-0.25,0.923-0.499,1.384-0.747c0.005-0.002,0.009-0.005,0.013-0.006c3.845-2.061,7.738-4.055,11.64-6.039
	c0.114-0.058,0.227-0.115,0.342-0.173c0.496-0.253,0.994-0.505,1.491-0.757c0.803-0.408,1.606-0.816,2.41-1.224
	c0.277-0.141,0.555-0.283,0.832-0.424c0.179-0.091,0.359-0.183,0.538-0.274c0.312-0.159,0.624-0.318,0.936-0.477
	c0.189-0.096,0.377-0.193,0.565-0.289c0.274-0.14,0.549-0.281,0.824-0.422c0.266-0.137,0.533-0.274,0.799-0.411
	c0.165-0.084,0.329-0.169,0.493-0.254c0.351-0.181,0.702-0.362,1.052-0.543c0.141-0.073,0.28-0.145,0.421-0.218
	c0.337-0.175,0.675-0.351,1.011-0.526c0.171-0.089,0.34-0.178,0.51-0.266c0.347-0.182,0.694-0.365,1.042-0.547
	c0.113-0.059,0.225-0.118,0.337-0.178c0.383-0.201,0.764-0.404,1.144-0.606l0.346-0.185c0.365-0.195,0.73-0.39,1.094-0.585
	c0.131-0.071,0.262-0.142,0.393-0.213c0.372-0.2,0.742-0.402,1.113-0.603c0.113-0.061,0.225-0.123,0.338-0.185
	c0.367-0.201,0.733-0.402,1.099-0.604c0.119-0.066,0.238-0.131,0.357-0.197c0.379-0.21,0.757-0.421,1.135-0.633
	c0.108-0.061,0.216-0.122,0.324-0.183c0.345-0.193,0.688-0.389,1.032-0.584c0.163-0.093,0.326-0.186,0.49-0.279
	c0.311-0.178,0.622-0.357,0.931-0.537c1.731-1.001,3.447-2.025,5.144-3.078c3-1.862,5.967-3.88,8.855-6.039
	c1.447-1.083,2.875-2.2,4.276-3.353c0.085-0.07,0.17-0.141,0.255-0.212c0.363-0.3,0.725-0.603,1.084-0.908
	c0.126-0.106,0.25-0.213,0.375-0.32c0.314-0.268,0.627-0.539,0.937-0.811c0.148-0.13,0.296-0.26,0.443-0.391
	c0.291-0.257,0.581-0.517,0.869-0.777c0.154-0.139,0.308-0.278,0.462-0.418c0.28-0.257,0.559-0.516,0.837-0.776
	c0.151-0.141,0.303-0.281,0.453-0.423c0.417-0.395,0.831-0.792,1.241-1.193c0.914-0.895,1.811-1.806,2.687-2.731
	c0.292-0.309,0.582-0.619,0.869-0.931c0.575-0.624,1.141-1.255,1.697-1.892c0.278-0.319,0.553-0.639,0.826-0.961
	c0.545-0.644,1.082-1.295,1.606-1.952c0.524-0.656,1.038-1.32,1.54-1.99c0.502-0.669,0.992-1.345,1.471-2.026
	c0.479-0.682,0.945-1.37,1.398-2.063c0.454-0.693,0.895-1.393,1.323-2.098c0.427-0.705,0.842-1.417,1.241-2.133
	c0.401-0.717,0.786-1.439,1.158-2.167c1.857-3.638,3.349-7.414,4.398-11.305c0.209-0.778,0.401-1.561,0.575-2.349
	c0.954-4.331,1.353-8.799,1.092-13.379c-0.118-2.067-0.372-4.116-0.712-6.154c-0.161-0.965-0.34-1.929-0.536-2.89l-0.226-1.08
	l-0.255-1.159l-0.257-1.117c-0.108-0.463-0.219-0.925-0.331-1.388c-0.159-0.653-0.319-1.306-0.482-1.958l-0.279-1.114
	c-0.187-0.742-0.376-1.485-0.562-2.228c-0.165-0.651-0.326-1.302-0.486-1.953l-0.134-0.545c-0.341-1.396-0.668-2.795-0.964-4.197
	l-0.273-1.337c-0.145-0.73-0.28-1.46-0.403-2.193c-0.372-2.196-0.644-4.406-0.755-6.637c-0.254-5.072,0.319-10.096,1.169-15.106
	c0.056-0.334,0.114-0.668,0.174-1.002c0.413-2.337,0.879-4.672,1.341-7.007l0.261-1.326c0.503-2.561,0.991-5.123,1.389-7.691
	c0.371-2.399,0.653-4.805,0.849-7.214l0.008-0.108c0.044-0.547,0.083-1.094,0.118-1.64l0.01-0.152
	c0.035-0.568,0.066-1.136,0.092-1.704c0.019-0.417,0.033-0.834,0.047-1.251c0.005-0.141,0.011-0.283,0.016-0.425
	c0.016-0.541,0.028-1.083,0.036-1.623c0-0.005,0-0.011,0-0.017c0.459-34.004-15.819-67.8-41.834-89.729
	c2.857,4.045,5.469,8.383,6.665,12.999c1.311,5.061,0.083,9.853-1.812,14.584c-2.984,7.453-5.93,14.709-7.774,22.558
	c-3.642,15.5-3.166,30.655,1.384,45.89c2.412,8.077,5.488,15.951,8.559,23.795c2.619,6.692,5.437,13.221,7.006,20.268
	c2.098,9.43,2.224,19.389-2.081,28.234c-8.054,16.55-28.112,23.91-43.453,31.759c-9.304,4.76-18.555,9.912-26.523,16.74
	c-5.011,4.294-9.136,9.412-13.808,14.049c-5.789,5.745-12.152,11.052-19.212,15.171c-12.023,7.013-25.957,9.821-39.52,5.966
	c-15.439-4.388-28.734-15.69-38.709-27.92c-3.475-4.26-6.719-8.721-11.028-12.202c-5.833-4.711-12.879-7.735-19.968-9.99
	c-12.586-4.002-26.154-6.322-36.264-15.502c-10.87-9.869-15.281-24.122-13.551-38.462c1.873-15.508,8.309-29.992,13.138-44.717
	c2.367-7.222,4.556-14.654,5.308-22.244c0.671-6.781,0.79-13.561,1.75-20.326c1.717-12.087,5.071-24.068,11.03-34.783
	c6.067-10.909,14.603-19.317,24.539-25.726c-11.278,2.592-23.527,7.333-35.615,13.678c-0.048,0.025-0.098,0.051-0.147,0.077
	c-1.115,0.586-2.228,1.185-3.339,1.799c-0.039,0.021-0.078,0.043-0.117,0.065c-0.506,0.279-1.01,0.562-1.515,0.846
	c-0.066,0.037-0.132,0.074-0.199,0.112c-0.548,0.31-1.095,0.624-1.642,0.94c-0.012,0.007-0.023,0.014-0.035,0.021
	c-0.51,0.296-1.02,0.595-1.529,0.896c-0.101,0.059-0.201,0.119-0.301,0.179c-1.049,0.623-2.094,1.257-3.135,1.903
	c-0.106,0.065-0.212,0.132-0.318,0.198c-0.436,0.271-0.872,0.544-1.306,0.82c-0.094,0.059-0.189,0.119-0.283,0.179
	c-0.51,0.324-1.019,0.652-1.527,0.981c-0.088,0.057-0.176,0.115-0.263,0.172c-0.421,0.274-0.841,0.55-1.261,0.828
	c-0.131,0.086-0.261,0.172-0.391,0.259c-0.5,0.333-1,0.669-1.498,1.007l-0.09,0.061l-1.105,0.757l-0.134,0.092
	c-0.589,0.408-1.177,0.819-1.762,1.233c-1.17,0.829-2.333,1.671-3.484,2.526c-0.576,0.427-1.149,0.858-1.72,1.291l-0.097,0.074
	l-1.01,0.774l-0.216,0.167l-0.929,0.722l-0.312,0.246l-0.893,0.708l-0.232,0.185c-1.419,1.136-2.818,2.291-4.196,3.463l-0.159,0.134
	l-0.824,0.709l-0.351,0.303l-0.784,0.685l-0.357,0.315l-0.777,0.691l-0.358,0.322l-0.775,0.701l-0.297,0.272l-0.839,0.773
	l-0.055,0.051c-0.949,0.882-1.884,1.773-2.806,2.672l-0.315,0.307l-0.673,0.666l-0.4,0.397l-0.656,0.66l-0.421,0.428l-0.604,0.618
	l-0.45,0.466l-0.632,0.659l-0.354,0.376l-0.646,0.687l-0.43,0.466l-1.107,1.214l-0.417,0.461l-0.515,0.583l-0.472,0.535
	l-0.516,0.596l-0.456,0.53l-0.506,0.596l-0.446,0.53l-0.517,0.624l-0.424,0.515l-0.482,0.592l-0.492,0.615l-0.424,0.532
	l-0.518,0.664l-0.559,0.725l-0.659,0.868l-0.42,0.566l-0.436,0.59l-0.421,0.582l-0.435,0.605c-2.552,3.586-4.835,7.239-6.802,10.939
	l-0.196,0.374l-0.271,0.518l-0.38,0.746l-0.237,0.468l-0.455,0.931l-0.141,0.29l-0.557,1.196l-0.203,0.455l-0.342,0.768
	l-0.222,0.518l-0.302,0.713l-0.217,0.53l-0.283,0.709l-0.21,0.536l-0.264,0.701l-0.2,0.538l-0.265,0.747l-0.169,0.482l-0.322,0.965
	l-0.09,0.274l-0.375,1.209l-0.134,0.461l-0.223,0.776l-0.142,0.529l-0.188,0.711l-0.138,0.553l-0.166,0.689l-0.13,0.566l-0.147,0.68
	l-0.118,0.563l-0.137,0.714l-0.1,0.531l-0.147,0.877l-0.087,0.553l-0.145,1.013l-0.06,0.49l-0.089,0.76
	c-0.58,5.334-0.347,10.666,0.828,15.935c1.247,5.594,3.214,10.99,5.235,16.369c0.134,0.358,0.269,0.717,0.404,1.075
	c0.432,1.147,0.865,2.294,1.291,3.442c0.476,1.283,0.943,2.567,1.395,3.855c1.437,4.097,2.708,8.238,3.52,12.502
	c1.324,6.944,1.413,14.083,1.443,21.214c0.003,0.55,0.005,1.099,0.007,1.649c0.001,0.46,0.003,0.92,0.006,1.38l0.001,0.26
	l0.005,0.826l0.008,0.821c0.005,0.547,0.011,1.094,0.019,1.641c0.016,1.093,0.039,2.185,0.074,3.273l0.029,0.85
	c0.021,0.533,0.044,1.065,0.071,1.596l0.043,0.813c0.031,0.542,0.066,1.082,0.105,1.622l0.063,0.809
	c0.044,0.539,0.092,1.077,0.146,1.614l0.026,0.247c0.075,0.722,0.159,1.443,0.255,2.161c0.071,0.534,0.149,1.066,0.232,1.598
	c0.167,1.062,0.362,2.119,0.586,3.17c0.17,0.788,0.355,1.574,0.56,2.355c0.068,0.26,0.139,0.52,0.211,0.78l0.336,1.137
	c0.201,0.656,0.415,1.309,0.646,1.958c0.555,1.557,1.187,3.066,1.892,4.528c0.859,1.785,1.825,3.501,2.885,5.156
	c1.719,2.684,3.682,5.204,5.843,7.582l0.66,0.717c1.111,1.187,2.27,2.339,3.469,3.458l0.725,0.668
	c1.172,1.067,2.383,2.103,3.625,3.114c0.561,0.457,1.129,0.909,1.702,1.355c0.789,0.615,1.59,1.219,2.399,1.814
	c1.89,1.388,3.832,2.726,5.807,4.022c1.41,0.926,2.838,1.83,4.276,2.716c2.014,1.24,4.048,2.444,6.083,3.621
	c2.035,1.176,4.073,2.325,6.093,3.454l73.534,41.114c7.895,4.414,15.996,8.889,24.42,12.153c0.482,0.186,0.964,0.369,1.447,0.547
	c0.967,0.357,1.938,0.696,2.914,1.018c0.732,0.241,1.467,0.471,2.204,0.691c0.491,0.146,0.983,0.287,1.477,0.423l0.741,0.2
	c1.237,0.326,2.481,0.619,3.733,0.874l0.752,0.148c0.753,0.144,1.509,0.275,2.268,0.391c0.759,0.116,1.52,0.218,2.285,0.303
	c1.274,0.143,2.556,0.244,3.848,0.299l0.979,0.032c1.307,0.03,2.614,0.012,3.92-0.056c0.652-0.034,1.304-0.08,1.955-0.138
	c0.651-0.058,1.301-0.128,1.949-0.21c0.598-0.076,1.195-0.163,1.79-0.259c0.644-0.104,1.285-0.22,1.924-0.348l1.292-0.275
	c0.513-0.116,1.026-0.239,1.535-0.37c2.446-0.629,4.846-1.433,7.175-2.406c2.553-1.065,5.02-2.332,7.37-3.796
	C1109.543,1230.506,1110.08,1230.158,1110.609,1229.801z"/>
<path style="fill:#DC638E;" d="M912.838,1134.432c-0.205-0.782-0.391-1.567-0.56-2.355c-0.224-1.051-0.419-2.108-0.586-3.17
	c-0.083-0.531-0.161-1.064-0.232-1.598c-0.096-0.718-0.18-1.438-0.255-2.161c-12.772,8.004-26.053,15.377-39.761,22.106
	c13.613-4.257,27.386-7.859,41.268-10.769l0.674-0.137l-0.336-1.137C912.977,1134.953,912.906,1134.693,912.838,1134.432z"/>
<path style="fill:#EF82A4;" d="M1666.854,526.955c-14.911-52.288-43.025-97.263-74.937-137.89
	c-32.309-41.133-60.208-40.784-113.033-19.006c-44.617,18.395-89.235,36.791-133.853,55.186
	c5.661,7.546,10.131,16.028,13.655,24.751c12.853,31.823,15.733,66.49,22.917,99.778c3.923,18.179,10.138,37.121,25.358,49.011
	c13.363,10.44,30.639,12.663,47.111,11.548c20.743-1.404,40.85-7.336,61.024-11.938c25.736-5.872,51.526-11.758,77.692-15.401
	c25.096-3.495,50.743-4.832,75.93-1.461c2.626,0.352,5.324,0.809,7.927,1.27C1675.24,563.591,1671.929,544.754,1666.854,526.955z"/>
<path style="fill:#DC638E;" d="M1276.876,804.767c78.691-82.863,176.247-152.858,291.382-169.513
	c36.004-5.208,72.272-4.674,107.213,0.924c2.134-17.841,2.466-35.782,1.174-53.376c-2.633-0.466-5.271-0.914-7.927-1.27
	c-25.187-3.371-50.834-2.034-75.93,1.461c-26.166,3.643-51.956,9.529-77.692,15.401c-20.174,4.602-40.281,10.534-61.024,11.938
	c-16.472,1.115-33.748-1.108-47.111-11.548c-15.22-11.89-21.435-30.832-25.358-49.011c-7.184-33.288-10.064-67.954-22.917-99.778
	c-3.524-8.723-7.994-17.205-13.655-24.751c-14.143,5.831-28.286,11.662-42.429,17.493c-7.931,3.27-16.061,6.74-24.148,10.515
	c9.366,18.861,17.077,38.665,22.869,59.172C1328.815,609.779,1312.282,711.041,1276.876,804.767z"/>
<path style="fill:#EF82A4;" d="M707.29,429.268c-53.385-20.368-81.284-19.974-112.488,22.002
	c-30.822,41.461-57.732,87.166-71.248,139.833c-1.116,4.347-2.147,8.894-3.055,13.345c0.071,0.066,0.254,0.052,0.254,0.052
	c13.4,2.427,26.552,6.239,39.359,10.838c36.131,12.972,69.786,31.87,105.839,45.046c17.332,6.335,35.874,12.257,54.426,13.204
	c13.836,0.706,27.729-2.318,38.466-11.452c10.392-8.84,16.326-21.854,20.301-34.626c5.806-18.654,8.181-38.287,9.705-57.696
	c2.752-35.036,2.257-71.04,12.491-104.663C769.99,453.19,738.641,441.229,707.29,429.268z"/>
<path style="fill:#DC638E;" d="M779.144,627.509c-3.975,12.772-9.909,25.787-20.301,34.626
	c-10.738,9.133-24.631,12.158-38.466,11.452c-18.552-0.947-37.093-6.869-54.426-13.204c-36.053-13.177-69.708-32.074-105.839-45.046
	c-12.889-4.628-26.124-8.465-39.612-10.89c-6.06,29.798-7.39,61.718-3.093,93.251c125.584-6.136,243.48,50.919,342.527,123.827
	c-24.473-59.102-37.828-123.638-37.806-188.434c0.018-51.342,8.465-102.483,24.246-150.759l-45.033-17.181
	c-10.234,33.623-9.739,69.627-12.491,104.663C787.325,589.222,784.95,608.855,779.144,627.509z"/>
<path style="fill:#EF82A4;" d="M1285.608,1734.155l-0.898-0.142c-16.344-3.081-31.752-9.538-45.708-18.537
	c-14.745-9.509-27.692-21.558-39.486-34.488c-6.296-6.901-12.277-14.085-18.055-21.424c-6.359-8.078-12.238-16.392-20.025-23.208
	c-12.144-10.628-27.882-17.642-44.202-14.112c-17.546,3.796-30.407,18.297-39.126,33.135c-18.04,30.7-33.597,63.107-54.844,91.812
	c-8.952,12.095-19.236,23.39-30.777,33.071c6.31,5.03,12.801,9.787,19.401,14.144c45.374,29.96,96.002,45.769,146.68,55.806
	c51.307,10.162,72.249-8.275,98.142-59.21"/>
<path style="fill:#DC638E;" d="M1107.363,1390.013c-10.982,125.718-47.937,254.171-141.622,341.544
	c-4.027,3.756-8.141,7.408-12.333,10.955c11.922,13.978,25.104,26.644,39.08,37.75c11.575-9.697,21.804-20.948,30.777-33.071
	c21.247-28.705,36.804-61.112,54.844-91.812c8.72-14.838,21.581-29.339,39.126-33.135c16.32-3.53,32.057,3.484,44.202,14.112
	c7.787,6.816,13.666,15.13,20.025,23.208c5.777,7.339,11.759,14.523,18.055,21.424c11.794,12.93,24.741,24.979,39.486,34.488
	c13.956,8.999,29.364,15.457,45.708,18.537l0.898,0.142c6.72-13.219,13.44-26.437,20.159-39.656
	c-12.862-7.582-25.289-16.018-37.154-25.3C1180.932,1600.605,1133.092,1496.986,1107.363,1390.013z"/>
<path style="fill:#61043B;" d="M896.484,1033.354l-0.038,0.358l-195.557-45.598c63.233,26.617,129.09,53.647,196.423,61.177v-0.002
	C896.137,1044.02,895.904,1038.688,896.484,1033.354z"/>
<path style="fill:#61043B;" d="M655.823,869.692l248.512,139.525c1.967-3.7,4.25-7.353,6.802-10.939l-0.22,0.308
	C839.764,936.302,746.025,901.826,655.823,869.692z"/>
<path style="fill:#61043B;" d="M912.278,1132.077c0.17,0.788,0.355,1.574,0.56,2.355
	C912.633,1133.651,912.447,1132.865,912.278,1132.077z"/>
<path style="fill:#61043B;" d="M982.369,1193.305c-82.186,51.854-141.927,135.338-198.3,215.882l208.133-210.385L982.369,1193.305z"
	/>
<path style="fill:#61043B;" d="M1011.927,1209.831l-101.724,187.312c44.078-55.995,89.333-114.6,113.914-180.497L1011.927,1209.831z
	"/>
<path style="fill:#61043B;" d="M1240.124,1002.98c-0.112-0.627-0.209-1.256-0.339-1.88l170.281-61.886
	c-59.126,10.713-120.11,22.26-175.003,45.427c-0.236-0.642-0.509-1.269-0.776-1.9c-0.014,0.007-0.025,0.015-0.039,0.021
	c2.558,6.558,4.512,13.333,5.837,20.222C1240.098,1002.983,1240.11,1002.98,1240.124,1002.98z"/>
<path style="fill:#61043B;" d="M1214.273,1075.086c-1.569-7.047-4.386-13.576-7.006-20.268c-3.071-7.844-6.147-15.718-8.559-23.795
	c-4.55-15.235-5.026-30.39-1.384-45.89c1.844-7.849,4.79-15.105,7.774-22.558c1.895-4.731,3.123-9.524,1.812-14.584
	c-1.196-4.617-3.808-8.955-6.665-12.999c-2.096-1.918-1.986-1.914-4.247-3.636l-0.95-0.715
	c-7.748-5.771-16.249-10.515-25.347-13.959c-14.966-5.665-31.987-7.992-46.865-2.095c-9.214,3.653-17.006,10.195-25.967,14.421
	c21.686-92.212,8.031-191.331-6.03-286.213l-6.458,290.442c-7.904,1.766-16.121,2.114-24.453,1.87l-52.43-196.87
	c6.023,66.067,12.859,134.479,35.911,195.86c-5.815-0.458-11.62-0.937-17.351-1.162c-6.13-0.24-12.965,0.572-20.187,2.235
	c-9.914,6.405-18.435,14.799-24.491,25.69c-5.958,10.715-9.313,22.696-11.03,34.783c-0.96,6.765-1.079,13.545-1.75,20.326
	c-0.752,7.59-2.941,15.022-5.308,22.244c-4.828,14.725-11.265,29.208-13.138,44.717c-1.731,14.34,2.681,28.593,13.551,38.462
	c10.11,9.181,23.678,11.5,36.264,15.502c7.089,2.254,14.135,5.279,19.968,9.99c4.309,3.48,7.553,7.942,11.028,12.202
	c9.975,12.231,23.27,23.532,38.709,27.92c13.563,3.855,27.497,1.047,39.52-5.966c7.061-4.119,13.423-9.426,19.212-15.171
	c4.672-4.637,8.797-9.755,13.808-14.049c7.968-6.828,17.219-11.979,26.523-16.74c15.34-7.849,35.398-15.21,43.453-31.759
	C1216.497,1094.475,1216.371,1084.516,1214.273,1075.086z"/>
<path style="fill:#61043B;" d="M1239.515,1046.545c90.192,10.146,183.539-11.28,272.973-32.734l-270.742,17.919l0.006-0.089
	c-0.196,2.409-0.478,4.815-0.849,7.214C1240.505,1041.422,1240.018,1043.984,1239.515,1046.545z"/>
<path style="fill:#61043B;" d="M1290.518,1443.575l-117.804-257.589c-3.902,1.984-7.795,3.977-11.64,6.039
	C1182.348,1283.11,1237.155,1365.289,1290.518,1443.575z"/>
<path style="fill:#61043B;" d="M1210.091,1164.509l-8.833,6.023c-1.657,1.029-3.161,1.93-4.852,2.91l127.499,147.903
	C1290.621,1266.082,1255.679,1209.159,1210.091,1164.509z"/>
<path style="fill:#4C0D33;" d="M1020.275,1006.858c-1.234-2.056,0.191-4.622,0.375-7.013c0.208-2.694-1.409-5.435-3.866-6.558
	c-4.689-2.141-16.56,3.498-12.407,9.868c0.799,1.225,2.183,2.057,2.705,3.422c0.682,1.781-0.337,3.72-0.527,5.619
	c-0.37,3.699,2.817,7.198,6.495,7.737c3.678,0.539,7.441-1.507,9.544-4.572c1.086-1.581,1.773-3.744,0.772-5.38
	C1022.599,1008.724,1021.032,1008.121,1020.275,1006.858z"/>
<path style="fill:#4C0D33;" d="M1095.11,974.953c-1.234-2.056,0.191-4.623,0.375-7.013c0.208-2.694-1.409-5.436-3.866-6.558
	c-4.689-2.141-16.56,3.498-12.407,9.868c0.799,1.225,2.183,2.057,2.705,3.422c0.682,1.782-0.337,3.72-0.527,5.619
	c-0.37,3.699,2.817,7.198,6.495,7.737c3.678,0.539,7.441-1.507,9.544-4.572c1.086-1.581,1.773-3.744,0.772-5.381
	C1097.434,976.819,1095.868,976.217,1095.11,974.953z"/>
<path style="fill:#4C0D33;" d="M1000.937,1067.595c-0.368,1.176-0.167,2.521-0.775,3.594c-0.793,1.398-2.599,1.776-3.935,2.67
	c-2.603,1.743-3.169,5.691-1.547,8.371c1.622,2.681,4.969,4.03,8.09,3.754c1.61-0.142,3.385-0.855,3.912-2.383
	c0.405-1.173-0.043-2.515,0.372-3.685c0.674-1.905,3.108-2.355,4.76-3.517c1.863-1.31,2.778-3.83,2.19-6.03
	C1012.883,1066.173,1002.851,1061.479,1000.937,1067.595z"/>
<path style="fill:#4C0D33;" d="M1084.879,1042.019c1.611-0.142,3.385-0.855,3.912-2.384c0.405-1.173-0.043-2.515,0.372-3.685
	c0.674-1.904,3.108-2.354,4.76-3.516c1.862-1.31,2.778-3.831,2.19-6.03c-1.123-4.196-11.155-8.89-13.068-2.774
	c-0.368,1.176-0.167,2.521-0.774,3.594c-0.793,1.398-2.599,1.775-3.935,2.67c-2.603,1.743-3.169,5.691-1.548,8.371
	C1078.411,1040.946,1081.759,1042.295,1084.879,1042.019z"/>
<path style="fill:#4C0D33;" d="M1164.875,983.143c-1.121-4.196-11.153-8.889-13.067-2.774c-0.368,1.176-0.167,2.521-0.775,3.594
	c-0.792,1.399-2.599,1.776-3.935,2.671c-2.603,1.743-3.168,5.691-1.547,8.371c1.622,2.681,4.97,4.029,8.09,3.754
	c1.61-0.142,3.385-0.856,3.912-2.384c0.405-1.173-0.043-2.515,0.371-3.685c0.676-1.905,3.109-2.354,4.761-3.516
	C1164.548,987.864,1165.463,985.343,1164.875,983.143z"/>
<path style="fill:#4C0D33;" d="M1061.76,1082.922c-0.368,1.176-0.167,2.521-0.774,3.594c-0.793,1.399-2.599,1.776-3.936,2.67
	c-2.603,1.744-3.168,5.692-1.547,8.372c1.622,2.681,4.97,4.029,8.09,3.754c1.61-0.142,3.385-0.855,3.912-2.383
	c0.405-1.173-0.043-2.516,0.372-3.685c0.675-1.904,3.108-2.354,4.76-3.516c1.862-1.31,2.778-3.83,2.19-6.03
	C1073.706,1081.5,1063.675,1076.806,1061.76,1082.922z"/>
<path style="fill:#4C0D33;" d="M1167.188,1038.976c-0.368,1.176-0.167,2.521-0.774,3.594c-0.792,1.398-2.599,1.776-3.935,2.67
	c-2.603,1.743-3.169,5.691-1.547,8.371c1.622,2.681,4.97,4.029,8.09,3.754c1.61-0.142,3.385-0.855,3.912-2.383
	c0.404-1.174-0.044-2.515,0.371-3.685c0.675-1.904,3.108-2.354,4.761-3.516c1.862-1.31,2.777-3.831,2.19-6.03
	C1179.134,1037.553,1169.102,1032.86,1167.188,1038.976z"/>
<path style="fill:#4C0D33;" d="M1135.323,1097.736c-0.369,1.176-0.167,2.522-0.775,3.594c-0.793,1.399-2.599,1.776-3.935,2.671
	c-2.604,1.743-3.169,5.69-1.548,8.371c1.622,2.681,4.97,4.029,8.09,3.754c1.61-0.142,3.385-0.855,3.912-2.383
	c0.405-1.174-0.043-2.515,0.371-3.685c0.676-1.904,3.108-2.354,4.761-3.517c1.863-1.309,2.778-3.83,2.19-6.03
	C1147.268,1096.315,1137.236,1091.621,1135.323,1097.736z"/>
<path style="fill:#4C0D33;" d="M1083.767,1142.744c-0.369,1.176-0.167,2.521-0.775,3.594c-0.793,1.398-2.599,1.776-3.935,2.67
	c-2.603,1.743-3.169,5.691-1.547,8.371c1.621,2.681,4.969,4.03,8.09,3.754c1.61-0.142,3.385-0.855,3.912-2.383
	c0.405-1.173-0.043-2.515,0.372-3.685c0.675-1.905,3.108-2.355,4.76-3.517c1.863-1.31,2.778-3.83,2.19-6.03
	C1095.712,1141.322,1085.68,1136.628,1083.767,1142.744z"/>
</svg>
