<svg width="79" height="80" viewBox="0 0 79 80" fill="none" xmlns="http://www.w3.org/2000/svg">
<path d="M9.28372 62.685L8.20605 60.8298C20.3617 59.1518 29.7206 60.7854 32.8806 61.812L27.7153 64.3219C16.7455 61.9356 10.8568 62.2364 9.28372 62.685Z" fill="url(#paint0_linear_378_712)"/>
<path d="M19.8545 69.4454C18.1163 68.092 13.5996 66.4807 11.5586 65.8442C11.8549 66.3083 13.542 68.1645 14.3486 69.0345L17.1879 71.7657L19.8545 69.4454Z" fill="url(#paint1_linear_378_712)"/>
<path d="M9.18359 62.5942L10.3086 64.3139L13.237 64.4425L16.1505 64.8776L21.1379 65.9893L23.4835 66.9561L27.7796 64.4425L26.5698 64.1041L23.2366 63.4032L19.1133 62.8715L15.5085 62.5942L11.4593 62.4365L9.18359 62.5942Z" fill="url(#paint2_linear_378_712)"/>
<path d="M38.0462 59.6688C23.6951 56.2169 11.6334 57.896 7.39648 59.167L8.06282 60.7725C22.4959 59.4079 30.6486 60.9063 32.9209 61.8262L38.0462 59.6688Z" fill="url(#paint3_linear_378_712)"/>
<path d="M26.8093 77.1902L24.2266 76.0314L27.8447 72.5187L32.028 68.8331L38.1461 64.8916L45.2578 61.462L51.0099 59.3633L55.7467 58.1722L60.5165 57.3078L65.2863 56.9456H69.1431L74.1311 57.3078L73.7125 58.4757C55.4166 57.3597 39.1907 71.6734 32.7282 78.9389L30.9633 78.5175L26.8093 77.1902Z" fill="url(#paint4_linear_378_712)"/>
<path d="M74.169 57.4329C48.8008 54.5141 30.3506 68.6819 24.2966 76.1306C21.2388 74.8639 18.7967 72.7101 17.3574 71.6722C38.5665 53.9831 62.3949 53.8205 74.6318 56.2694L74.169 57.4329Z" fill="url(#paint5_linear_378_712)"/>
<path d="M55.8843 32.6759L54.9316 29.682L55.8843 27.7597L57.058 28.7123L57.7895 30.8047L58.1467 33.4244L55.8843 32.6759Z" fill="url(#paint6_linear_378_712)"/>
<path d="M43.3976 79.528C39.2662 80.0206 34.7021 79.3228 32.9365 78.9123C47.8816 61.2327 66.2573 57.8924 73.5769 58.4321L73.3206 59.2023C60.5529 60.1826 48.0521 73.1613 43.3976 79.528Z" fill="url(#paint7_linear_378_712)"/>
<path d="M54.9307 76.6016C57.2629 72.2523 64.1518 62.9982 72.4415 60.7788C70.4045 64.6801 63.9289 73.3071 54.9307 76.6016Z" fill="url(#paint8_linear_378_712)"/>
<path d="M11.6425 65.9313L10.25 64.1895C17.6149 64.7044 22.1637 66.1711 23.5175 66.84L19.9976 69.3769C15.6653 67.0445 12.6224 66.108 11.6425 65.9313Z" fill="url(#paint9_linear_378_712)"/>
<path d="M73.196 59.2827C61.3841 59.5855 48.3924 72.9103 43.373 79.5348C46.3001 79.6991 52.3368 77.777 54.9892 76.7954L55.2691 76.0193L56.7149 73.5538L59.7932 69.7415L61.5889 67.6869L64.6672 64.9475L68.3985 62.5048L71.8733 60.8384L72.4796 60.6786L73.196 59.2827Z" fill="url(#paint10_linear_378_712)"/>
<path d="M10.5641 25.3709L9.7666 24.7479L12.7101 20.8822L14.1834 21.8866L15.3586 22.9282L17.0677 23.7337L19.332 24.5502L21.2806 25.3013L22.7502 25.617L25.1669 25.7368L23.6319 26.379V26.6403L25.6894 27.7833L27.4093 28.8207L28.2818 29.0207L29.6814 28.748L30.5076 28.2299L31.381 27.1302L32.2353 26.9303V27.2484L31.7355 28.1481L30.5076 29.3115L29.6814 29.6569L29.2997 29.9931L29.4633 30.184L30.7539 30.7111L32.6069 31.1341L34.4811 31.3617L36.0407 31.9583H37.2501L38.6928 31.6092L39.7399 30.9286L41.6342 30.4748L43.1254 30.2884L44.7439 30.102L48.5614 28.1099L48.873 28.8607L45.5799 30.5468L45.4877 30.7971L47.2791 32.4042L48.7956 32.2329L49.6107 31.8509L49.7176 30.9552L50.243 29.9804L51.0597 29.3481L52.0213 29.0583L53.141 29.1374L53.8918 29.4272L54.8271 30.3888L55.4067 31.7455L55.2881 33.2266L54.3002 34.5908L52.6536 35.0914L51.3495 34.778L50.4669 33.9059L49.9532 32.9485H49.7176L48.7956 33.2266L48.415 33.4479L48.3126 33.7827L48.5614 34.3389L48.7956 34.778H48.5614L47.7271 34.1457L47.042 33.4479L45.846 32.3148L44.7439 31.5156L43.4072 31.3046L40.8512 31.7267L36.941 32.3148L34.2131 32.4928L32.4257 32.549L32.3327 32.6552L32.9964 33.6991L34.2131 35.5667L34.7294 36.9878H35.1861L36.1808 36.4194C36.8792 34.5842 38.0214 33.8412 38.5052 33.6991L38.6067 34.1457L38.353 35.5667L37.519 37.1191L38.1184 37.5464L39.341 38.5494L39.8514 39.3032L39.1927 39.3447L37.992 39.0184L37.2567 38.5142L36.5984 37.9749L35.9541 37.8279L35.2455 38.0937L35.0427 38.4255V39.3104L35.4114 39.9188L36.1857 40.859L36.3885 41.5042L36.0198 41.412L34.5081 40.859L34.3975 40.4903L34.2131 38.8311L33.4388 36.5451L32.4802 34.6462L31.5584 33.4479L30.5076 32.3234L28.9407 31.0342L26.9729 29.7657L24.8588 28.6924L21.6485 27.4763L19.6425 26.7833L17.9419 26.4086L16.2841 26.3453L14.1834 26.2694L13.0191 26.1302L12.2598 25.8897L10.5641 25.3709Z" fill="url(#paint11_linear_378_712)"/>
<path d="M40.0639 33.45H39.0965L39.0366 34.426L38.9338 35.4105L38.4287 36.8317L39.516 37.9019L40.3122 39.1176H40.5776L41.2968 38.758L42.307 37.9618L42.7779 37.0458L42.8806 36.0184L42.521 35.2479L42.0245 34.8198L41.3909 34.6571H40.7488H40.0639L39.7215 34.4774L39.9869 34.2205L41.2283 33.6812L40.0639 33.45Z" fill="url(#paint12_linear_378_712)"/>
<path d="M35.1756 26.2159L33.0713 26.5744V27.0732V28.1799L33.6013 29.4113L34.7703 30.5024L36.0797 31.1882H37.0461L38.2307 31.0012L39.2439 30.3465L40.1012 29.2398L40.2571 28.8034V28.2578L38.8074 27.0732L37.4358 26.4808L35.1756 26.2159Z" fill="url(#paint13_linear_378_712)"/>
<path d="M33.9714 23.6734L33.6973 25.4763L33.8617 25.6164L35.555 25.4763L35.7804 25.318L35.5184 24.5383L34.9459 23.8927L33.9714 23.6734Z" fill="url(#paint14_linear_378_712)"/>
<path d="M31.9135 20.3363L30.8358 19.1438L29.8956 19.4419L28.8178 20.1987L28.0381 21.5975V23.2257L28.7031 24.785L29.8956 25.7482L31.1109 26.2297H32.762L32.9455 25.3354L33.1519 23.5467L32.762 21.9644L31.9135 20.3363Z" fill="url(#paint15_linear_378_712)"/>
<path d="M54.1341 28.7066C52.4304 27.6334 50.7189 28.5389 50.0761 29.1258L49.2879 28.0191L49.2041 27.0297L49.2879 26.2919L49.7239 25.4199L50.445 24.615L51.2667 24.0952L52.2057 23.9946L53.1112 24.1958L54 24.8498L54.5869 25.8391L54.7043 27.1974L54.1341 28.7066Z" fill="url(#paint16_linear_378_712)"/>
<path d="M56.0292 33.5025C55.3182 35.4209 53.1952 35.934 52.2227 35.9508L52.5916 37.242L53.6983 38.3152L55.0398 38.8015L56.3981 38.5835L57.3204 37.9966L57.7564 37.0408L57.8905 35.9508L57.5887 34.9447L56.8676 34.0224L56.0292 33.5025Z" fill="url(#paint17_linear_378_712)"/>
<path d="M55.3755 28.0192L54.8389 29.0756L55.1072 29.5619L55.3755 29.0756L55.6438 28.5558L55.7947 28.321L56.499 28.5558V29.0756L55.6438 29.9308V30.1991L55.7947 30.4507L56.9182 29.9308H57.2536L57.5386 30.4507L57.3709 30.8364L56.1301 31.0376L55.9288 31.1717L56.0462 31.5909L56.3145 31.7083H57.0859L57.7734 31.9263V32.3288L57.6392 32.7815H57.0859L56.499 32.4294H56.1301V32.7815L57.0859 33.2678L57.7734 33.9889L58.4442 34.9615L59.1149 33.9889L59.3161 33.0163V32.0605L58.9472 31.1717L57.9579 30.0314L58.0752 29.2936V28.5558L57.7734 27.7509L57.3709 27.0634L56.6499 26.51L55.9288 26.3255H55.4593L55.3755 28.0192Z" fill="url(#paint18_linear_378_712)"/>
<path d="M38.7725 26.6958L32.4576 20.2863L31.7314 18.1708L33.4049 17.413L38.2357 17.7288L41.4563 20.9809L42.3403 26.3485L38.7725 26.6958Z" fill="url(#paint19_linear_378_712)"/>
<path d="M32.6143 20.1761L33.3203 20.8417L33.4058 19.3891L33.1236 18.6471L33.2365 18.1304L33.8573 17.8962L34.2475 18.401L34.1254 19.3891L34.2475 21.4493L34.73 19.7281V18.5255L34.9188 17.9731L35.613 17.8962L35.9754 18.2808L35.613 19.155L35.041 21.4493V21.9815L35.9754 20.1919L36.4625 18.9176L36.5587 18.2267L37.0231 18.1304L37.5215 18.3173L37.6631 18.8213L36.2359 21.1433L35.9471 21.9305L37.173 20.4038L37.811 19.3891L38.3396 18.7876L38.8986 18.9577L39.1418 19.5771L38.5728 20.0729L37.0671 21.8041L36.8497 22.3081L38.6785 20.9507L39.3531 20.016L39.9545 20.0729L40.304 20.5281L40.1984 20.9507L39.4913 21.2677L37.0671 23.1725L39.5799 22.0937L40.0536 21.5543L40.8035 21.4228L41.0929 22.1595L40.8824 22.5805L40.1325 22.6595L37.1461 24.1329L39.0406 23.7251L40.1325 23.3699L40.8824 23.1725L41.3429 23.462L41.2508 24.1329L40.8035 24.3434H39.5799L38.1986 24.6329L37.7249 24.9223H39.6852L40.8824 24.7513L41.2508 25.1328L41.0929 25.8432L40.6061 25.9485L39.6852 25.659H38.9221H38.3696L38.4485 25.9485L39.8825 26.8694L41.014 27.8693L42.6322 29.0796L43.9215 29.1849L45.3949 28.7639L46.7369 27.6588L47.4078 26.4089L47.592 24.7513L47.3026 23.462L46.9211 22.6595L45.8554 21.3044L45.5397 20.765L45.7238 20.3966L46.1448 19.3967L46.3027 18.0154L46.1448 16.9102L45.3555 15.4236L44.3407 14.2705L43.2051 13.5277L41.5367 13.0017H40.1315L38.1817 13.7918L37.748 13.3077L36.5982 12.531L35.2265 11.936L33.8145 11.7645L32.5135 12.0268L31.0006 12.8034L29.9819 14.3263L29.6895 15.8392L30.0929 16.989L31.2729 18.401L32.6143 20.1761Z" fill="url(#paint20_linear_378_712)"/>
<path d="M49.8314 30.63L49.6484 31.7933L50.0536 33.1003L50.6941 34.2244L51.6221 34.9302L52.8245 35.0739L54.027 34.7341L54.9681 33.8192L55.334 32.6951V31.6756L54.9681 30.63L54.2492 29.7935L53.6088 29.323L52.8245 29.1531H51.7528L50.7856 29.5582L49.8314 30.63Z" fill="url(#paint21_linear_378_712)"/>
<path d="M53.8799 22.9771L53.6533 21.3344V21.089L55.0128 23.468L57.1143 21.7337L56.9592 20.6591L56.6157 19.4183L55.5633 18.9716L54.5773 17.8858L54.0234 16.826L53.8794 15.2368L54.1563 14.145L54.677 13.6575V14.2261L54.8432 14.3444L55.807 13.4027L56.6933 12.9928H57.6017L58.5323 13.8126L59.0309 15.8621L58.5323 17.7566L57.524 19.0741L58.0238 20.5029H58.2143L60.7725 17.8858L61.0386 15.2368L60.8865 14.2261L61.0386 14.0118L61.9168 16.2383L62.2487 16.342L65.9068 11.6958L61.5933 18.5229L62.1227 18.9716L62.5534 18.8281L64.6084 17.8858V18.0384L63.5316 19.4831L63.3072 19.805L64.0192 20.8561V21.089L62.2255 20.1071L61.187 19.805H60.4695L59.1478 21.089L58.7324 21.8253L59.28 22.9771L58.5247 23.1281H57.524L56.6743 23.468L55.0128 24.7897L54.0309 23.6946L53.8799 22.9771Z" fill="url(#paint22_linear_378_712)"/>
<path d="M58.6773 17.4191L57.5147 19.0763L56.5871 19.4598L56.0553 19.2L54.9793 18.4703L54.3609 17.5428L53.8291 16.207L53.9404 15.0198L54.2372 14.018L54.6083 13.7706L54.7938 14.4137L55.0906 14.1664L55.6348 13.4985L56.3398 13.0657L57.3787 12.9172L58.3433 13.4985L58.8133 14.8342L58.9865 16.207L58.6773 17.4191Z" fill="url(#paint23_linear_378_712)"/>
<path d="M64.7601 21.3836L64.1025 19.8648L64.5934 19.1054L65.1398 17.8922H65.7325L66.2048 18.133L65.5843 18.4386V18.6238L66.8994 19.2536L67.0383 19.6796L66.7141 20.8557L65.4917 21.4762L64.7601 21.3836Z" fill="url(#paint24_linear_378_712)"/>
<path d="M2.56851 47.5436C2.73882 47.5777 2.90232 47.5981 3.059 47.6049C3.21568 47.6049 3.35534 47.5981 3.47796 47.5845C3.6074 47.5641 3.73343 47.5368 3.85605 47.5028C3.97867 47.4687 4.08086 47.4312 4.16261 47.3904C4.25117 47.3495 4.33632 47.3052 4.41807 47.2575C4.49982 47.203 4.56454 47.1553 4.61222 47.1145C4.66672 47.0736 4.71781 47.0293 4.7655 46.9816C4.81319 46.9339 4.84384 46.9033 4.85747 46.8896C4.8779 46.8692 4.89494 46.8488 4.90856 46.8283L5.14359 46.8386C5.02096 46.968 4.91197 47.0804 4.81659 47.1758C4.72122 47.2643 4.55772 47.3733 4.3261 47.5028C4.10129 47.6322 3.86967 47.7174 3.63124 47.7582C3.08625 47.84 2.55488 47.7582 2.03714 47.513C1.52622 47.2677 1.09363 46.8931 0.739386 46.3889C0.385143 45.878 0.156928 45.299 0.0547423 44.6518C-0.0474434 44.0046 -0.006569 43.3881 0.177365 42.8022C0.361299 42.2095 0.657638 41.7191 1.06638 41.3308C1.48194 40.9356 1.96221 40.6972 2.5072 40.6155C3.29062 40.4928 4.01955 40.6972 4.69397 41.2286C4.74166 41.2694 4.78594 41.3069 4.82681 41.341L5.2049 41.5862L4.87791 42.5365C4.92559 42.3935 4.9324 42.2232 4.89834 42.0256C4.86428 41.8281 4.80637 41.6816 4.72463 41.5862C4.71781 41.5794 4.70078 41.5658 4.67353 41.5453C4.6531 41.5181 4.62585 41.4908 4.59178 41.4636C4.56454 41.4363 4.5475 41.4159 4.54069 41.4023C4.25457 41.123 3.92758 40.9561 3.55971 40.9016C2.98747 40.813 2.44589 41.0038 1.93496 41.4738C1.43084 41.9439 1.0766 42.574 0.872228 43.3642C0.85179 43.446 0.834759 43.5277 0.821135 43.6095C0.80751 43.6844 0.793885 43.7628 0.78026 43.8445C0.6917 44.4372 0.712137 45.006 0.841572 45.551C0.971007 46.0892 1.189 46.5354 1.49556 46.8896C1.80212 47.2439 2.15977 47.4619 2.56851 47.5436Z" fill="#665F5F"/>
<path d="M10.4925 47.329C10.4993 47.438 10.5096 47.5266 10.5232 47.5947C10.5436 47.6629 10.5743 47.7105 10.6152 47.7378C10.656 47.7582 10.6901 47.7719 10.7173 47.7787C10.7514 47.7855 10.7991 47.7889 10.8604 47.7889H9.39914C9.46045 47.7889 9.50473 47.7855 9.53198 47.7787C9.56604 47.7719 9.60351 47.7548 9.64439 47.7276C9.68526 47.7003 9.71592 47.6526 9.73635 47.5845C9.75679 47.5164 9.76701 47.4278 9.76701 47.3188V43.8752H6.8445V47.329C6.8445 47.4108 6.85131 47.4823 6.86494 47.5436C6.87856 47.6049 6.89219 47.6526 6.90581 47.6867C6.92625 47.7139 6.9535 47.7378 6.98756 47.7582C7.02162 47.7719 7.05228 47.7821 7.07953 47.7889C7.10678 47.7889 7.14084 47.7889 7.18171 47.7889H5.74089C5.80221 47.7889 5.84649 47.7855 5.87374 47.7787C5.9078 47.7719 5.94527 47.7548 5.98614 47.7276C6.02701 47.7003 6.05767 47.6526 6.07811 47.5845C6.09854 47.5164 6.10876 47.4278 6.10876 47.3188V41.1059C6.10876 40.9901 6.09854 40.8982 6.07811 40.83C6.05767 40.7619 6.02701 40.7142 5.98614 40.687C5.94527 40.6597 5.9078 40.6461 5.87374 40.6461C5.84649 40.6393 5.80221 40.6359 5.74089 40.6359H6.10876H6.8445H7.20215C7.15446 40.6359 7.11699 40.6359 7.08974 40.6359C7.06931 40.6359 7.03865 40.6461 6.99778 40.6665C6.96372 40.6802 6.93647 40.704 6.91603 40.7381C6.89559 40.7653 6.87856 40.8096 6.86494 40.8709C6.85131 40.9322 6.8445 41.0072 6.8445 41.0957V43.6299H9.76701V41.1059C9.76701 40.9901 9.75679 40.8982 9.73635 40.83C9.71592 40.7619 9.68526 40.7142 9.64439 40.687C9.60351 40.6597 9.56604 40.6461 9.53198 40.6461C9.50473 40.6393 9.46045 40.6359 9.39914 40.6359H9.76701H10.4925H10.8604C10.7991 40.6359 10.7514 40.6393 10.7173 40.6461C10.6901 40.6461 10.656 40.6597 10.6152 40.687C10.5743 40.7142 10.5436 40.7619 10.5232 40.83C10.5096 40.8982 10.4993 40.9867 10.4925 41.0957V47.329Z" fill="#665F5F"/>
<path d="M15.1773 47.5436C15.2999 47.5436 15.4395 47.4619 15.5962 47.2984C15.7597 47.1349 15.8619 46.9714 15.9028 46.8079L15.6575 47.7889H11.5088C11.5701 47.7889 11.6144 47.7855 11.6416 47.7787C11.6757 47.7719 11.7132 47.7548 11.754 47.7276C11.7949 47.7003 11.8256 47.6526 11.846 47.5845C11.8664 47.5164 11.8767 47.4278 11.8767 47.3188V41.1059C11.8767 40.9901 11.8664 40.8982 11.846 40.83C11.8256 40.7619 11.7949 40.7142 11.754 40.687C11.7132 40.6597 11.6757 40.6461 11.6416 40.6461C11.6144 40.6393 11.5701 40.6359 11.5088 40.6359H12.97C12.97 40.6359 12.9632 40.6359 12.9496 40.6359C12.9428 40.6359 12.9394 40.6359 12.9394 40.6359H15.4225L15.6575 41.6067C15.6303 41.5045 15.5724 41.3955 15.4838 41.2797C15.4021 41.1638 15.3067 41.0685 15.1977 40.9935C15.0955 40.9186 15.007 40.8811 14.932 40.8811H12.6226C12.6158 40.9356 12.6124 41.0072 12.6124 41.0957V43.6299H14.5846C14.7004 43.6299 14.789 43.6231 14.8503 43.6095C14.9184 43.5891 14.9661 43.5584 14.9933 43.5175C15.0206 43.4698 15.0376 43.4324 15.0444 43.4051C15.0512 43.3711 15.0546 43.3234 15.0546 43.2621V44.243C15.0546 44.1817 15.0512 44.1374 15.0444 44.1102C15.0376 44.0761 15.0206 44.0387 14.9933 43.9978C14.9661 43.9501 14.9184 43.9195 14.8503 43.9058C14.7821 43.8854 14.6936 43.8752 14.5846 43.8752H12.6124V47.329C12.6124 47.4176 12.6158 47.4891 12.6226 47.5436H15.1773Z" fill="#665F5F"/>
<path d="M21.2611 47.5743C21.268 47.5743 21.2782 47.5879 21.2918 47.6152C21.3122 47.6356 21.3259 47.6492 21.3327 47.656C21.3395 47.6629 21.3497 47.6765 21.3633 47.6969C21.3838 47.7174 21.4008 47.731 21.4144 47.7378C21.428 47.7446 21.4451 47.7548 21.4655 47.7684C21.4928 47.7753 21.5166 47.7821 21.537 47.7889C21.5643 47.7889 21.5949 47.7889 21.629 47.7889H20.5254H20.5152H20.1575C20.2597 47.7889 20.3312 47.7753 20.3721 47.748C20.4334 47.7139 20.4437 47.6697 20.4028 47.6152L17.8481 43.8752H17.5927V47.3188C17.5927 47.4346 17.6029 47.5266 17.6233 47.5947C17.6438 47.6629 17.6744 47.7105 17.7153 47.7378C17.7562 47.7582 17.7902 47.7719 17.8175 47.7787C17.8515 47.7855 17.8992 47.7889 17.9605 47.7889H16.4993C16.5606 47.7889 16.6049 47.7855 16.6321 47.7787C16.6662 47.7719 16.7037 47.7582 16.7445 47.7378C16.7854 47.7105 16.8161 47.6629 16.8365 47.5947C16.8569 47.5266 16.8672 47.4346 16.8672 47.3188V41.1059C16.8672 40.9901 16.8569 40.8982 16.8365 40.83C16.8161 40.7619 16.7854 40.7142 16.7445 40.687C16.7037 40.6597 16.6662 40.6461 16.6321 40.6461C16.6049 40.6393 16.5606 40.6359 16.4993 40.6359H17.5927H17.6029H17.9605C17.9265 40.6359 17.8992 40.6359 17.8788 40.6359H18.3386C18.8019 40.6359 19.2208 40.6802 19.5955 40.7687C19.7249 40.796 19.8544 40.8334 19.9838 40.8811C20.3176 40.9969 20.5901 41.1502 20.8013 41.341C21.0193 41.5249 21.159 41.7259 21.2203 41.9439C21.2816 42.155 21.2816 42.3662 21.2203 42.5774C21.159 42.7886 21.0193 42.9896 20.8013 43.1803C20.5901 43.3642 20.3176 43.5141 19.9838 43.6299C19.8544 43.6776 19.7215 43.7151 19.5853 43.7423C19.5785 43.7491 19.5717 43.7526 19.5649 43.7526C19.306 43.8139 19.0267 43.8513 18.7269 43.865L21.2611 47.5743ZM18.3386 43.6299C18.4204 43.6299 18.4953 43.6299 18.5634 43.6299C19.1902 43.5959 19.6739 43.446 20.0145 43.1803C20.3619 42.9146 20.5356 42.6081 20.5356 42.2606C20.5356 42.1176 20.5084 41.9813 20.4539 41.8519C20.3994 41.7156 20.3108 41.5896 20.1882 41.4738C20.0656 41.358 19.9191 41.2558 19.7488 41.1673C19.5785 41.0787 19.3707 41.0106 19.1255 40.9629C18.887 40.9084 18.6247 40.8811 18.3386 40.8811H17.6131C17.5995 40.9424 17.5927 41.0174 17.5927 41.1059V43.6299H18.3386Z" fill="#665F5F"/>
<path d="M26.8794 47.5743C26.8862 47.5743 26.8964 47.5879 26.91 47.6152C26.9304 47.6356 26.9441 47.6492 26.9509 47.656C26.9577 47.6629 26.9679 47.6765 26.9815 47.6969C27.002 47.7174 27.019 47.731 27.0326 47.7378C27.0463 47.7446 27.0633 47.7548 27.0837 47.7684C27.111 47.7753 27.1348 47.7821 27.1553 47.7889C27.1825 47.7889 27.2132 47.7889 27.2472 47.7889H26.1436H26.1334H25.7757C25.8779 47.7889 25.9495 47.7753 25.9903 47.748C26.0516 47.7139 26.0619 47.6697 26.021 47.6152L23.4664 43.8752H23.2109V47.3188C23.2109 47.4346 23.2211 47.5266 23.2415 47.5947C23.262 47.6629 23.2926 47.7105 23.3335 47.7378C23.3744 47.7582 23.4084 47.7719 23.4357 47.7787C23.4698 47.7855 23.5174 47.7889 23.5788 47.7889H22.1175C22.1788 47.7889 22.2231 47.7855 22.2503 47.7787C22.2844 47.7719 22.3219 47.7582 22.3627 47.7378C22.4036 47.7105 22.4343 47.6629 22.4547 47.5947C22.4752 47.5266 22.4854 47.4346 22.4854 47.3188V41.1059C22.4854 40.9901 22.4752 40.8982 22.4547 40.83C22.4343 40.7619 22.4036 40.7142 22.3627 40.687C22.3219 40.6597 22.2844 40.6461 22.2503 40.6461C22.2231 40.6393 22.1788 40.6359 22.1175 40.6359H23.2109H23.2211H23.5788C23.5447 40.6359 23.5174 40.6359 23.497 40.6359H23.9568C24.4201 40.6359 24.839 40.6802 25.2137 40.7687C25.3432 40.796 25.4726 40.8334 25.602 40.8811C25.9358 40.9969 26.2083 41.1502 26.4195 41.341C26.6375 41.5249 26.7772 41.7259 26.8385 41.9439C26.8998 42.155 26.8998 42.3662 26.8385 42.5774C26.7772 42.7886 26.6375 42.9896 26.4195 43.1803C26.2083 43.3642 25.9358 43.5141 25.602 43.6299C25.4726 43.6776 25.3398 43.7151 25.2035 43.7423C25.1967 43.7491 25.1899 43.7526 25.1831 43.7526C24.9242 43.8139 24.6449 43.8513 24.3451 43.865L26.8794 47.5743ZM23.9568 43.6299C24.0386 43.6299 24.1135 43.6299 24.1817 43.6299C24.8084 43.5959 25.2921 43.446 25.6327 43.1803C25.9801 42.9146 26.1538 42.6081 26.1538 42.2606C26.1538 42.1176 26.1266 41.9813 26.0721 41.8519C26.0176 41.7156 25.929 41.5896 25.8064 41.4738C25.6838 41.358 25.5373 41.2558 25.367 41.1673C25.1967 41.0787 24.9889 41.0106 24.7437 40.9629C24.5052 40.9084 24.243 40.8811 23.9568 40.8811H23.2313C23.2177 40.9424 23.2109 41.0174 23.2109 41.1059V43.6299H23.9568Z" fill="#665F5F"/>
<path d="M30.7248 40.6052H31.6036C31.5082 40.6052 31.4401 40.6155 31.3992 40.6359C31.3924 40.6359 31.3856 40.6393 31.3788 40.6461C31.3788 40.6461 31.372 40.6495 31.3584 40.6563C31.3584 40.6631 31.355 40.6665 31.3481 40.6665C31.3413 40.6734 31.3345 40.6836 31.3277 40.6972C31.3209 40.6972 31.3175 40.7006 31.3175 40.7074C31.3107 40.721 31.3039 40.7347 31.297 40.7483C31.2902 40.7551 31.2868 40.7585 31.2868 40.7585L29.7745 43.8139V47.329C29.7745 47.438 29.7813 47.5266 29.7949 47.5947C29.8154 47.6629 29.846 47.7105 29.8869 47.7378C29.9278 47.7582 29.9618 47.7719 29.9891 47.7787C30.0231 47.7855 30.0708 47.7889 30.1321 47.7889H29.7745H29.0796H28.6709C28.7322 47.7889 28.7765 47.7855 28.8037 47.7787C28.8378 47.7719 28.8752 47.7582 28.9161 47.7378C28.957 47.7105 28.9876 47.6629 29.0081 47.5947C29.0285 47.5266 29.0387 47.4346 29.0387 47.3188V47.329V43.865L27.5264 41.0651L27.4344 40.8709C27.2777 40.7006 27.0836 40.612 26.852 40.6052H28.4767C28.3337 40.6052 28.2383 40.6359 28.1906 40.6972C28.177 40.7176 28.1736 40.7415 28.1804 40.7687V40.7789L29.0387 42.3628L29.6621 43.5277L29.7745 43.3029L31.0314 40.7381C30.9905 40.6495 30.8883 40.6052 30.7248 40.6052Z" fill="#665F5F"/>
<path d="M42.2894 43.8752C42.6573 43.9978 42.9707 44.1579 43.2295 44.3554C43.4884 44.553 43.6757 44.7676 43.7916 44.9992C43.9142 45.224 43.9755 45.4625 43.9755 45.7145C43.9755 45.9666 43.9142 46.2084 43.7916 46.44C43.6689 46.6648 43.4748 46.876 43.2091 47.0736C42.9434 47.2711 42.6266 47.4312 42.2588 47.5539C42.1157 47.5947 41.9692 47.6322 41.8194 47.6663C41.4379 47.748 41.0223 47.7889 40.5727 47.7889H40.1129C40.1333 47.7889 40.1606 47.7889 40.1946 47.7889H39.837H39.1012H38.7334C38.7947 47.7889 38.839 47.7855 38.8662 47.7787C38.9003 47.7719 38.9377 47.7548 38.9786 47.7276C39.0195 47.7003 39.0501 47.6526 39.0706 47.5845C39.091 47.5164 39.1012 47.4278 39.1012 47.3188V41.1059C39.1012 40.9901 39.091 40.8982 39.0706 40.83C39.0501 40.7619 39.0195 40.7142 38.9786 40.687C38.9377 40.6597 38.9003 40.6461 38.8662 40.6461C38.839 40.6393 38.7947 40.6359 38.7334 40.6359H39.837H40.1946C40.1606 40.6359 40.1333 40.6359 40.1129 40.6359H40.5727C41.0359 40.6359 41.4549 40.6802 41.8296 40.7687C41.959 40.796 42.0885 40.8334 42.2179 40.8811C42.6335 41.0242 42.9536 41.2252 43.1784 41.484C43.4032 41.7361 43.5157 41.995 43.5157 42.2606C43.5157 42.5195 43.4032 42.7784 43.1784 43.0373C42.9536 43.2893 42.6335 43.4869 42.2179 43.6299C42.0885 43.6776 41.9556 43.7151 41.8194 43.7423C41.8126 43.7491 41.8057 43.7526 41.7989 43.7526C41.8126 43.7526 41.8194 43.7526 41.8194 43.7526C41.9829 43.7866 42.1396 43.8275 42.2894 43.8752ZM39.8472 40.8811C39.8404 40.9424 39.837 41.0174 39.837 41.1059V43.6299H40.5727C40.8861 43.6299 41.1756 43.5993 41.4413 43.538C41.707 43.4766 41.925 43.3949 42.0953 43.2927C42.2656 43.1837 42.4086 43.0611 42.5244 42.9248C42.6471 42.7818 42.722 42.6353 42.7493 42.4854C42.7765 42.3356 42.7765 42.1857 42.7493 42.0358C42.722 41.8791 42.6471 41.7327 42.5244 41.5964C42.4086 41.4534 42.2656 41.3308 42.0953 41.2286C41.925 41.1196 41.707 41.0344 41.4413 40.9731C41.1756 40.9118 40.8861 40.8811 40.5727 40.8811H39.8472ZM40.5727 47.5436C41.0087 47.5436 41.4004 47.4925 41.7478 47.3904C42.0953 47.2814 42.3746 47.1417 42.5858 46.9714C42.8038 46.8011 42.9707 46.6069 43.0865 46.3889C43.2091 46.1641 43.2704 45.9393 43.2704 45.7145C43.2704 45.4829 43.2091 45.2581 43.0865 45.0401C42.9707 44.8153 42.8038 44.6177 42.5858 44.4474C42.3746 44.2771 42.0953 44.1409 41.7478 44.0387C41.4004 43.9297 41.0087 43.8752 40.5727 43.8752H39.837V47.3188C39.837 47.4074 39.8404 47.4823 39.8472 47.5436H40.5727Z" fill="#665F5F"/>
<path d="M44.1422 47.9013H44.1524C44.1524 47.9013 44.149 47.9013 44.1422 47.9013ZM50.2529 48.8721C50.5254 48.8925 50.8251 48.8584 51.1521 48.7699C51.4791 48.6813 51.7482 48.5859 51.9594 48.4837C52.1774 48.3816 52.4669 48.2351 52.828 48.0443C52.7258 48.1057 52.6066 48.184 52.4703 48.2794C52.3409 48.3816 52.2182 48.4769 52.1024 48.5655C51.9934 48.6541 51.8674 48.7494 51.7244 48.8516C51.5881 48.9538 51.4553 49.0424 51.3258 49.1173C51.2032 49.199 51.0601 49.274 50.8966 49.3421C50.7331 49.4102 50.5697 49.4613 50.4062 49.4954C50.2495 49.5294 50.0689 49.5465 49.8646 49.5465C49.667 49.5465 49.4626 49.5226 49.2515 49.4749C48.8495 49.3864 48.3079 49.1582 47.6267 48.7903C46.9523 48.4292 46.4311 48.201 46.0633 48.1057C45.6068 47.9898 44.9699 47.9217 44.1524 47.9013C44.3023 47.8059 44.5543 47.748 44.9086 47.7276C44.9835 47.6663 45.021 47.5334 45.021 47.329V41.1059C45.021 40.9969 45.0108 40.9084 44.9903 40.8403C44.9699 40.7721 44.9392 40.7244 44.8983 40.6972C44.8575 40.6699 44.82 40.6529 44.7859 40.6461C44.7587 40.6393 44.7144 40.6359 44.6531 40.6359H46.1144C46.053 40.6359 46.0054 40.6393 45.9713 40.6461C45.9441 40.6529 45.91 40.6699 45.8691 40.6972C45.8282 40.7176 45.7976 40.7619 45.7771 40.83C45.7635 40.8982 45.7567 40.9867 45.7567 41.0957V47.3393C45.7567 47.421 45.7601 47.4925 45.7669 47.5539C45.7669 47.6424 45.7771 47.7105 45.7976 47.7582C45.9134 47.7719 46.0156 47.7855 46.1041 47.7991C46.329 47.8264 46.5708 47.874 46.8297 47.9422C47.0953 48.0103 47.3236 48.075 47.5143 48.1363C47.7051 48.1976 47.9401 48.276 48.2194 48.3713C48.5055 48.4735 48.7337 48.5519 48.904 48.6064C49.3809 48.7494 49.8305 48.838 50.2529 48.8721ZM51.3156 47.3495C50.8456 47.6697 50.3346 47.8298 49.7828 47.8298C49.231 47.8298 48.7201 47.6697 48.25 47.3495C47.78 47.0225 47.4087 46.5831 47.1362 46.0313C46.8637 45.4727 46.7275 44.8664 46.7275 44.2124C46.7275 43.5584 46.8637 42.9555 47.1362 42.4037C47.4087 41.8451 47.78 41.4057 48.25 41.0855C48.7201 40.7585 49.231 40.595 49.7828 40.595C50.3346 40.595 50.8456 40.7585 51.3156 41.0855C51.7857 41.4057 52.1535 41.8451 52.4192 42.4037C52.6917 42.9555 52.828 43.5584 52.828 44.2124C52.828 44.8664 52.6917 45.4727 52.4192 46.0313C52.1535 46.5831 51.7857 47.0225 51.3156 47.3495ZM50.0281 41.1264C49.6057 40.9493 49.1936 40.922 48.7916 41.0446C48.3897 41.1673 48.0627 41.4295 47.8106 41.8315C47.5586 42.2266 47.4121 42.6864 47.3712 43.211C47.3304 43.7355 47.3951 44.3009 47.5654 44.9072C47.7493 45.4795 48.015 45.9802 48.3624 46.4094C48.7099 46.8317 49.0982 47.1315 49.5274 47.3086C49.9565 47.4857 50.3721 47.513 50.774 47.3904C51.176 47.2609 51.503 46.9986 51.755 46.6035C52.0071 46.2084 52.1501 45.7486 52.1842 45.224C52.2251 44.6927 52.1603 44.1272 51.99 43.5277C51.8129 42.9487 51.5472 42.448 51.193 42.0256C50.8456 41.5964 50.4572 41.2967 50.0281 41.1264Z" fill="#665F5F"/>
<path d="M58.4068 42.1074C58.4068 42.155 58.4034 42.1993 58.3966 42.2402C58.3966 42.2266 58.3966 42.2061 58.3966 42.1789C58.4034 42.1448 58.4068 42.121 58.4068 42.1074ZM58.3353 44.9992C58.6827 45.4352 58.8019 45.895 58.6929 46.3787C58.5908 46.8556 58.2944 47.2303 57.8039 47.5028C57.5655 47.639 57.2385 47.7276 56.8229 47.7684C56.4142 47.8025 55.9986 47.7991 55.5763 47.7582C55.1607 47.7105 54.7724 47.6356 54.4114 47.5334L53.461 47.2575V46.113C53.461 46.2833 53.5155 46.4707 53.6245 46.6751C53.7335 46.8726 53.8493 47.0089 53.972 47.0838C53.9924 47.0906 54.0707 47.1281 54.207 47.1962C54.3432 47.2575 54.4318 47.295 54.4727 47.3086C54.8473 47.404 55.2322 47.4619 55.6274 47.4823C56.0293 47.5028 56.4074 47.4857 56.7616 47.4312C57.1159 47.3699 57.4088 47.2439 57.6404 47.0531C57.8789 46.8624 58.0049 46.6172 58.0185 46.3174C58.0253 46.113 57.9844 45.9189 57.8959 45.735C57.8073 45.5442 57.6949 45.3841 57.5587 45.2547C57.4292 45.1184 57.2555 44.9822 57.0375 44.8459C56.8263 44.7097 56.6356 44.6007 56.4653 44.5189C56.295 44.4304 56.0838 44.3282 55.8317 44.2124C55.5865 44.0966 55.3991 44.0046 55.2697 43.9365C55.0245 43.807 54.8371 43.7049 54.7077 43.6299C54.5851 43.555 54.4318 43.4392 54.2479 43.2825C54.0639 43.1258 53.9243 42.9657 53.8289 42.8022C53.6382 42.448 53.6109 42.0835 53.7471 41.7088C53.8834 41.3342 54.1286 41.0583 54.4829 40.8811C54.8508 40.6972 55.3344 40.612 55.9339 40.6257C56.765 40.6529 57.5893 40.813 58.4068 41.1059C58.4068 41.3308 58.4068 41.6646 58.4068 42.1074C58.3932 41.9984 58.3625 41.8928 58.3148 41.7906C58.2672 41.6816 58.2024 41.5862 58.1207 41.5045C58.0458 41.4159 57.9606 41.341 57.8652 41.2797C57.62 41.1162 57.2555 40.9969 56.7718 40.922C56.656 40.9084 56.5436 40.8948 56.4346 40.8811C56.3256 40.8675 56.1792 40.8539 55.9952 40.8403C55.8181 40.8266 55.6546 40.8232 55.5047 40.83C55.3549 40.8369 55.1982 40.8573 55.0347 40.8914C54.878 40.9186 54.7452 40.9629 54.6362 41.0242C54.534 41.0855 54.4522 41.1707 54.3909 41.2797C54.3364 41.3887 54.3194 41.5181 54.3398 41.668C54.3603 41.8042 54.4216 41.9575 54.5238 42.1278C54.6873 42.3935 54.895 42.6353 55.1471 42.8533C55.406 43.0713 55.6751 43.2587 55.9544 43.4153C56.2337 43.5652 56.513 43.7151 56.7923 43.865C57.0716 44.008 57.3509 44.1783 57.6302 44.3759C57.9095 44.5666 58.1445 44.7744 58.3353 44.9992Z" fill="#665F5F"/>
<path d="M64.3543 42.1074C64.3543 42.155 64.3509 42.1993 64.3441 42.2402C64.3441 42.2266 64.3441 42.2061 64.3441 42.1789C64.3509 42.1448 64.3543 42.121 64.3543 42.1074ZM64.2828 44.9992C64.6302 45.4352 64.7495 45.895 64.6405 46.3787C64.5383 46.8556 64.2419 47.2303 63.7514 47.5028C63.513 47.639 63.186 47.7276 62.7705 47.7684C62.3617 47.8025 61.9462 47.7991 61.5238 47.7582C61.1082 47.7105 60.7199 47.6356 60.3589 47.5334L59.4086 47.2575V46.113C59.4086 46.2833 59.4631 46.4707 59.572 46.6751C59.681 46.8726 59.7969 47.0089 59.9195 47.0838C59.9399 47.0906 60.0183 47.1281 60.1545 47.1962C60.2908 47.2575 60.3793 47.295 60.4202 47.3086C60.7949 47.404 61.1798 47.4619 61.5749 47.4823C61.9768 47.5028 62.3549 47.4857 62.7092 47.4312C63.0634 47.3699 63.3563 47.2439 63.5879 47.0531C63.8264 46.8624 63.9524 46.6172 63.966 46.3174C63.9728 46.113 63.932 45.9189 63.8434 45.735C63.7548 45.5442 63.6424 45.3841 63.5062 45.2547C63.3768 45.1184 63.203 44.9822 62.9851 44.8459C62.7739 44.7097 62.5831 44.6007 62.4128 44.5189C62.2425 44.4304 62.0313 44.3282 61.7793 44.2124C61.534 44.0966 61.3467 44.0046 61.2172 43.9365C60.972 43.807 60.7847 43.7049 60.6552 43.6299C60.5326 43.555 60.3793 43.4392 60.1954 43.2825C60.0114 43.1258 59.8718 42.9657 59.7764 42.8022C59.5857 42.448 59.5584 42.0835 59.6947 41.7088C59.8309 41.3342 60.0762 41.0583 60.4304 40.8811C60.7983 40.6972 61.282 40.612 61.8814 40.6257C62.7126 40.6529 63.5369 40.813 64.3543 41.1059C64.3543 41.3308 64.3543 41.6646 64.3543 42.1074C64.3407 41.9984 64.3101 41.8928 64.2624 41.7906C64.2147 41.6816 64.15 41.5862 64.0682 41.5045C63.9933 41.4159 63.9081 41.341 63.8128 41.2797C63.5675 41.1162 63.203 40.9969 62.7194 40.922C62.6036 40.9084 62.4912 40.8948 62.3822 40.8811C62.2732 40.8675 62.1267 40.8539 61.9428 40.8403C61.7656 40.8266 61.6021 40.8232 61.4523 40.83C61.3024 40.8369 61.1457 40.8573 60.9822 40.8914C60.8255 40.9186 60.6927 40.9629 60.5837 41.0242C60.4815 41.0855 60.3998 41.1707 60.3384 41.2797C60.2839 41.3887 60.2669 41.5181 60.2874 41.668C60.3078 41.8042 60.3691 41.9575 60.4713 42.1278C60.6348 42.3935 60.8426 42.6353 61.0946 42.8533C61.3535 43.0713 61.6226 43.2587 61.9019 43.4153C62.1812 43.5652 62.4605 43.7151 62.7398 43.865C63.0191 44.008 63.2984 44.1783 63.5777 44.3759C63.857 44.5666 64.0921 44.7744 64.2828 44.9992Z" fill="#665F5F"/>
<path d="M66.8991 41.0753C67.3691 40.7551 67.8801 40.595 68.4319 40.595C68.9905 40.595 69.5014 40.7551 69.9646 41.0753C70.4347 41.3955 70.806 41.8349 71.0785 42.3935C71.351 42.9453 71.4872 43.5516 71.4872 44.2124C71.4872 44.8664 71.351 45.4727 71.0785 46.0313C70.806 46.5831 70.4347 47.0191 69.9646 47.3393C69.5014 47.6594 68.9905 47.8195 68.4319 47.8195C67.8801 47.8195 67.3691 47.6594 66.8991 47.3393C66.4358 47.0191 66.068 46.5831 65.7955 46.0313C65.523 45.4727 65.3867 44.8664 65.3867 44.2124C65.3867 43.5516 65.523 42.9453 65.7955 42.3935C66.068 41.8349 66.4358 41.3955 66.8991 41.0753ZM69.4333 47.3801C69.8284 47.2575 70.152 46.9986 70.404 46.6035C70.6629 46.2016 70.8094 45.7384 70.8434 45.2138C70.8843 44.6824 70.8196 44.117 70.6493 43.5175C70.3768 42.6387 69.9272 41.9575 69.3004 41.4738C68.6737 40.9901 68.0572 40.8437 67.4509 41.0344C67.049 41.1638 66.7186 41.4261 66.4597 41.8212C66.2076 42.2164 66.0612 42.6796 66.0203 43.211C65.9862 43.7355 66.0543 44.2975 66.2247 44.897C66.4972 45.7758 66.9468 46.4571 67.5735 46.9407C68.2002 47.4244 68.8202 47.5709 69.4333 47.3801Z" fill="#665F5F"/>
<path d="M78.4355 47.3188C78.4355 47.4346 78.4423 47.5266 78.456 47.5947C78.4764 47.6629 78.5071 47.7105 78.5479 47.7378C78.5956 47.7582 78.6331 47.7719 78.6603 47.7787C78.6944 47.7855 78.7421 47.7889 78.8034 47.7889H77.3319C77.3796 47.7889 77.4171 47.7889 77.4443 47.7889C77.4716 47.7821 77.5022 47.7719 77.5363 47.7582C77.5772 47.7446 77.6078 47.7242 77.6283 47.6969C77.6487 47.6629 77.6657 47.6152 77.6793 47.5539C77.693 47.4925 77.6998 47.4142 77.6998 47.3188V41.4432L75.6254 47.1451V47.1553L75.421 47.6969L75.3904 47.7889H75.0736L75.0634 47.7582L75.0123 47.6152L74.9101 47.3393L72.8153 41.576V47.3188C72.8153 47.4278 72.8221 47.5164 72.8357 47.5845C72.8562 47.6526 72.8868 47.7003 72.9277 47.7276C72.9686 47.7548 73.0027 47.7719 73.0299 47.7787C73.064 47.7855 73.1116 47.7889 73.173 47.7889H72.2022C72.2635 47.7889 72.3078 47.7855 72.335 47.7787C72.3691 47.7719 72.4066 47.7548 72.4474 47.7276C72.4883 47.7003 72.519 47.6526 72.5394 47.5845C72.5598 47.5164 72.5701 47.4278 72.5701 47.3188V40.9016L72.5394 40.8198C72.5053 40.7585 72.427 40.7142 72.3044 40.687C72.1886 40.6529 72.083 40.6359 71.9876 40.6359H73.6124C73.4693 40.6359 73.3739 40.6665 73.3262 40.7279C73.3058 40.7483 73.3024 40.7755 73.316 40.8096L75.4926 46.7977L77.6691 40.8198C77.6487 40.7585 77.618 40.7142 77.5772 40.687C77.5363 40.6597 77.4988 40.6461 77.4648 40.6461C77.4375 40.6393 77.3932 40.6359 77.3319 40.6359H78.8034C78.7421 40.6359 78.6944 40.6393 78.6603 40.6461C78.6331 40.6461 78.5956 40.6597 78.5479 40.687C78.5071 40.7142 78.4764 40.7619 78.456 40.83C78.4423 40.8982 78.4355 40.9867 78.4355 41.0957V47.3188Z" fill="#665F5F"/>
<path d="M64.6186 37.6016H75.9886C74.8473 31.513 72.1297 25.966 68.2665 21.3833M28.7887 37.6016L4.54688 37.614C7.65115 21.0199 22.4638 8.44566 40.2689 8.44566C45.696 8.44566 50.8451 9.61389 55.4693 11.7081C55.5934 11.7643 55.7171 11.8212 55.8404 11.8787M74.4672 56.1274C69.4375 69.8927 56.0248 79.7391 40.2689 79.7391C25.6491 79.7391 13.0468 71.2615 7.28717 59.0418" stroke="#665F5F" stroke-width="0.3" stroke-linecap="round" stroke-linejoin="round"/>
<mask id="path-28-inside-1_378_712" fill="white">
<path fill-rule="evenodd" clip-rule="evenodd" d="M65.8656 11.4373C65.7807 11.5206 65.573 11.7884 65.404 12.0324C64.8817 12.7868 63.7924 14.2312 63.0958 15.0932C62.7301 15.5457 62.3863 15.9948 62.3319 16.0912C62.1706 16.3764 61.8961 16.1576 61.857 15.7129C61.8086 15.1608 61.1317 13.817 60.9021 13.817C60.7784 13.817 60.7593 14.0033 60.834 14.4812C60.9468 15.2026 60.8807 16.6658 60.6988 17.4768C60.5917 17.954 60.5086 18.0651 59.3766 19.2461C58.5091 20.1511 58.1441 20.4811 58.0812 20.4169C58.0332 20.3678 57.913 20.0576 57.8142 19.7276L57.6343 19.1277L58.1041 18.5795C59.0691 17.4535 59.3413 15.8705 58.8265 14.3778C58.5667 13.6244 58.4783 13.4807 58.1018 13.1991C57.5613 12.7949 57.1351 12.7263 56.4566 12.9343C55.9904 13.0772 55.8527 13.1769 55.3922 13.7051C55.1013 14.0389 54.8412 14.2901 54.8141 14.2636C54.7871 14.237 54.7698 14.0278 54.7756 13.7987L54.7863 13.3822L54.5408 13.5734C53.8318 14.126 53.5401 15.7086 53.9357 16.8569C54.337 18.0212 55.2498 19.0454 56.175 19.3689C56.5664 19.5059 56.5838 19.5278 56.7723 20.1191C56.879 20.4541 56.9761 20.9413 56.9882 21.2018L57.0101 21.6755L56.0652 22.5066C55.5455 22.9637 55.0898 23.3397 55.0527 23.3421C55.0156 23.3444 54.9173 23.1885 54.8344 22.9956C54.548 22.3298 53.8131 21.0519 53.7015 21.0261C53.53 20.9864 53.4376 21.4191 53.5657 21.6618C53.6283 21.7803 53.7131 22.2791 53.7542 22.7704C53.8288 23.6624 53.8296 23.6644 54.4244 24.3054L55.0198 24.9472L55.3929 24.6923C55.5981 24.552 56.0102 24.2018 56.3085 23.9138C56.9618 23.2835 57.2348 23.1894 58.377 23.2007C58.8575 23.2054 59.2949 23.1659 59.3491 23.1127C59.4032 23.0596 59.3367 22.8278 59.2014 22.5976C58.6837 21.7167 58.6654 21.8158 59.5245 20.8493C60.181 20.1107 60.3545 19.9631 60.6555 19.8871C61.1452 19.7634 61.8511 19.9278 62.1687 20.2395C62.4961 20.5608 63.7855 21.2413 64.0843 21.2506C64.2732 21.2564 64.2788 21.195 64.124 20.8235C64.0245 20.585 63.8277 20.2409 63.6866 20.0591L63.4301 19.7285L63.9365 19.2315C64.4317 18.7454 64.783 18.1312 64.7188 17.864C64.6685 17.655 63.51 18.0809 62.9811 18.5028C62.4817 18.9012 62.1099 18.9395 61.7897 18.6252C61.6459 18.4841 61.7108 18.3575 62.4113 17.4107C63.3146 16.19 64.2073 14.8393 65.1748 13.2298C65.9867 11.879 66.3342 10.9774 65.8656 11.4373ZM65.7052 17.7677C65.1168 17.6648 64.9631 17.7677 64.7795 18.3876C64.6931 18.6793 64.467 19.1164 64.2769 19.3591L63.9315 19.8004L64.2601 20.6505C64.6262 21.5978 64.6666 21.6262 65.5187 21.5382C66.2397 21.4635 66.8008 20.9971 67.035 20.2778C67.1297 19.9872 67.166 19.6101 67.1156 19.4399C67.0325 19.1591 66.9616 19.1077 66.3516 18.8849C65.9817 18.75 65.6792 18.6014 65.6791 18.5549C65.6791 18.5083 65.8394 18.4297 66.0351 18.3803C66.619 18.2329 66.4374 17.8958 65.7052 17.7677ZM44.1386 13.9718C43.2006 13.3337 42.4699 13.0366 41.4512 12.8792C40.6392 12.7538 39.8142 12.8962 38.9312 13.3145L38.2133 13.6545L37.7622 13.2118C37.1369 12.5981 35.8126 11.9471 34.8046 11.7581C33.4042 11.4954 31.791 11.9566 30.8443 12.8904C30.0376 13.686 29.5018 14.9813 29.6207 15.8484C29.7566 16.8392 30.0309 17.3032 31.1651 18.46C31.8726 19.1817 32.308 19.7048 32.4878 20.0492C32.8572 20.7566 33.2267 21.1098 33.4095 20.9303C33.5894 20.7538 33.5736 19.2634 33.3884 18.9323C33.1624 18.5284 33.1812 18.3291 33.4607 18.1649C33.6002 18.0829 33.7739 18.0296 33.8464 18.0464C34.0707 18.0984 34.2073 18.4402 34.1182 18.726C33.9625 19.2247 33.9803 21.457 34.1412 21.6149C34.2268 21.6989 34.317 21.7477 34.3417 21.7235C34.3665 21.6992 34.5234 21.1085 34.6904 20.4107C34.8844 19.6006 34.9567 18.9964 34.8907 18.739C34.7711 18.2736 34.9866 17.9796 35.4314 18.0013C35.8083 18.0198 35.9328 18.3779 35.6886 18.7412C35.4781 19.0545 34.8037 21.6406 34.849 21.9608C34.9125 22.4092 35.1533 22.1694 35.5823 21.2308C35.8226 20.7049 36.1617 20.021 36.3358 19.711C36.5473 19.3343 36.6296 19.0405 36.5839 18.8252C36.5029 18.4433 36.6961 18.2149 37.0841 18.2339C37.3046 18.2447 37.3921 18.3081 37.4939 18.5305C37.5989 18.76 37.5723 18.8634 37.3533 19.0784C37.1167 19.3105 36.0368 21.2074 35.7402 21.9118C35.5974 22.2505 35.8276 22.2857 36.1368 21.9727C36.6423 21.4605 37.9522 19.6452 37.9727 19.4281C37.9844 19.3046 38.1055 19.1167 38.2419 19.0104C38.4496 18.8484 38.535 18.8539 38.7709 19.0447C38.9995 19.2296 39.0323 19.3244 38.9461 19.5508C38.8768 19.7324 38.7402 19.8783 38.5532 19.97C38.2843 20.1019 36.9524 21.6572 36.7018 22.1318C36.5885 22.3465 36.6689 22.4736 36.8861 22.4233C37.1749 22.3564 39.1324 20.7201 39.2299 20.4642C39.3567 20.1315 39.7845 20.0104 40.0192 20.2408C40.3707 20.5857 40.1746 21.0198 39.6157 21.1341C39.4549 21.167 38.9662 21.471 38.5297 21.8098C36.6846 23.2417 36.7175 23.2117 36.8501 23.3418C36.9829 23.4722 37.2773 23.3558 38.8988 22.5323C39.5139 22.2198 39.9626 21.9281 40.051 21.7832C40.189 21.5571 40.6212 21.4527 40.7788 21.6074C40.8714 21.6983 40.9412 22.3895 40.8653 22.4641C40.8295 22.4992 40.6015 22.5408 40.3588 22.5564C39.8774 22.5872 37.1588 23.8565 37.0472 24.1026C36.9304 24.3599 37.0925 24.3723 37.7851 24.1592C38.1588 24.0441 38.8522 23.8687 39.3259 23.7695C39.7995 23.6702 40.2602 23.5209 40.3495 23.4377C40.5592 23.2426 40.9662 23.1889 41.1165 23.3364C41.2806 23.4975 41.2386 23.9611 41.0425 24.1536C40.9418 24.2524 40.7202 24.2753 40.4679 24.2128C40.2115 24.1493 39.6106 24.2143 38.8676 24.3859C37.6486 24.6673 37.378 24.7917 37.5717 24.9818C37.7138 25.1212 39.9088 25.0899 40.4675 24.9403C40.9473 24.8119 41.1616 24.9474 41.1404 25.3658C41.1176 25.8155 40.7688 25.9925 40.3903 25.7465C40.0565 25.5296 38.4669 25.4391 38.2763 25.6262C38.1025 25.7967 38.4471 26.195 38.983 26.443C39.3384 26.6073 39.9026 27.046 40.8171 27.8687C42.2172 29.1282 42.4224 29.2461 43.3541 29.3248C44.3881 29.4122 45.6587 28.9401 46.4318 28.1814C46.8607 27.7605 47.4144 26.7764 47.5637 26.1701C47.957 24.5721 47.392 22.6629 46.1708 21.4644C45.6099 20.9139 45.5299 20.6812 45.8076 20.4086C45.8992 20.3187 46.0635 19.9827 46.1731 19.6618C46.744 17.9884 46.3105 16.2224 44.975 14.7814C44.6434 14.4235 44.267 14.0592 44.1386 13.9718ZM56.716 26.4359C56.1837 26.1968 55.6805 26.0981 55.4678 26.191C55.3551 26.2403 55.3068 26.4934 55.326 26.9357C55.3579 27.6681 55.2523 28.0964 54.8866 28.7196C54.6575 29.11 54.6873 29.348 55.005 29.6667C55.1595 29.8217 55.499 29.4081 55.5633 28.9861C55.6363 28.5083 55.9773 28.2939 56.2455 28.5571C56.5199 28.8264 56.4428 29.0588 55.9199 29.5375C55.5339 29.8909 55.454 30.0192 55.4875 30.2322C55.5715 30.7667 55.9017 30.7595 56.6294 30.2074C57.0675 29.8749 57.2392 29.8965 57.3238 30.2946C57.417 30.7344 57.25 30.8663 56.5558 30.9009C55.8708 30.935 55.8063 30.9795 55.8764 31.3694C55.9571 31.8194 56.1014 31.8912 56.8707 31.8643C57.5279 31.8413 57.5901 31.8613 57.6917 32.1278C57.8437 32.527 57.4243 32.8752 57.0966 32.6218C56.4953 32.1568 55.9843 32.1315 55.9843 32.5666C55.9843 32.8573 56.0851 32.957 56.4872 33.0646C56.8976 33.1744 57.7164 33.9781 57.9902 34.5399C58.3428 35.263 58.3956 35.2804 58.764 34.7946C59.4245 33.9237 59.6439 32.8537 59.3717 31.8303C59.2628 31.4209 59.083 31.1187 58.6576 30.6307L58.0891 29.9783L58.1739 29.3643C58.3294 28.2392 57.6376 26.8497 56.716 26.4359ZM53.4906 24.2815C52.3418 23.623 51.0857 23.779 50.1433 24.6974C49.109 25.7054 48.8088 27.1038 49.3682 28.309C49.755 29.1427 49.9839 29.3537 50.2345 29.1078C50.9192 28.4358 52.7237 28.1431 53.5637 28.5677C53.7898 28.6819 54.0347 28.7781 54.1079 28.781C54.3487 28.791 54.7719 27.6978 54.8122 26.9618C54.8338 26.5658 54.782 26.0313 54.6969 25.774C54.5256 25.2556 53.9521 24.5461 53.4906 24.2815ZM53.4569 29.1285C52.2004 28.6935 50.8389 29.042 50.1474 29.9756C49.7814 30.4696 49.4904 31.2189 49.5245 31.579C49.5578 31.931 49.395 32.0082 48.306 32.1565L47.2853 32.2954L46.4343 31.556C45.9662 31.1494 45.5832 30.7865 45.5831 30.7497C45.5832 30.7128 46.3308 30.3073 47.2444 29.8485C48.1581 29.3897 48.9418 28.9789 48.986 28.9355C49.0745 28.8487 48.7626 27.9532 48.644 27.9532C48.6033 27.9532 48.1599 28.1753 47.6586 28.4468C44.6758 30.0624 44.4229 30.1659 43.4217 30.1798C42.9069 30.187 41.882 30.3065 41.1442 30.4454C39.9995 30.661 39.7323 30.7543 39.3221 31.0816C38.6748 31.5981 37.865 31.8598 36.7879 31.8598C36.0724 31.8598 35.5752 31.679 35.0043 31.3986C34.5003 31.1509 34.1294 31.1622 33.5713 31.1347C32.5288 31.0832 31.7428 30.9293 30.5888 30.5508C29.6494 30.2427 29.325 30.0635 29.4624 29.9286C29.5012 29.8905 29.7585 29.7762 30.0343 29.6745C30.7629 29.4058 32.1023 28.0915 32.3206 27.4309C32.405 27.1754 32.504 26.8745 32.4637 26.8349C32.4232 26.7953 31.9684 26.7996 31.7013 26.8349C31.232 26.8969 31.3236 26.9954 30.9243 27.5525C30.5898 28.0193 30.4191 28.1672 29.9495 28.4375C28.9436 29.0167 27.7272 29.0475 27.0022 28.512C26.4635 28.1141 24.8221 27.1557 24.2645 26.9133C24.0371 26.8145 23.8162 26.6994 23.7736 26.6576C23.6437 26.5301 23.9089 26.353 24.5267 26.1544C25.0748 25.9784 25.4971 25.7092 25.3901 25.6043C25.3646 25.5793 24.7198 25.5657 23.9573 25.5741C22.4012 25.5913 21.4315 25.3722 19.9684 24.6729C19.1206 24.2677 16.1858 23.6137 14.9572 22.4598C14.2171 21.7646 12.7195 20.7212 12.6641 20.7484C12.6091 20.7754 11.9426 21.5866 11.529 22.1084C10.8151 22.9624 9.73721 24.5708 9.73721 24.5708C9.18546 25.4409 13.1713 26.2367 13.2264 26.2891C13.2815 26.3413 17.7358 26.469 18.2305 26.5727C20.8561 27.1236 25.5057 28.961 27.6574 30.2981C28.4589 30.7961 30.0493 32.0405 30.6916 32.6721C32.514 34.4639 33.7734 36.9721 34.1398 39.5388C34.2312 40.179 34.3175 40.7507 34.3316 40.8092C34.361 40.9316 36.0299 41.5982 36.3019 41.5962C36.7044 41.5933 36.2926 40.6549 35.5821 39.9562C35.2169 39.597 35.1638 39.4776 35.1369 38.9567C35.103 38.3008 35.1672 38.1943 35.6966 38.029C36.1593 37.8845 36.7004 38.1024 37.272 38.6633C37.8119 39.1932 38.5149 39.4573 39.4278 39.4731L40.0578 39.4839L39.8131 39.0254C39.576 38.5813 39.1293 38.1552 38.1236 37.4138L37.712 37.1105L38.0503 36.5225C38.5533 35.6488 38.8923 33.6923 38.5544 33.614C38.3785 33.5732 37.6056 34.0483 37.2103 34.44C37.0238 34.6249 36.7101 35.1071 36.5132 35.5117C36.0918 36.3777 35.9514 36.5319 35.3577 36.7815C34.8474 36.9962 34.7725 36.953 34.6261 36.3604C34.4699 35.7283 33.9588 34.8059 33.2017 33.79C32.8342 33.2966 32.4977 32.8276 32.4541 32.7475C32.4004 32.6488 32.7139 32.5995 33.4285 32.5943C35.8671 32.5766 38.3385 32.3079 41.4182 31.7259C43.6618 31.3018 44.1744 31.3412 45.2982 32.0237C45.9188 32.4006 46.2407 32.6836 47.153 33.6547C48.3015 34.877 48.5866 35.0731 48.8456 34.8189C48.9598 34.7069 48.9189 34.5842 48.655 34.2458C48.1621 33.6142 48.2166 33.4835 49.0925 33.1967C49.6703 33.0076 49.8459 32.9949 49.903 33.1383C49.9432 33.2389 50.1238 33.5675 50.3045 33.8686C50.9981 35.0249 52.2345 35.456 53.574 35.0088C54.235 34.7881 54.3847 34.6943 54.7189 34.2906C54.9305 34.0353 55.1911 33.6039 55.2982 33.332C55.9097 31.7797 54.9792 29.6553 53.4569 29.1285ZM56.3854 33.506C55.9367 33.2344 55.8841 33.2526 55.7101 33.7405C55.3125 34.8561 54.1072 35.6812 52.7516 35.766L52.0507 35.8098L52.0955 36.1235C52.2535 37.2316 53.3566 38.4878 54.4546 38.8101C55.5781 39.14 56.794 38.8025 57.4258 37.9856C58.4817 36.6201 57.9831 34.4737 56.3854 33.506ZM30.7754 19.0399C30.6012 19.0236 30.1704 19.1464 29.8178 19.3128C28.123 20.113 27.3843 22.2325 28.1801 24.0127C28.5985 24.9483 29.4948 25.7998 30.4074 26.1284C31.1269 26.3874 32.5465 26.4359 32.7774 26.2093C33 25.9908 33.2541 24.4701 33.2058 23.6453C33.1214 22.2043 32.5485 20.805 31.5612 19.6286C31.1696 19.162 31.0396 19.0646 30.7754 19.0399ZM39.4233 27.3733C38.4408 26.6348 37.0281 26.1503 35.6841 26.091C34.7117 26.0482 33.3309 26.2872 33.0695 26.5437C32.7994 26.8088 32.9029 28.2252 33.2469 28.9711C33.6585 29.8637 34.7504 30.8403 35.6902 31.1567C36.4442 31.4105 37.4266 31.3906 38.2331 31.1053C39.2533 30.7443 40.3843 29.4181 40.4294 28.5298C40.4427 28.2687 40.118 27.8953 39.4233 27.3733ZM34.551 23.6157C34.2791 23.5418 33.9826 23.5304 33.8923 23.5904C33.7987 23.6526 33.7107 24.0221 33.6874 24.4501C33.665 24.8629 33.6631 24.9808 33.6157 25.1777C33.5763 25.3413 33.5426 25.518 33.5808 25.6416C33.6703 25.7692 33.7303 25.7677 34.1432 25.689C34.4145 25.6373 34.8984 25.5897 35.2183 25.5834C35.5384 25.577 35.8343 25.5383 35.8758 25.4976C35.9174 25.4567 35.8875 25.183 35.8094 24.8892C35.6315 24.2201 35.2115 23.7951 34.551 23.6157ZM40.7158 33.3963C40.1704 33.2769 39.1045 33.2776 38.9829 33.3974C38.9519 33.428 38.9298 33.8013 38.9339 34.2267C38.9385 34.7067 38.8203 35.3574 38.6228 35.9401L38.3042 36.8798L39.1062 37.6738C39.6753 38.2371 39.9564 38.5897 40.0743 38.8882C40.2361 39.298 40.2478 39.3072 40.5286 39.2496C40.6872 39.2171 41.0851 39.0359 41.413 38.847C42.5275 38.2049 43.2035 36.8621 42.9299 35.8336C42.6666 34.8431 41.86 34.3665 40.7077 34.5201C39.5761 34.6708 39.5848 34.3514 40.7215 34.0123C41.6378 33.7387 41.6365 33.5978 40.7158 33.3963Z"/>
</mask>
<path fill-rule="evenodd" clip-rule="evenodd" d="M65.8656 11.4373C65.7807 11.5206 65.573 11.7884 65.404 12.0324C64.8817 12.7868 63.7924 14.2312 63.0958 15.0932C62.7301 15.5457 62.3863 15.9948 62.3319 16.0912C62.1706 16.3764 61.8961 16.1576 61.857 15.7129C61.8086 15.1608 61.1317 13.817 60.9021 13.817C60.7784 13.817 60.7593 14.0033 60.834 14.4812C60.9468 15.2026 60.8807 16.6658 60.6988 17.4768C60.5917 17.954 60.5086 18.0651 59.3766 19.2461C58.5091 20.1511 58.1441 20.4811 58.0812 20.4169C58.0332 20.3678 57.913 20.0576 57.8142 19.7276L57.6343 19.1277L58.1041 18.5795C59.0691 17.4535 59.3413 15.8705 58.8265 14.3778C58.5667 13.6244 58.4783 13.4807 58.1018 13.1991C57.5613 12.7949 57.1351 12.7263 56.4566 12.9343C55.9904 13.0772 55.8527 13.1769 55.3922 13.7051C55.1013 14.0389 54.8412 14.2901 54.8141 14.2636C54.7871 14.237 54.7698 14.0278 54.7756 13.7987L54.7863 13.3822L54.5408 13.5734C53.8318 14.126 53.5401 15.7086 53.9357 16.8569C54.337 18.0212 55.2498 19.0454 56.175 19.3689C56.5664 19.5059 56.5838 19.5278 56.7723 20.1191C56.879 20.4541 56.9761 20.9413 56.9882 21.2018L57.0101 21.6755L56.0652 22.5066C55.5455 22.9637 55.0898 23.3397 55.0527 23.3421C55.0156 23.3444 54.9173 23.1885 54.8344 22.9956C54.548 22.3298 53.8131 21.0519 53.7015 21.0261C53.53 20.9864 53.4376 21.4191 53.5657 21.6618C53.6283 21.7803 53.7131 22.2791 53.7542 22.7704C53.8288 23.6624 53.8296 23.6644 54.4244 24.3054L55.0198 24.9472L55.3929 24.6923C55.5981 24.552 56.0102 24.2018 56.3085 23.9138C56.9618 23.2835 57.2348 23.1894 58.377 23.2007C58.8575 23.2054 59.2949 23.1659 59.3491 23.1127C59.4032 23.0596 59.3367 22.8278 59.2014 22.5976C58.6837 21.7167 58.6654 21.8158 59.5245 20.8493C60.181 20.1107 60.3545 19.9631 60.6555 19.8871C61.1452 19.7634 61.8511 19.9278 62.1687 20.2395C62.4961 20.5608 63.7855 21.2413 64.0843 21.2506C64.2732 21.2564 64.2788 21.195 64.124 20.8235C64.0245 20.585 63.8277 20.2409 63.6866 20.0591L63.4301 19.7285L63.9365 19.2315C64.4317 18.7454 64.783 18.1312 64.7188 17.864C64.6685 17.655 63.51 18.0809 62.9811 18.5028C62.4817 18.9012 62.1099 18.9395 61.7897 18.6252C61.6459 18.4841 61.7108 18.3575 62.4113 17.4107C63.3146 16.19 64.2073 14.8393 65.1748 13.2298C65.9867 11.879 66.3342 10.9774 65.8656 11.4373ZM65.7052 17.7677C65.1168 17.6648 64.9631 17.7677 64.7795 18.3876C64.6931 18.6793 64.467 19.1164 64.2769 19.3591L63.9315 19.8004L64.2601 20.6505C64.6262 21.5978 64.6666 21.6262 65.5187 21.5382C66.2397 21.4635 66.8008 20.9971 67.035 20.2778C67.1297 19.9872 67.166 19.6101 67.1156 19.4399C67.0325 19.1591 66.9616 19.1077 66.3516 18.8849C65.9817 18.75 65.6792 18.6014 65.6791 18.5549C65.6791 18.5083 65.8394 18.4297 66.0351 18.3803C66.619 18.2329 66.4374 17.8958 65.7052 17.7677ZM44.1386 13.9718C43.2006 13.3337 42.4699 13.0366 41.4512 12.8792C40.6392 12.7538 39.8142 12.8962 38.9312 13.3145L38.2133 13.6545L37.7622 13.2118C37.1369 12.5981 35.8126 11.9471 34.8046 11.7581C33.4042 11.4954 31.791 11.9566 30.8443 12.8904C30.0376 13.686 29.5018 14.9813 29.6207 15.8484C29.7566 16.8392 30.0309 17.3032 31.1651 18.46C31.8726 19.1817 32.308 19.7048 32.4878 20.0492C32.8572 20.7566 33.2267 21.1098 33.4095 20.9303C33.5894 20.7538 33.5736 19.2634 33.3884 18.9323C33.1624 18.5284 33.1812 18.3291 33.4607 18.1649C33.6002 18.0829 33.7739 18.0296 33.8464 18.0464C34.0707 18.0984 34.2073 18.4402 34.1182 18.726C33.9625 19.2247 33.9803 21.457 34.1412 21.6149C34.2268 21.6989 34.317 21.7477 34.3417 21.7235C34.3665 21.6992 34.5234 21.1085 34.6904 20.4107C34.8844 19.6006 34.9567 18.9964 34.8907 18.739C34.7711 18.2736 34.9866 17.9796 35.4314 18.0013C35.8083 18.0198 35.9328 18.3779 35.6886 18.7412C35.4781 19.0545 34.8037 21.6406 34.849 21.9608C34.9125 22.4092 35.1533 22.1694 35.5823 21.2308C35.8226 20.7049 36.1617 20.021 36.3358 19.711C36.5473 19.3343 36.6296 19.0405 36.5839 18.8252C36.5029 18.4433 36.6961 18.2149 37.0841 18.2339C37.3046 18.2447 37.3921 18.3081 37.4939 18.5305C37.5989 18.76 37.5723 18.8634 37.3533 19.0784C37.1167 19.3105 36.0368 21.2074 35.7402 21.9118C35.5974 22.2505 35.8276 22.2857 36.1368 21.9727C36.6423 21.4605 37.9522 19.6452 37.9727 19.4281C37.9844 19.3046 38.1055 19.1167 38.2419 19.0104C38.4496 18.8484 38.535 18.8539 38.7709 19.0447C38.9995 19.2296 39.0323 19.3244 38.9461 19.5508C38.8768 19.7324 38.7402 19.8783 38.5532 19.97C38.2843 20.1019 36.9524 21.6572 36.7018 22.1318C36.5885 22.3465 36.6689 22.4736 36.8861 22.4233C37.1749 22.3564 39.1324 20.7201 39.2299 20.4642C39.3567 20.1315 39.7845 20.0104 40.0192 20.2408C40.3707 20.5857 40.1746 21.0198 39.6157 21.1341C39.4549 21.167 38.9662 21.471 38.5297 21.8098C36.6846 23.2417 36.7175 23.2117 36.8501 23.3418C36.9829 23.4722 37.2773 23.3558 38.8988 22.5323C39.5139 22.2198 39.9626 21.9281 40.051 21.7832C40.189 21.5571 40.6212 21.4527 40.7788 21.6074C40.8714 21.6983 40.9412 22.3895 40.8653 22.4641C40.8295 22.4992 40.6015 22.5408 40.3588 22.5564C39.8774 22.5872 37.1588 23.8565 37.0472 24.1026C36.9304 24.3599 37.0925 24.3723 37.7851 24.1592C38.1588 24.0441 38.8522 23.8687 39.3259 23.7695C39.7995 23.6702 40.2602 23.5209 40.3495 23.4377C40.5592 23.2426 40.9662 23.1889 41.1165 23.3364C41.2806 23.4975 41.2386 23.9611 41.0425 24.1536C40.9418 24.2524 40.7202 24.2753 40.4679 24.2128C40.2115 24.1493 39.6106 24.2143 38.8676 24.3859C37.6486 24.6673 37.378 24.7917 37.5717 24.9818C37.7138 25.1212 39.9088 25.0899 40.4675 24.9403C40.9473 24.8119 41.1616 24.9474 41.1404 25.3658C41.1176 25.8155 40.7688 25.9925 40.3903 25.7465C40.0565 25.5296 38.4669 25.4391 38.2763 25.6262C38.1025 25.7967 38.4471 26.195 38.983 26.443C39.3384 26.6073 39.9026 27.046 40.8171 27.8687C42.2172 29.1282 42.4224 29.2461 43.3541 29.3248C44.3881 29.4122 45.6587 28.9401 46.4318 28.1814C46.8607 27.7605 47.4144 26.7764 47.5637 26.1701C47.957 24.5721 47.392 22.6629 46.1708 21.4644C45.6099 20.9139 45.5299 20.6812 45.8076 20.4086C45.8992 20.3187 46.0635 19.9827 46.1731 19.6618C46.744 17.9884 46.3105 16.2224 44.975 14.7814C44.6434 14.4235 44.267 14.0592 44.1386 13.9718ZM56.716 26.4359C56.1837 26.1968 55.6805 26.0981 55.4678 26.191C55.3551 26.2403 55.3068 26.4934 55.326 26.9357C55.3579 27.6681 55.2523 28.0964 54.8866 28.7196C54.6575 29.11 54.6873 29.348 55.005 29.6667C55.1595 29.8217 55.499 29.4081 55.5633 28.9861C55.6363 28.5083 55.9773 28.2939 56.2455 28.5571C56.5199 28.8264 56.4428 29.0588 55.9199 29.5375C55.5339 29.8909 55.454 30.0192 55.4875 30.2322C55.5715 30.7667 55.9017 30.7595 56.6294 30.2074C57.0675 29.8749 57.2392 29.8965 57.3238 30.2946C57.417 30.7344 57.25 30.8663 56.5558 30.9009C55.8708 30.935 55.8063 30.9795 55.8764 31.3694C55.9571 31.8194 56.1014 31.8912 56.8707 31.8643C57.5279 31.8413 57.5901 31.8613 57.6917 32.1278C57.8437 32.527 57.4243 32.8752 57.0966 32.6218C56.4953 32.1568 55.9843 32.1315 55.9843 32.5666C55.9843 32.8573 56.0851 32.957 56.4872 33.0646C56.8976 33.1744 57.7164 33.9781 57.9902 34.5399C58.3428 35.263 58.3956 35.2804 58.764 34.7946C59.4245 33.9237 59.6439 32.8537 59.3717 31.8303C59.2628 31.4209 59.083 31.1187 58.6576 30.6307L58.0891 29.9783L58.1739 29.3643C58.3294 28.2392 57.6376 26.8497 56.716 26.4359ZM53.4906 24.2815C52.3418 23.623 51.0857 23.779 50.1433 24.6974C49.109 25.7054 48.8088 27.1038 49.3682 28.309C49.755 29.1427 49.9839 29.3537 50.2345 29.1078C50.9192 28.4358 52.7237 28.1431 53.5637 28.5677C53.7898 28.6819 54.0347 28.7781 54.1079 28.781C54.3487 28.791 54.7719 27.6978 54.8122 26.9618C54.8338 26.5658 54.782 26.0313 54.6969 25.774C54.5256 25.2556 53.9521 24.5461 53.4906 24.2815ZM53.4569 29.1285C52.2004 28.6935 50.8389 29.042 50.1474 29.9756C49.7814 30.4696 49.4904 31.2189 49.5245 31.579C49.5578 31.931 49.395 32.0082 48.306 32.1565L47.2853 32.2954L46.4343 31.556C45.9662 31.1494 45.5832 30.7865 45.5831 30.7497C45.5832 30.7128 46.3308 30.3073 47.2444 29.8485C48.1581 29.3897 48.9418 28.9789 48.986 28.9355C49.0745 28.8487 48.7626 27.9532 48.644 27.9532C48.6033 27.9532 48.1599 28.1753 47.6586 28.4468C44.6758 30.0624 44.4229 30.1659 43.4217 30.1798C42.9069 30.187 41.882 30.3065 41.1442 30.4454C39.9995 30.661 39.7323 30.7543 39.3221 31.0816C38.6748 31.5981 37.865 31.8598 36.7879 31.8598C36.0724 31.8598 35.5752 31.679 35.0043 31.3986C34.5003 31.1509 34.1294 31.1622 33.5713 31.1347C32.5288 31.0832 31.7428 30.9293 30.5888 30.5508C29.6494 30.2427 29.325 30.0635 29.4624 29.9286C29.5012 29.8905 29.7585 29.7762 30.0343 29.6745C30.7629 29.4058 32.1023 28.0915 32.3206 27.4309C32.405 27.1754 32.504 26.8745 32.4637 26.8349C32.4232 26.7953 31.9684 26.7996 31.7013 26.8349C31.232 26.8969 31.3236 26.9954 30.9243 27.5525C30.5898 28.0193 30.4191 28.1672 29.9495 28.4375C28.9436 29.0167 27.7272 29.0475 27.0022 28.512C26.4635 28.1141 24.8221 27.1557 24.2645 26.9133C24.0371 26.8145 23.8162 26.6994 23.7736 26.6576C23.6437 26.5301 23.9089 26.353 24.5267 26.1544C25.0748 25.9784 25.4971 25.7092 25.3901 25.6043C25.3646 25.5793 24.7198 25.5657 23.9573 25.5741C22.4012 25.5913 21.4315 25.3722 19.9684 24.6729C19.1206 24.2677 16.1858 23.6137 14.9572 22.4598C14.2171 21.7646 12.7195 20.7212 12.6641 20.7484C12.6091 20.7754 11.9426 21.5866 11.529 22.1084C10.8151 22.9624 9.73721 24.5708 9.73721 24.5708C9.18546 25.4409 13.1713 26.2367 13.2264 26.2891C13.2815 26.3413 17.7358 26.469 18.2305 26.5727C20.8561 27.1236 25.5057 28.961 27.6574 30.2981C28.4589 30.7961 30.0493 32.0405 30.6916 32.6721C32.514 34.4639 33.7734 36.9721 34.1398 39.5388C34.2312 40.179 34.3175 40.7507 34.3316 40.8092C34.361 40.9316 36.0299 41.5982 36.3019 41.5962C36.7044 41.5933 36.2926 40.6549 35.5821 39.9562C35.2169 39.597 35.1638 39.4776 35.1369 38.9567C35.103 38.3008 35.1672 38.1943 35.6966 38.029C36.1593 37.8845 36.7004 38.1024 37.272 38.6633C37.8119 39.1932 38.5149 39.4573 39.4278 39.4731L40.0578 39.4839L39.8131 39.0254C39.576 38.5813 39.1293 38.1552 38.1236 37.4138L37.712 37.1105L38.0503 36.5225C38.5533 35.6488 38.8923 33.6923 38.5544 33.614C38.3785 33.5732 37.6056 34.0483 37.2103 34.44C37.0238 34.6249 36.7101 35.1071 36.5132 35.5117C36.0918 36.3777 35.9514 36.5319 35.3577 36.7815C34.8474 36.9962 34.7725 36.953 34.6261 36.3604C34.4699 35.7283 33.9588 34.8059 33.2017 33.79C32.8342 33.2966 32.4977 32.8276 32.4541 32.7475C32.4004 32.6488 32.7139 32.5995 33.4285 32.5943C35.8671 32.5766 38.3385 32.3079 41.4182 31.7259C43.6618 31.3018 44.1744 31.3412 45.2982 32.0237C45.9188 32.4006 46.2407 32.6836 47.153 33.6547C48.3015 34.877 48.5866 35.0731 48.8456 34.8189C48.9598 34.7069 48.9189 34.5842 48.655 34.2458C48.1621 33.6142 48.2166 33.4835 49.0925 33.1967C49.6703 33.0076 49.8459 32.9949 49.903 33.1383C49.9432 33.2389 50.1238 33.5675 50.3045 33.8686C50.9981 35.0249 52.2345 35.456 53.574 35.0088C54.235 34.7881 54.3847 34.6943 54.7189 34.2906C54.9305 34.0353 55.1911 33.6039 55.2982 33.332C55.9097 31.7797 54.9792 29.6553 53.4569 29.1285ZM56.3854 33.506C55.9367 33.2344 55.8841 33.2526 55.7101 33.7405C55.3125 34.8561 54.1072 35.6812 52.7516 35.766L52.0507 35.8098L52.0955 36.1235C52.2535 37.2316 53.3566 38.4878 54.4546 38.8101C55.5781 39.14 56.794 38.8025 57.4258 37.9856C58.4817 36.6201 57.9831 34.4737 56.3854 33.506ZM30.7754 19.0399C30.6012 19.0236 30.1704 19.1464 29.8178 19.3128C28.123 20.113 27.3843 22.2325 28.1801 24.0127C28.5985 24.9483 29.4948 25.7998 30.4074 26.1284C31.1269 26.3874 32.5465 26.4359 32.7774 26.2093C33 25.9908 33.2541 24.4701 33.2058 23.6453C33.1214 22.2043 32.5485 20.805 31.5612 19.6286C31.1696 19.162 31.0396 19.0646 30.7754 19.0399ZM39.4233 27.3733C38.4408 26.6348 37.0281 26.1503 35.6841 26.091C34.7117 26.0482 33.3309 26.2872 33.0695 26.5437C32.7994 26.8088 32.9029 28.2252 33.2469 28.9711C33.6585 29.8637 34.7504 30.8403 35.6902 31.1567C36.4442 31.4105 37.4266 31.3906 38.2331 31.1053C39.2533 30.7443 40.3843 29.4181 40.4294 28.5298C40.4427 28.2687 40.118 27.8953 39.4233 27.3733ZM34.551 23.6157C34.2791 23.5418 33.9826 23.5304 33.8923 23.5904C33.7987 23.6526 33.7107 24.0221 33.6874 24.4501C33.665 24.8629 33.6631 24.9808 33.6157 25.1777C33.5763 25.3413 33.5426 25.518 33.5808 25.6416C33.6703 25.7692 33.7303 25.7677 34.1432 25.689C34.4145 25.6373 34.8984 25.5897 35.2183 25.5834C35.5384 25.577 35.8343 25.5383 35.8758 25.4976C35.9174 25.4567 35.8875 25.183 35.8094 24.8892C35.6315 24.2201 35.2115 23.7951 34.551 23.6157ZM40.7158 33.3963C40.1704 33.2769 39.1045 33.2776 38.9829 33.3974C38.9519 33.428 38.9298 33.8013 38.9339 34.2267C38.9385 34.7067 38.8203 35.3574 38.6228 35.9401L38.3042 36.8798L39.1062 37.6738C39.6753 38.2371 39.9564 38.5897 40.0743 38.8882C40.2361 39.298 40.2478 39.3072 40.5286 39.2496C40.6872 39.2171 41.0851 39.0359 41.413 38.847C42.5275 38.2049 43.2035 36.8621 42.9299 35.8336C42.6666 34.8431 41.86 34.3665 40.7077 34.5201C39.5761 34.6708 39.5848 34.3514 40.7215 34.0123C41.6378 33.7387 41.6365 33.5978 40.7158 33.3963Z" stroke="#665F5F" stroke-width="0.6" mask="url(#path-28-inside-1_378_712)"/>
<path d="M19.9794 69.4178C18.0597 68.4248 13.6911 66.3319 11.5742 65.9042" stroke="#665F5F" stroke-width="0.3"/>
<path d="M23.632 66.8958C22.1014 66.2083 17.1155 64.6515 10.3291 64.2238" stroke="#665F5F" stroke-width="0.3"/>
<path d="M27.7621 64.3766C24.3377 63.5109 15.8547 61.9476 9.31738 62.6198" stroke="#665F5F" stroke-width="0.3"/>
<path d="M33.0186 61.8151C30.3466 60.924 21.5616 59.3612 8.11328 60.7666" stroke="#665F5F" stroke-width="0.3"/>
<path d="M43.3018 79.5899C48.4682 72.8446 61.7817 59.3357 73.1573 59.2798" stroke="#665F5F" stroke-width="0.3"/>
<path d="M54.8223 76.749C56.9078 72.6553 63.4092 63.5686 72.4528 60.61" stroke="#665F5F" stroke-width="0.3"/>
<path d="M32.7744 79.038C38.7466 71.8275 55.3741 57.498 73.5182 58.447" stroke="#665F5F" stroke-width="0.3"/>
<path d="M24.2295 76.1416C30.5413 68.6592 49.3228 54.4165 73.954 57.3044" stroke="#665F5F" stroke-width="0.3"/>
<path d="M17.2002 71.7183C25.173 64.4774 47.9873 51.2728 74.4857 56.2404" stroke="#665F5F" stroke-width="0.3"/>
<path d="M38.0937 59.6626C32.1097 58.3732 20.2585 56.1588 7.39648 59.1342" stroke="#665F5F" stroke-width="0.3"/>
<path d="M14.6402 53.0396C14.1686 53.0396 13.8338 52.802 13.7186 52.4456L13.8842 52.3484C13.9706 52.6508 14.2262 52.856 14.6402 52.856C15.0614 52.856 15.2738 52.64 15.2738 52.352C15.2738 52.0496 15.0074 51.9344 14.6222 51.812C14.201 51.6752 13.823 51.5564 13.823 51.1172C13.823 50.7032 14.1578 50.4404 14.5862 50.4404C15.0002 50.4404 15.2738 50.678 15.3962 50.9696L15.2342 51.0596C15.1406 50.8328 14.9462 50.624 14.5862 50.624C14.237 50.624 14.0174 50.8292 14.0174 51.11C14.0174 51.4124 14.273 51.506 14.633 51.6248C15.0794 51.7724 15.4682 51.9128 15.4682 52.3484C15.4682 52.766 15.1406 53.0396 14.6402 53.0396ZM19.7574 53L19.5126 52.3592H18.249L18.0042 53H17.8026L18.7818 50.48H18.9834L19.959 53H19.7574ZM18.321 52.1792H19.4442L18.8826 50.714L18.321 52.1792ZM24.1959 53H23.9403L22.6767 51.758V53H22.4859V50.48H22.6767V51.6536L23.9043 50.48H24.1599L22.8855 51.704L24.1959 53ZM27.4827 53.0396C26.9283 53.0396 26.5611 52.6904 26.5611 52.1576V50.48H26.7519V52.1576C26.7519 52.568 27.0075 52.856 27.4827 52.856C27.9615 52.856 28.2171 52.568 28.2171 52.1576V50.48H28.4079V52.1576C28.4079 52.6904 28.0371 53.0396 27.4827 53.0396ZM32.7494 53L32.1446 51.9668H31.349V53H31.1582V50.48H32.1518C32.5622 50.48 32.897 50.8148 32.897 51.2252C32.897 51.5672 32.663 51.8552 32.3426 51.9416L32.969 53H32.7494ZM31.349 50.66V51.7868H32.1518C32.4578 51.7868 32.7062 51.5348 32.7062 51.2252C32.7062 50.912 32.4578 50.66 32.1518 50.66H31.349ZM37.2217 53L36.9769 52.3592H35.7133L35.4685 53H35.2669L36.2461 50.48H36.4477L37.4233 53H37.2217ZM35.7853 52.1792H36.9085L36.3469 50.714L35.7853 52.1792ZM43.8403 53.0396C43.3687 53.0396 43.0339 52.802 42.9187 52.4456L43.0843 52.3484C43.1707 52.6508 43.4263 52.856 43.8403 52.856C44.2615 52.856 44.4739 52.64 44.4739 52.352C44.4739 52.0496 44.2075 51.9344 43.8223 51.812C43.4011 51.6752 43.0231 51.5564 43.0231 51.1172C43.0231 50.7032 43.3579 50.4404 43.7863 50.4404C44.2003 50.4404 44.4739 50.678 44.5963 50.9696L44.4343 51.0596C44.3407 50.8328 44.1463 50.624 43.7863 50.624C43.4371 50.624 43.2175 50.8292 43.2175 51.11C43.2175 51.4124 43.4731 51.506 43.8331 51.6248C44.2795 51.7724 44.6683 51.9128 44.6683 52.3484C44.6683 52.766 44.3407 53.0396 43.8403 53.0396ZM48.7537 50.48V50.66H47.9617V53H47.7673V50.66H46.9753V50.48H48.7537ZM52.1954 53.0396C51.641 53.0396 51.2738 52.6904 51.2738 52.1576V50.48H51.4646V52.1576C51.4646 52.568 51.7202 52.856 52.1954 52.856C52.6742 52.856 52.9298 52.568 52.9298 52.1576V50.48H53.1206V52.1576C53.1206 52.6904 52.7498 53.0396 52.1954 53.0396ZM56.8178 50.48C57.5126 50.48 58.0058 51.0452 58.0058 51.74C58.0058 52.4348 57.5126 53 56.8178 53H55.871V50.48H56.8178ZM56.8178 52.82C57.4118 52.82 57.8186 52.3376 57.8186 51.74C57.8186 51.1424 57.4118 50.66 56.8178 50.66H56.0618V52.82H56.8178ZM60.6466 50.48H60.8374V53H60.6466V50.48ZM64.7778 53.0396C64.0506 53.0396 63.4782 52.46 63.4782 51.74C63.4782 51.02 64.0506 50.4404 64.7778 50.4404C65.505 50.4404 66.0774 51.02 66.0774 51.74C66.0774 52.46 65.505 53.0396 64.7778 53.0396ZM64.7778 52.856C65.4006 52.856 65.8866 52.3592 65.8866 51.74C65.8866 51.1208 65.4006 50.624 64.7778 50.624C64.155 50.624 63.669 51.1208 63.669 51.74C63.669 52.3592 64.155 52.856 64.7778 52.856Z" fill="#665F5F"/>
<defs>
<linearGradient id="paint0_linear_378_712" x1="8.45922" y1="61.1201" x2="32.3401" y2="62.9708" gradientUnits="userSpaceOnUse">
<stop stop-color="#D0989F"/>
<stop offset="1" stop-color="white" stop-opacity="0"/>
</linearGradient>
<linearGradient id="paint1_linear_378_712" x1="11.6437" y1="67.2673" x2="19.7182" y2="67.417" gradientUnits="userSpaceOnUse">
<stop stop-color="#D0989F"/>
<stop offset="1" stop-color="white" stop-opacity="0"/>
</linearGradient>
<linearGradient id="paint2_linear_378_712" x1="9.37439" y1="63.5226" x2="27.4268" y2="64.5058" gradientUnits="userSpaceOnUse">
<stop stop-color="#D0989F"/>
<stop offset="1" stop-color="white" stop-opacity="0"/>
</linearGradient>
<linearGradient id="paint3_linear_378_712" x1="7.71096" y1="58.6312" x2="37.2778" y2="61.4835" gradientUnits="userSpaceOnUse">
<stop stop-color="#D0989F"/>
<stop offset="1" stop-color="white" stop-opacity="0"/>
</linearGradient>
<linearGradient id="paint4_linear_378_712" x1="24.7386" y1="62.231" x2="73.2842" y2="63.6892" gradientUnits="userSpaceOnUse">
<stop stop-color="#D0989F"/>
<stop offset="1" stop-color="white" stop-opacity="0"/>
</linearGradient>
<linearGradient id="paint5_linear_378_712" x1="17.9451" y1="60.1923" x2="73.6374" y2="62.2048" gradientUnits="userSpaceOnUse">
<stop stop-color="#D0989F"/>
<stop offset="1" stop-color="white" stop-opacity="0"/>
</linearGradient>
<linearGradient id="paint6_linear_378_712" x1="58.0106" y1="30.1243" x2="55.425" y2="31.3831" gradientUnits="userSpaceOnUse">
<stop stop-color="#665F5F"/>
<stop offset="1" stop-color="#D9D9D9" stop-opacity="0"/>
</linearGradient>
<linearGradient id="paint7_linear_378_712" x1="33.3535" y1="63.5022" x2="72.8977" y2="64.5001" gradientUnits="userSpaceOnUse">
<stop stop-color="#D0989F"/>
<stop offset="1" stop-color="white" stop-opacity="0"/>
</linearGradient>
<linearGradient id="paint8_linear_378_712" x1="55.1103" y1="64.5813" x2="72.156" y2="64.8311" gradientUnits="userSpaceOnUse">
<stop stop-color="#D0989F"/>
<stop offset="1" stop-color="white" stop-opacity="0"/>
</linearGradient>
<linearGradient id="paint9_linear_378_712" x1="10.3861" y1="65.4361" x2="23.2892" y2="65.873" gradientUnits="userSpaceOnUse">
<stop stop-color="#D0989F"/>
<stop offset="1" stop-color="white" stop-opacity="0"/>
</linearGradient>
<linearGradient id="paint10_linear_378_712" x1="43.679" y1="64.1521" x2="72.705" y2="64.7177" gradientUnits="userSpaceOnUse">
<stop stop-color="#D0989F"/>
<stop offset="1" stop-color="white" stop-opacity="0"/>
</linearGradient>
<linearGradient id="paint11_linear_378_712" x1="10.2349" y1="25.8381" x2="54.6341" y2="27.1388" gradientUnits="userSpaceOnUse">
<stop stop-color="#665F5F"/>
<stop offset="1" stop-color="#665F5F" stop-opacity="0"/>
</linearGradient>
<linearGradient id="paint12_linear_378_712" x1="43.0541" y1="36.2838" x2="38.2875" y2="38.0653" gradientUnits="userSpaceOnUse">
<stop stop-color="#FFD1D7"/>
<stop offset="0.461804" stop-color="#E6B9BF"/>
<stop offset="1" stop-color="#B46E77"/>
</linearGradient>
<linearGradient id="paint13_linear_378_712" x1="40.537" y1="28.702" x2="34.5835" y2="32.7957" gradientUnits="userSpaceOnUse">
<stop stop-color="#FFD1D7"/>
<stop offset="0.461804" stop-color="#E6B9BF"/>
<stop offset="1" stop-color="#B46E77"/>
</linearGradient>
<linearGradient id="paint14_linear_378_712" x1="35.8615" y1="24.6449" x2="33.8445" y2="25.6738" gradientUnits="userSpaceOnUse">
<stop stop-color="#FFD1D7"/>
<stop offset="0.461804" stop-color="#E6B9BF"/>
<stop offset="1" stop-color="#B46E77"/>
</linearGradient>
<linearGradient id="paint15_linear_378_712" x1="33.3511" y1="22.6868" x2="27.7692" y2="24.6035" gradientUnits="userSpaceOnUse">
<stop stop-color="#FFD1D7"/>
<stop offset="0.461804" stop-color="#E6B9BF"/>
<stop offset="1" stop-color="#B46E77"/>
</linearGradient>
<linearGradient id="paint16_linear_378_712" x1="54.9186" y1="26.5602" x2="49.5924" y2="29.2766" gradientUnits="userSpaceOnUse">
<stop stop-color="#FFD1D7"/>
<stop offset="0.461804" stop-color="#E6B9BF"/>
<stop offset="1" stop-color="#B46E77"/>
</linearGradient>
<linearGradient id="paint17_linear_378_712" x1="58.1113" y1="36.152" x2="52.618" y2="38.9477" gradientUnits="userSpaceOnUse">
<stop stop-color="#FFD1D7"/>
<stop offset="0.461804" stop-color="#E6B9BF"/>
<stop offset="1" stop-color="#B46E77"/>
</linearGradient>
<linearGradient id="paint18_linear_378_712" x1="59.4906" y1="30.6435" x2="55.443" y2="31.7407" gradientUnits="userSpaceOnUse">
<stop stop-color="#FFD1D7"/>
<stop offset="0.461804" stop-color="#E6B9BF"/>
<stop offset="1" stop-color="#B46E77"/>
</linearGradient>
<linearGradient id="paint19_linear_378_712" x1="40.5406" y1="19.4338" x2="35.5519" y2="23.7278" gradientUnits="userSpaceOnUse">
<stop stop-color="#665F5F"/>
<stop offset="1" stop-color="#D9D9D9" stop-opacity="0"/>
</linearGradient>
<linearGradient id="paint20_linear_378_712" x1="48.2895" y1="20.4747" x2="38.3241" y2="28.8546" gradientUnits="userSpaceOnUse">
<stop stop-color="#FFD1D7"/>
<stop offset="0.461804" stop-color="#E6B9BF"/>
<stop offset="1" stop-color="#B46E77"/>
</linearGradient>
<linearGradient id="paint21_linear_378_712" x1="49.6484" y1="32.3977" x2="55.7427" y2="29.7527" gradientUnits="userSpaceOnUse">
<stop stop-color="#C9C9C9"/>
<stop offset="0.761209" stop-color="#E9BCC2"/>
</linearGradient>
<linearGradient id="paint22_linear_378_712" x1="53.6533" y1="24.7897" x2="57.4762" y2="17.4318" gradientUnits="userSpaceOnUse">
<stop stop-color="#665F5F"/>
<stop offset="1" stop-color="#665F5F" stop-opacity="0"/>
</linearGradient>
<linearGradient id="paint23_linear_378_712" x1="56.4078" y1="12.9172" x2="57.1313" y2="19.2371" gradientUnits="userSpaceOnUse">
<stop stop-color="#FFD1D7"/>
<stop offset="0.617708" stop-color="#D9ADB2"/>
<stop offset="1" stop-color="#BAB8B8"/>
</linearGradient>
<linearGradient id="paint24_linear_378_712" x1="67.1527" y1="19.6842" x2="64.0563" y2="21.103" gradientUnits="userSpaceOnUse">
<stop stop-color="#FFD1D7"/>
<stop offset="0.461804" stop-color="#E6B9BF"/>
<stop offset="1" stop-color="#B46E77"/>
</linearGradient>
</defs>
</svg>
