<svg width="157" height="178" viewBox="0 0 157 178" fill="none" xmlns="http://www.w3.org/2000/svg">
<path d="M18.4959 143.426L16.3489 139.774C40.5665 136.471 59.2123 139.687 65.508 141.708L55.2171 146.649C33.3621 141.951 21.63 142.543 18.4959 143.426Z" fill="url(#paint0_linear_48_1268)"/>
<path d="M39.5564 156.735C36.0934 154.071 27.0949 150.899 23.0286 149.646C23.6189 150.559 26.9802 154.214 28.587 155.926L34.2439 161.303L39.5564 156.735Z" fill="url(#paint1_linear_48_1268)"/>
<path d="M18.2961 143.248L20.5374 146.633L26.3718 146.886L32.1763 147.743L42.1127 149.931L46.7858 151.835L55.3449 146.886L52.9346 146.22L46.2939 144.84L38.0791 143.793L30.8973 143.248L22.8301 142.937L18.2961 143.248Z" fill="url(#paint2_linear_48_1268)"/>
<path d="M75.8 137.488C47.2083 130.693 23.1779 133.998 14.7366 136.501L16.0641 139.661C44.819 136.975 61.0618 139.925 65.5888 141.736L75.8 137.488Z" fill="url(#paint3_linear_48_1268)"/>
<path d="M53.412 171.982L48.2664 169.701L55.4747 162.785L63.8092 155.53L75.9983 147.77L90.1669 141.019L101.627 136.887L111.064 134.542L120.567 132.84L130.07 132.127H137.754L147.691 132.84L146.857 135.14C110.406 132.942 78.0795 161.121 65.2042 175.425L61.688 174.595L53.412 171.982Z" fill="url(#paint4_linear_48_1268)"/>
<path d="M147.767 133.087C97.2259 127.34 60.4677 155.232 48.4062 169.896C42.3142 167.402 37.4488 163.162 34.5813 161.119C76.8361 126.295 124.309 125.975 148.689 130.796L147.767 133.087Z" fill="url(#paint5_linear_48_1268)"/>
<path d="M111.338 84.3485L109.44 78.4544L111.338 74.6702L113.676 76.5455L115.134 80.6647L115.845 85.822L111.338 84.3485Z" fill="url(#paint6_linear_48_1268)"/>
<path d="M86.4612 176.585C78.2302 177.554 69.1372 176.181 65.6196 175.372C95.3948 140.567 132.005 133.991 146.587 135.054L146.077 136.57C120.64 138.5 95.7343 164.05 86.4612 176.585Z" fill="url(#paint7_linear_48_1268)"/>
<path d="M109.439 170.823C114.085 162.261 127.81 144.043 144.326 139.674C140.267 147.354 127.366 164.338 109.439 170.823Z" fill="url(#paint8_linear_48_1268)"/>
<path d="M23.1952 149.817L20.4209 146.388C35.0939 147.402 44.1566 150.289 46.8538 151.606L39.841 156.601C31.2098 152.009 25.1475 150.165 23.1952 149.817Z" fill="url(#paint9_linear_48_1268)"/>
<path d="M145.829 136.728C122.296 137.324 96.4127 163.556 86.4126 176.598C92.2442 176.921 104.271 173.137 109.555 171.205L110.113 169.677L112.994 164.823L119.127 157.318L122.704 153.273L128.837 147.88L136.271 143.071L143.194 139.791L144.402 139.476L145.829 136.728Z" fill="url(#paint10_linear_48_1268)"/>
<path d="M21.0463 69.9671L19.4575 68.7407L25.3219 61.1304L28.257 63.1078L30.5985 65.1583L34.0035 66.7442L38.5146 68.3515L42.3968 69.8302L45.3247 70.4517L50.1395 70.6874L47.0815 71.9519V72.4662L51.1805 74.7164L54.607 76.7587L56.3453 77.1523L59.1338 76.6156L60.7798 75.5957L62.5199 73.4307L64.222 73.0371V73.6633L63.2261 75.4347L60.7798 77.7249L59.1338 78.4048L58.3733 79.0668L58.6993 79.4426L61.2705 80.4803L64.9622 81.313L68.6963 81.761L71.8035 82.9355H74.2129L77.0871 82.2484L79.1732 80.9085L82.9473 80.0151L85.9182 79.6482L89.1428 79.2812L96.7484 75.3593L97.3693 76.8375L90.8083 80.1569L90.6246 80.6496L94.1938 83.8134L97.2149 83.4762L98.8389 82.7242L99.052 80.9608L100.099 79.0418L101.726 77.797L103.642 77.2265L105.872 77.3821L107.368 77.9526L109.232 79.8457L110.386 82.5167L110.15 85.4324L108.182 88.1182L104.901 89.1036L102.303 88.4866L100.545 86.7697L99.5213 84.8849H99.052L97.2149 85.4324L96.4568 85.8682L96.2526 86.5273L96.7484 87.6222L97.2149 88.4866H96.7484L95.0863 87.2419L93.7213 85.8682L91.3386 83.6375L89.1428 82.0641L86.4797 81.6486L81.3873 82.4796L73.5971 83.6375L68.1623 83.9879L64.6012 84.0985L64.4159 84.3076L65.7382 86.3626L68.1623 90.0394L69.1908 92.8369H70.1008L72.0826 91.7179C73.4739 88.1051 75.7496 86.6424 76.7135 86.3626L76.9157 87.2419L76.4102 90.0394L74.7486 93.0955L75.9429 93.9367L78.3787 95.9113L79.3955 97.3952L78.0831 97.477L75.691 96.8346L74.226 95.8419L72.9145 94.7803L71.6309 94.4908L70.2191 95.0141L69.8151 95.6673V97.4094L70.5497 98.6071L72.0923 100.458L72.4963 101.728L71.7617 101.547L68.75 100.458L68.5296 99.7322L68.1623 96.4658L66.6197 91.9654L64.7098 88.2272L62.8733 85.8682L60.7798 83.6543L57.6581 81.1163L53.7377 78.6191L49.5257 76.5061L43.1298 74.112L39.1333 72.7478L35.7451 72.01L32.4423 71.8855L28.257 71.736L25.9375 71.4619L24.4248 70.9886L21.0463 69.9671Z" fill="url(#paint11_linear_48_1268)"/>
<path d="M79.8196 85.8723H77.8922L77.7728 87.7937L77.5681 89.732L76.5618 92.5298L78.728 94.6366L80.3143 97.03H80.843L82.2758 96.3221L84.2885 94.7546L85.2266 92.9512L85.4313 90.9287L84.7149 89.4118L83.7256 88.569L82.4634 88.2488H81.1842H79.8196L79.1373 87.8949L79.6661 87.3892L82.1393 86.3274L79.8196 85.8723Z" fill="url(#paint12_linear_48_1268)"/>
<path d="M70.0806 71.6306L65.8882 72.3364V73.3184V75.4971L66.9441 77.9213L69.2732 80.0694L71.8817 81.4195H73.8071L76.1673 81.0513L78.1859 79.7625L79.8939 77.5838L80.2044 76.7245V75.6505L77.3163 73.3184L74.5835 72.1523L70.0806 71.6306Z" fill="url(#paint13_linear_48_1268)"/>
<path d="M67.6811 66.6255L67.135 70.1748L67.4627 70.4506L70.8362 70.1748L71.2851 69.863L70.7633 68.3282L69.6227 67.0572L67.6811 66.6255Z" fill="url(#paint14_linear_48_1268)"/>
<path d="M63.5807 60.0558L61.4334 57.7083L59.5602 58.2951L57.413 59.7849L55.8596 62.5388V65.7441L57.1845 68.8139L59.5602 70.71L61.9817 71.658H65.2711L65.6366 69.8974L66.0478 66.3761L65.2711 63.2611L63.5807 60.0558Z" fill="url(#paint15_linear_48_1268)"/>
<path d="M107.851 76.5343C104.457 74.4215 101.047 76.2042 99.7663 77.3596L98.1961 75.1807L98.0291 73.233L98.1961 71.7805L99.0647 70.0638L100.501 68.4793L102.138 67.4559L104.009 67.2578L105.813 67.654L107.584 68.9414L108.753 70.8892L108.987 73.5632L107.851 76.5343Z" fill="url(#paint16_linear_48_1268)"/>
<path d="M111.627 85.9758C110.21 89.7524 105.981 90.7626 104.043 90.7956L104.778 93.3375L106.983 95.4503L109.656 96.4077L112.362 95.9785L114.199 94.8231L115.068 92.9414L115.335 90.7956L114.734 88.8149L113.297 86.9992L111.627 85.9758Z" fill="url(#paint17_linear_48_1268)"/>
<path d="M110.325 75.1809L109.256 77.2607L109.791 78.218L110.325 77.2607L110.86 76.2373L111.16 75.7751L112.564 76.2373V77.2607L110.86 78.9443V79.4725L111.16 79.9677L113.399 78.9443H114.067L114.635 79.9677L114.301 80.7269L111.829 81.1231L111.428 81.3872L111.662 82.2125L112.196 82.4436H113.733L115.103 82.8727V83.665L114.835 84.5564H113.733L112.564 83.8631H111.829V84.5564L113.733 85.5137L115.103 86.9332L116.439 88.8479L117.775 86.9332L118.176 85.0185V83.1368L117.441 81.3872L115.47 79.1424L115.704 77.6898V76.2373L115.103 74.6527L114.301 73.2992L112.864 72.2098L111.428 71.8467H110.492L110.325 75.1809Z" fill="url(#paint18_linear_48_1268)"/>
<path d="M77.2468 72.5755L64.6658 59.9573L63.219 55.7926L66.553 54.3008L76.1774 54.9224L82.5938 61.3247L84.3551 71.8918L77.2468 72.5755Z" fill="url(#paint19_linear_48_1268)"/>
<path d="M64.9769 59.7404L66.3835 61.0509L66.5538 58.1911L65.9915 56.7304L66.2164 55.7132L67.4533 55.2521L68.2308 56.2458L67.9874 58.1911L68.2308 62.2469L69.1919 58.8584V56.4909L69.568 55.4036L70.9512 55.2521L71.6732 56.0092L70.9512 57.7302L69.8115 62.2469V63.2946L71.6732 59.7715L72.6435 57.2629L72.8353 55.9027L73.7605 55.7132L74.7534 56.0811L75.0355 57.0734L72.1922 61.6445L71.6168 63.1943L74.0592 60.1888L75.3302 58.1911L76.3834 57.0069L77.4971 57.3418L77.9815 58.5613L76.848 59.5373L73.8482 62.9455L73.415 63.9376L77.0585 61.2654L78.4025 59.4253L79.6008 59.5373L80.2971 60.4334L80.0866 61.2654L78.6778 61.8895L73.8482 65.6395L78.8545 63.5157L79.7981 62.4538L81.2921 62.1948L81.8687 63.6452L81.4494 64.474L79.9554 64.6294L74.0055 67.5301L77.7798 66.7273L79.9554 66.028L81.4494 65.6395L82.3668 66.2093L82.1833 67.5301L81.2921 67.9445H78.8545L76.1024 68.5143L75.1588 69.0841H79.0642L81.4494 68.7474L82.1833 69.4985L81.8687 70.8971L80.8989 71.1043L79.0642 70.5345H77.544H76.4431L76.6004 71.1043L79.4573 72.9173L81.7115 74.8857L84.9354 77.2685L87.5041 77.4757L90.4397 76.6469L93.1132 74.4713L94.45 72.0108L94.8169 68.7474L94.2403 66.2093L93.4802 64.6294L91.3571 61.9617L90.728 60.8998L91.095 60.1746L91.9337 58.2062L92.2483 55.4867L91.9337 53.3111L90.3611 50.3844L88.3394 48.1143L86.0769 46.652L82.753 45.6164H79.9534L76.0687 47.1718L75.2046 46.2188L72.9139 44.6899L70.1812 43.5184L67.368 43.1809L64.7759 43.6971L61.7619 45.226L59.7324 48.2242L59.1497 51.2025L59.9534 53.4661L62.3044 56.2458L64.9769 59.7404Z" fill="url(#paint20_linear_48_1268)"/>
<path d="M99.2791 80.3207L98.9146 82.6108L99.7218 85.1839L100.998 87.3968L102.847 88.7862L105.242 89.0693L107.638 88.4003L109.513 86.5991L110.242 84.3862V82.3792L109.513 80.3207L108.081 78.6739L106.805 77.7476L105.242 77.4131H103.107L101.18 78.2107L99.2791 80.3207Z" fill="url(#paint21_linear_48_1268)"/>
<path d="M107.345 65.2544L106.894 62.0206V61.5373L109.602 66.2209L113.789 62.8067L113.48 60.6911L112.796 58.2484L110.699 57.369L108.734 55.2314L107.631 53.1449L107.344 50.0164L107.896 47.8669L108.933 46.9073V48.0268L109.264 48.2595L111.184 46.4057L112.95 45.5987H114.76L116.614 47.2126L117.607 51.2475L116.614 54.9769L114.605 57.5708L115.601 60.3836H115.98L121.077 55.2314L121.607 50.0164L121.304 48.0268L121.607 47.6048L123.357 51.988L124.018 52.1922L131.306 43.0454L122.712 56.4857L123.767 57.369L124.625 57.0864L128.719 55.2314V55.5318L126.574 58.376L126.127 59.0097L127.545 61.0789V61.5373L123.972 59.6044L121.903 59.0097H120.473L117.84 61.5373L117.013 62.987L118.104 65.2544L116.599 65.5518H114.605L112.912 66.2209L109.602 68.8229L107.646 66.6669L107.345 65.2544Z" fill="url(#paint22_linear_48_1268)"/>
<path d="M116.903 54.3128L114.586 57.5754L112.738 58.3302L111.679 57.8189L109.535 56.3824L108.303 54.5563L107.244 51.9267L107.465 49.5893L108.057 47.6172L108.796 47.1302L109.166 48.3963L109.757 47.9093L110.841 46.5945L112.246 45.7424L114.315 45.4502L116.237 46.5945L117.174 49.2241L117.519 51.9267L116.903 54.3128Z" fill="url(#paint23_linear_48_1268)"/>
<path d="M129.022 62.1175L127.712 59.1275L128.69 57.6325L129.778 55.2441H130.959L131.9 55.7182L130.664 56.3198V56.6844L133.284 57.9242L133.561 58.7629L132.915 61.0783L130.48 62.2999L129.022 62.1175Z" fill="url(#paint24_linear_48_1268)"/>
<path d="M5.11724 113.618C5.45655 113.685 5.78228 113.725 6.09445 113.739C6.40661 113.739 6.68484 113.725 6.92914 113.698C7.18702 113.658 7.4381 113.604 7.68241 113.537C7.92671 113.47 8.13029 113.397 8.29316 113.316C8.4696 113.236 8.63925 113.148 8.80212 113.055C8.96499 112.947 9.09392 112.853 9.18893 112.773C9.29751 112.692 9.3993 112.605 9.49431 112.511C9.58931 112.418 9.65039 112.357 9.67753 112.33C9.71825 112.29 9.75218 112.25 9.77933 112.21L10.2476 112.23C10.0033 112.485 9.78611 112.706 9.5961 112.894C9.40609 113.068 9.08035 113.283 8.61889 113.537C8.17101 113.792 7.70955 113.96 7.23452 114.04C6.14874 114.201 5.0901 114.04 4.0586 113.557C3.04068 113.075 2.17884 112.337 1.47308 111.345C0.76732 110.339 0.312648 109.199 0.109063 107.925C-0.0945214 106.651 -0.0130874 105.437 0.353365 104.284C0.719817 103.117 1.31021 102.151 2.12455 101.387C2.95246 100.609 3.90931 100.139 4.99509 99.9785C6.5559 99.7371 8.00814 100.139 9.3518 101.186C9.4468 101.266 9.53502 101.34 9.61646 101.407L10.3697 101.89L9.71825 103.761C9.81326 103.479 9.82683 103.144 9.75897 102.755C9.69111 102.366 9.57574 102.077 9.41287 101.89C9.3993 101.876 9.36537 101.849 9.31108 101.809C9.27036 101.756 9.21608 101.702 9.14821 101.648C9.09392 101.595 9.05999 101.554 9.04642 101.528C8.47638 100.978 7.82491 100.649 7.09201 100.542C5.95194 100.367 4.87294 100.743 3.85502 101.668C2.85067 102.594 2.14491 103.834 1.73774 105.39C1.69702 105.551 1.66309 105.712 1.63595 105.873C1.6088 106.02 1.58166 106.175 1.55451 106.335C1.37807 107.502 1.41879 108.622 1.67666 109.695C1.93454 110.755 2.36885 111.633 2.9796 112.33C3.59036 113.028 4.3029 113.457 5.11724 113.618Z" fill="#665F5F"/>
<path d="M20.9043 113.195C20.9178 113.41 20.9382 113.584 20.9653 113.718C21.0061 113.853 21.0671 113.946 21.1486 114C21.23 114.04 21.2979 114.067 21.3521 114.081C21.42 114.094 21.515 114.101 21.6372 114.101H18.7259C18.8481 114.101 18.9363 114.094 18.9906 114.081C19.0584 114.067 19.1331 114.034 19.2145 113.98C19.2959 113.926 19.357 113.832 19.3977 113.698C19.4385 113.564 19.4588 113.39 19.4588 113.175V106.396H13.6363V113.195C13.6363 113.356 13.6499 113.497 13.677 113.618C13.7042 113.739 13.7313 113.832 13.7584 113.899C13.7992 113.953 13.8535 114 13.9213 114.04C13.9892 114.067 14.0503 114.087 14.1045 114.101C14.1588 114.101 14.2267 114.101 14.3081 114.101H11.4376C11.5597 114.101 11.648 114.094 11.7022 114.081C11.7701 114.067 11.8448 114.034 11.9262 113.98C12.0076 113.926 12.0687 113.832 12.1094 113.698C12.1501 113.564 12.1705 113.39 12.1705 113.175V100.944C12.1705 100.716 12.1501 100.535 12.1094 100.401C12.0687 100.267 12.0076 100.173 11.9262 100.119C11.8448 100.066 11.7701 100.039 11.7022 100.039C11.648 100.025 11.5597 100.019 11.4376 100.019H12.1705H13.6363H14.3488C14.2538 100.019 14.1792 100.019 14.1249 100.019C14.0842 100.019 14.0231 100.039 13.9417 100.079C13.8738 100.106 13.8195 100.153 13.7788 100.22C13.7381 100.274 13.7042 100.361 13.677 100.481C13.6499 100.602 13.6363 100.75 13.6363 100.924V105.913H19.4588V100.944C19.4588 100.716 19.4385 100.535 19.3977 100.401C19.357 100.267 19.2959 100.173 19.2145 100.119C19.1331 100.066 19.0584 100.039 18.9906 100.039C18.9363 100.025 18.8481 100.019 18.7259 100.019H19.4588H20.9043H21.6372C21.515 100.019 21.42 100.025 21.3521 100.039C21.2979 100.039 21.23 100.066 21.1486 100.119C21.0671 100.173 21.0061 100.267 20.9653 100.401C20.9382 100.535 20.9178 100.709 20.9043 100.924V113.195Z" fill="#665F5F"/>
<path d="M30.2377 113.618C30.482 113.618 30.7602 113.457 31.0724 113.135C31.3981 112.813 31.6017 112.491 31.6831 112.169L31.1945 114.101H22.929C23.0511 114.101 23.1393 114.094 23.1936 114.081C23.2615 114.067 23.3361 114.034 23.4176 113.98C23.499 113.926 23.5601 113.832 23.6008 113.698C23.6415 113.564 23.6619 113.39 23.6619 113.175V100.944C23.6619 100.716 23.6415 100.535 23.6008 100.401C23.5601 100.267 23.499 100.173 23.4176 100.119C23.3361 100.066 23.2615 100.039 23.1936 100.039C23.1393 100.025 23.0511 100.019 22.929 100.019H25.8402C25.8402 100.019 25.8267 100.019 25.7995 100.019C25.7859 100.019 25.7792 100.019 25.7792 100.019H30.7263L31.1945 101.93C31.1402 101.729 31.0249 101.514 30.8484 101.286C30.6855 101.058 30.4955 100.87 30.2784 100.723C30.0748 100.575 29.8983 100.502 29.7491 100.502H25.148C25.1345 100.609 25.1277 100.75 25.1277 100.924V105.913H29.0569C29.2876 105.913 29.464 105.9 29.5862 105.873C29.7219 105.833 29.8169 105.772 29.8712 105.692C29.9255 105.598 29.9594 105.524 29.973 105.47C29.9866 105.403 29.9934 105.31 29.9934 105.189V107.12C29.9934 106.999 29.9866 106.912 29.973 106.859C29.9594 106.791 29.9255 106.718 29.8712 106.637C29.8169 106.543 29.7219 106.483 29.5862 106.456C29.4505 106.416 29.274 106.396 29.0569 106.396H25.1277V113.195C25.1277 113.37 25.1345 113.511 25.148 113.618H30.2377Z" fill="#665F5F"/>
<path d="M42.3586 113.678C42.3721 113.678 42.3925 113.705 42.4196 113.759C42.4604 113.799 42.4875 113.826 42.5011 113.839C42.5147 113.853 42.535 113.879 42.5622 113.92C42.6029 113.96 42.6368 113.987 42.6639 114C42.6911 114.013 42.725 114.034 42.7657 114.06C42.82 114.074 42.8675 114.087 42.9082 114.101C42.9625 114.101 43.0236 114.101 43.0915 114.101H40.8928H40.8724H40.1599C40.3634 114.101 40.506 114.074 40.5874 114.02C40.7095 113.953 40.7299 113.866 40.6485 113.759L35.5588 106.396H35.0499V113.175C35.0499 113.403 35.0702 113.584 35.111 113.718C35.1517 113.853 35.2128 113.946 35.2942 114C35.3756 114.04 35.4435 114.067 35.4978 114.081C35.5656 114.094 35.6606 114.101 35.7828 114.101H32.8715C32.9937 114.101 33.0819 114.094 33.1362 114.081C33.2041 114.067 33.2787 114.04 33.3601 114C33.4416 113.946 33.5026 113.853 33.5434 113.718C33.5841 113.584 33.6044 113.403 33.6044 113.175V100.944C33.6044 100.716 33.5841 100.535 33.5434 100.401C33.5026 100.267 33.4416 100.173 33.3601 100.119C33.2787 100.066 33.2041 100.039 33.1362 100.039C33.0819 100.025 32.9937 100.019 32.8715 100.019H35.0499H35.0702H35.7828C35.7149 100.019 35.6606 100.019 35.6199 100.019H36.5361C37.459 100.019 38.2937 100.106 39.0401 100.28C39.298 100.334 39.5559 100.408 39.8138 100.502C40.4788 100.73 41.0217 101.031 41.4424 101.407C41.8768 101.769 42.155 102.165 42.2771 102.594C42.3993 103.009 42.3993 103.425 42.2771 103.841C42.155 104.257 41.8768 104.652 41.4424 105.028C41.0217 105.39 40.4788 105.685 39.8138 105.913C39.5559 106.007 39.2912 106.081 39.0198 106.134C39.0062 106.148 38.9926 106.154 38.9791 106.154C38.4633 106.275 37.9069 106.349 37.3097 106.376L42.3586 113.678ZM36.5361 105.913C36.6989 105.913 36.8482 105.913 36.9839 105.913C38.2326 105.846 39.1962 105.551 39.8748 105.028C40.567 104.505 40.9131 103.901 40.9131 103.217C40.9131 102.936 40.8588 102.668 40.7503 102.413C40.6417 102.144 40.4652 101.896 40.2209 101.668C39.9766 101.44 39.6848 101.239 39.3455 101.065C39.0062 100.891 38.5923 100.756 38.1037 100.663C37.6286 100.555 37.1061 100.502 36.5361 100.502H35.0906C35.0635 100.622 35.0499 100.77 35.0499 100.944V105.913H36.5361Z" fill="#665F5F"/>
<path d="M53.5517 113.678C53.5653 113.678 53.5857 113.705 53.6128 113.759C53.6535 113.799 53.6807 113.826 53.6942 113.839C53.7078 113.853 53.7282 113.879 53.7553 113.92C53.796 113.96 53.83 113.987 53.8571 114C53.8843 114.013 53.9182 114.034 53.9589 114.06C54.0132 114.074 54.0607 114.087 54.1014 114.101C54.1557 114.101 54.2168 114.101 54.2846 114.101H52.0859H52.0656H51.353C51.5566 114.101 51.6991 114.074 51.7806 114.02C51.9027 113.953 51.9231 113.866 51.8416 113.759L46.752 106.396H46.2431V113.175C46.2431 113.403 46.2634 113.584 46.3041 113.718C46.3448 113.853 46.4059 113.946 46.4874 114C46.5688 114.04 46.6367 114.067 46.6909 114.081C46.7588 114.094 46.8538 114.101 46.976 114.101H44.0647C44.1869 114.101 44.2751 114.094 44.3294 114.081C44.3972 114.067 44.4719 114.04 44.5533 114C44.6347 113.946 44.6958 113.853 44.7365 113.718C44.7772 113.584 44.7976 113.403 44.7976 113.175V100.944C44.7976 100.716 44.7772 100.535 44.7365 100.401C44.6958 100.267 44.6347 100.173 44.5533 100.119C44.4719 100.066 44.3972 100.039 44.3294 100.039C44.2751 100.025 44.1869 100.019 44.0647 100.019H46.2431H46.2634H46.976C46.9081 100.019 46.8538 100.019 46.8131 100.019H47.7292C48.6521 100.019 49.4868 100.106 50.2333 100.28C50.4912 100.334 50.7491 100.408 51.0069 100.502C51.672 100.73 52.2149 101.031 52.6356 101.407C53.0699 101.769 53.3482 102.165 53.4703 102.594C53.5925 103.009 53.5925 103.425 53.4703 103.841C53.3482 104.257 53.0699 104.652 52.6356 105.028C52.2149 105.39 51.672 105.685 51.0069 105.913C50.7491 106.007 50.4844 106.081 50.213 106.134C50.1994 106.148 50.1858 106.154 50.1722 106.154C49.6565 106.275 49.1 106.349 48.5028 106.376L53.5517 113.678ZM47.7292 105.913C47.8921 105.913 48.0414 105.913 48.1771 105.913C49.4258 105.846 50.3894 105.551 51.068 105.028C51.7602 104.505 52.1063 103.901 52.1063 103.217C52.1063 102.936 52.052 102.668 51.9434 102.413C51.8348 102.144 51.6584 101.896 51.4141 101.668C51.1698 101.44 50.878 101.239 50.5387 101.065C50.1994 100.891 49.7854 100.756 49.2968 100.663C48.8218 100.555 48.2993 100.502 47.7292 100.502H46.2838C46.2566 100.622 46.2431 100.77 46.2431 100.944V105.913H47.7292Z" fill="#665F5F"/>
<path d="M61.213 99.9584H62.9639C62.7739 99.9584 62.6381 99.9785 62.5567 100.019C62.5431 100.019 62.5295 100.025 62.516 100.039C62.516 100.039 62.5024 100.046 62.4753 100.059C62.4753 100.072 62.4685 100.079 62.4549 100.079C62.4413 100.093 62.4278 100.113 62.4142 100.139C62.4006 100.139 62.3938 100.146 62.3938 100.16C62.3803 100.186 62.3667 100.213 62.3531 100.24C62.3395 100.253 62.3327 100.26 62.3327 100.26L59.3197 106.275V113.195C59.3197 113.41 59.3333 113.584 59.3604 113.718C59.4011 113.853 59.4622 113.946 59.5436 114C59.6251 114.04 59.6929 114.067 59.7472 114.081C59.8151 114.094 59.9101 114.101 60.0322 114.101H59.3197H57.9353H57.121C57.2431 114.101 57.3314 114.094 57.3856 114.081C57.4535 114.067 57.5282 114.04 57.6096 114C57.691 113.946 57.7521 113.853 57.7928 113.718C57.8335 113.584 57.8539 113.403 57.8539 113.175V113.195V106.376L54.8408 100.864L54.6576 100.481C54.3455 100.146 53.9586 99.9718 53.4972 99.9584H56.7342C56.4492 99.9584 56.2591 100.019 56.1641 100.139C56.137 100.18 56.1302 100.227 56.1438 100.28V100.3L57.8539 103.419L59.0958 105.712L59.3197 105.269L61.8238 100.22C61.7424 100.046 61.5388 99.9584 61.213 99.9584Z" fill="#665F5F"/>
<path d="M84.2532 106.396C84.9861 106.637 85.6105 106.952 86.1262 107.341C86.642 107.73 87.0152 108.153 87.2459 108.609C87.4902 109.051 87.6124 109.521 87.6124 110.017C87.6124 110.513 87.4902 110.989 87.2459 111.445C87.0016 111.888 86.6148 112.304 86.0855 112.692C85.5562 113.081 84.9251 113.397 84.1921 113.638C83.9071 113.718 83.6153 113.792 83.3167 113.859C82.5567 114.02 81.7288 114.101 80.833 114.101H79.9169C79.9576 114.101 80.0119 114.101 80.0798 114.101H79.3672H77.9014H77.1685C77.2906 114.101 77.3789 114.094 77.4332 114.081C77.501 114.067 77.5757 114.034 77.6571 113.98C77.7385 113.926 77.7996 113.832 77.8403 113.698C77.881 113.564 77.9014 113.39 77.9014 113.175V100.944C77.9014 100.716 77.881 100.535 77.8403 100.401C77.7996 100.267 77.7385 100.173 77.6571 100.119C77.5757 100.066 77.501 100.039 77.4332 100.039C77.3789 100.025 77.2906 100.019 77.1685 100.019H79.3672H80.0798C80.0119 100.019 79.9576 100.019 79.9169 100.019H80.833C81.7559 100.019 82.5906 100.106 83.3371 100.28C83.595 100.334 83.8528 100.408 84.1107 100.502C84.9386 100.783 85.5765 101.179 86.0244 101.688C86.4723 102.185 86.6962 102.694 86.6962 103.217C86.6962 103.727 86.4723 104.237 86.0244 104.746C85.5765 105.242 84.9386 105.631 84.1107 105.913C83.8528 106.007 83.5882 106.081 83.3167 106.134C83.3032 106.148 83.2896 106.154 83.276 106.154C83.3032 106.154 83.3167 106.154 83.3167 106.154C83.6425 106.221 83.9546 106.302 84.2532 106.396ZM79.3876 100.502C79.374 100.622 79.3672 100.77 79.3672 100.944V105.913H80.833C81.4573 105.913 82.0342 105.853 82.5635 105.732C83.0928 105.611 83.5271 105.45 83.8664 105.249C84.2057 105.035 84.4907 104.793 84.7215 104.525C84.9658 104.243 85.1151 103.955 85.1694 103.66C85.2236 103.365 85.2236 103.07 85.1694 102.775C85.1151 102.466 84.9658 102.178 84.7215 101.91C84.4907 101.628 84.2057 101.387 83.8664 101.186C83.5271 100.971 83.0928 100.803 82.5635 100.683C82.0342 100.562 81.4573 100.502 80.833 100.502H79.3876ZM80.833 113.618C81.7016 113.618 82.482 113.517 83.1742 113.316C83.8664 113.101 84.4229 112.827 84.8436 112.491C85.2779 112.156 85.6105 111.774 85.8412 111.345C86.0855 110.902 86.2076 110.459 86.2076 110.017C86.2076 109.561 86.0855 109.118 85.8412 108.689C85.6105 108.247 85.2779 107.858 84.8436 107.522C84.4229 107.187 83.8664 106.919 83.1742 106.718C82.482 106.503 81.7016 106.396 80.833 106.396H79.3672V113.175C79.3672 113.35 79.374 113.497 79.3876 113.618H80.833Z" fill="#665F5F"/>
<path d="M87.9445 114.322H87.9648C87.9648 114.322 87.958 114.322 87.9445 114.322ZM100.119 116.233C100.662 116.273 101.259 116.206 101.91 116.032C102.562 115.858 103.098 115.67 103.519 115.469C103.953 115.267 104.53 114.979 105.249 114.604C105.046 114.724 104.808 114.878 104.537 115.066C104.279 115.267 104.034 115.455 103.804 115.63C103.587 115.804 103.335 115.992 103.05 116.193C102.779 116.394 102.514 116.568 102.256 116.716C102.012 116.877 101.727 117.024 101.401 117.158C101.076 117.293 100.75 117.393 100.424 117.46C100.112 117.527 99.7524 117.561 99.3452 117.561C98.9516 117.561 98.5444 117.514 98.1237 117.42C97.3229 117.246 96.2439 116.796 94.8867 116.072C93.543 115.361 92.5048 114.912 91.7719 114.724C90.8625 114.496 89.5935 114.362 87.9648 114.322C88.2634 114.134 88.7656 114.02 89.4713 113.98C89.6206 113.859 89.6953 113.598 89.6953 113.195V100.944C89.6953 100.73 89.6749 100.555 89.6342 100.421C89.5935 100.287 89.5324 100.193 89.451 100.139C89.3696 100.086 89.2949 100.052 89.227 100.039C89.1728 100.025 89.0845 100.019 88.9624 100.019H91.8736C91.7515 100.019 91.6565 100.025 91.5886 100.039C91.5343 100.052 91.4665 100.086 91.385 100.139C91.3036 100.18 91.2425 100.267 91.2018 100.401C91.1747 100.535 91.1611 100.709 91.1611 100.924V113.215C91.1611 113.376 91.1679 113.517 91.1815 113.638C91.1815 113.812 91.2018 113.946 91.2425 114.04C91.4733 114.067 91.6768 114.094 91.8533 114.121C92.3012 114.174 92.783 114.268 93.2987 114.402C93.8281 114.537 94.2827 114.664 94.6628 114.785C95.0428 114.905 95.511 115.06 96.0675 115.247C96.6375 115.448 97.0922 115.603 97.4315 115.71C98.3816 115.992 99.2773 116.166 100.119 116.233ZM102.236 113.236C101.3 113.866 100.282 114.181 99.1823 114.181C98.083 114.181 97.0651 113.866 96.1286 113.236C95.1921 112.592 94.4524 111.727 93.9095 110.641C93.3666 109.541 93.0952 108.347 93.0952 107.06C93.0952 105.772 93.3666 104.585 93.9095 103.499C94.4524 102.399 95.1921 101.534 96.1286 100.904C97.0651 100.26 98.083 99.9383 99.1823 99.9383C100.282 99.9383 101.3 100.26 102.236 100.904C103.173 101.534 103.905 102.399 104.435 103.499C104.978 104.585 105.249 105.772 105.249 107.06C105.249 108.347 104.978 109.541 104.435 110.641C103.905 111.727 103.173 112.592 102.236 113.236ZM99.6709 100.984C98.8294 100.636 98.0083 100.582 97.2076 100.823C96.4068 101.065 95.7553 101.581 95.2532 102.372C94.751 103.15 94.4592 104.056 94.3777 105.088C94.2963 106.121 94.4252 107.234 94.7645 108.428C95.131 109.554 95.6603 110.54 96.3525 111.385C97.0447 112.216 97.8183 112.806 98.6734 113.155C99.5284 113.504 100.356 113.557 101.157 113.316C101.958 113.061 102.609 112.545 103.112 111.767C103.614 110.989 103.899 110.084 103.967 109.051C104.048 108.005 103.919 106.892 103.58 105.712C103.227 104.572 102.698 103.586 101.992 102.755C101.3 101.91 100.526 101.32 99.6709 100.984Z" fill="#665F5F"/>
<path d="M116.364 102.916C116.364 103.009 116.357 103.097 116.344 103.177C116.344 103.15 116.344 103.11 116.344 103.056C116.357 102.989 116.364 102.942 116.364 102.916ZM116.221 108.609C116.914 109.467 117.151 110.372 116.934 111.324C116.73 112.263 116.14 113.001 115.163 113.537C114.688 113.806 114.036 113.98 113.208 114.06C112.394 114.127 111.566 114.121 110.725 114.04C109.897 113.946 109.123 113.799 108.404 113.598L106.51 113.055V110.801C106.51 111.137 106.619 111.506 106.836 111.908C107.053 112.297 107.284 112.565 107.528 112.713C107.569 112.726 107.725 112.8 107.997 112.934C108.268 113.055 108.444 113.128 108.526 113.155C109.272 113.343 110.039 113.457 110.826 113.497C111.627 113.537 112.38 113.504 113.086 113.397C113.792 113.276 114.376 113.028 114.837 112.652C115.312 112.277 115.563 111.794 115.59 111.204C115.604 110.801 115.522 110.419 115.346 110.057C115.17 109.682 114.946 109.366 114.674 109.112C114.416 108.843 114.07 108.575 113.636 108.307C113.215 108.039 112.835 107.824 112.496 107.663C112.156 107.489 111.736 107.288 111.234 107.06C110.745 106.832 110.372 106.651 110.114 106.517C109.625 106.262 109.252 106.061 108.994 105.913C108.75 105.766 108.444 105.538 108.078 105.229C107.712 104.921 107.433 104.605 107.243 104.284C106.863 103.586 106.809 102.869 107.08 102.131C107.352 101.393 107.84 100.85 108.546 100.502C109.279 100.139 110.243 99.9718 111.437 99.9987C113.093 100.052 114.735 100.367 116.364 100.944C116.364 101.387 116.364 102.044 116.364 102.916C116.337 102.701 116.276 102.493 116.181 102.292C116.086 102.077 115.957 101.89 115.794 101.729C115.645 101.554 115.475 101.407 115.285 101.286C114.796 100.964 114.07 100.73 113.107 100.582C112.876 100.555 112.652 100.528 112.435 100.502C112.218 100.475 111.926 100.448 111.559 100.421C111.206 100.394 110.881 100.388 110.582 100.401C110.284 100.414 109.971 100.455 109.646 100.522C109.333 100.575 109.069 100.663 108.852 100.783C108.648 100.904 108.485 101.072 108.363 101.286C108.254 101.501 108.221 101.756 108.261 102.051C108.302 102.319 108.424 102.621 108.628 102.956C108.953 103.479 109.367 103.955 109.87 104.384C110.385 104.813 110.921 105.182 111.478 105.491C112.034 105.786 112.591 106.081 113.147 106.376C113.704 106.657 114.26 106.993 114.817 107.382C115.373 107.757 115.841 108.166 116.221 108.609Z" fill="#665F5F"/>
<path d="M128.213 102.916C128.213 103.009 128.206 103.097 128.193 103.177C128.193 103.15 128.193 103.11 128.193 103.056C128.206 102.989 128.213 102.942 128.213 102.916ZM128.071 108.609C128.763 109.467 129 110.372 128.783 111.324C128.58 112.263 127.989 113.001 127.012 113.537C126.537 113.806 125.886 113.98 125.058 114.06C124.243 114.127 123.415 114.121 122.574 114.04C121.746 113.946 120.972 113.799 120.253 113.598L118.36 113.055V110.801C118.36 111.137 118.468 111.506 118.685 111.908C118.903 112.297 119.133 112.565 119.378 112.713C119.418 112.726 119.574 112.8 119.846 112.934C120.117 113.055 120.294 113.128 120.375 113.155C121.122 113.343 121.888 113.457 122.676 113.497C123.476 113.537 124.23 113.504 124.935 113.397C125.641 113.276 126.225 113.028 126.686 112.652C127.161 112.277 127.412 111.794 127.44 111.204C127.453 110.801 127.372 110.419 127.195 110.057C127.019 109.682 126.795 109.366 126.523 109.112C126.266 108.843 125.919 108.575 125.485 108.307C125.064 108.039 124.684 107.824 124.345 107.663C124.006 107.489 123.585 107.288 123.083 107.06C122.594 106.832 122.221 106.651 121.963 106.517C121.475 106.262 121.101 106.061 120.843 105.913C120.599 105.766 120.294 105.538 119.927 105.229C119.561 104.921 119.283 104.605 119.093 104.284C118.713 103.586 118.658 102.869 118.93 102.131C119.201 101.393 119.69 100.85 120.396 100.502C121.128 100.139 122.092 99.9718 123.286 99.9987C124.942 100.052 126.584 100.367 128.213 100.944C128.213 101.387 128.213 102.044 128.213 102.916C128.186 102.701 128.125 102.493 128.03 102.292C127.935 102.077 127.806 101.89 127.643 101.729C127.494 101.554 127.324 101.407 127.134 101.286C126.646 100.964 125.919 100.73 124.956 100.582C124.725 100.555 124.501 100.528 124.284 100.502C124.067 100.475 123.775 100.448 123.409 100.421C123.056 100.394 122.73 100.388 122.431 100.401C122.133 100.414 121.821 100.455 121.495 100.522C121.183 100.575 120.918 100.663 120.701 100.783C120.497 100.904 120.334 101.072 120.212 101.286C120.104 101.501 120.07 101.756 120.11 102.051C120.151 102.319 120.273 102.621 120.477 102.956C120.803 103.479 121.217 103.955 121.719 104.384C122.235 104.813 122.771 105.182 123.327 105.491C123.884 105.786 124.44 106.081 124.997 106.376C125.553 106.657 126.109 106.993 126.666 107.382C127.222 107.757 127.691 108.166 128.071 108.609Z" fill="#665F5F"/>
<path d="M133.283 100.884C134.22 100.253 135.237 99.9383 136.337 99.9383C137.45 99.9383 138.468 100.253 139.391 100.884C140.327 101.514 141.067 102.379 141.61 103.479C142.153 104.565 142.424 105.759 142.424 107.06C142.424 108.347 142.153 109.541 141.61 110.641C141.067 111.727 140.327 112.585 139.391 113.215C138.468 113.846 137.45 114.161 136.337 114.161C135.237 114.161 134.22 113.846 133.283 113.215C132.36 112.585 131.627 111.727 131.084 110.641C130.541 109.541 130.27 108.347 130.27 107.06C130.27 105.759 130.541 104.565 131.084 103.479C131.627 102.379 132.36 101.514 133.283 100.884ZM138.332 113.296C139.119 113.055 139.764 112.545 140.266 111.767C140.782 110.976 141.074 110.064 141.141 109.031C141.223 107.985 141.094 106.872 140.755 105.692C140.212 103.962 139.316 102.621 138.067 101.668C136.819 100.716 135.59 100.428 134.382 100.803C133.582 101.058 132.923 101.574 132.408 102.352C131.905 103.13 131.614 104.042 131.532 105.088C131.464 106.121 131.6 107.227 131.939 108.408C132.482 110.138 133.378 111.479 134.627 112.431C135.875 113.383 137.11 113.671 138.332 113.296Z" fill="#665F5F"/>
<path d="M156.267 113.175C156.267 113.403 156.281 113.584 156.308 113.718C156.349 113.853 156.41 113.946 156.491 114C156.586 114.04 156.661 114.067 156.715 114.081C156.783 114.094 156.878 114.101 157 114.101H154.068C154.163 114.101 154.238 114.101 154.292 114.101C154.347 114.087 154.408 114.067 154.476 114.04C154.557 114.013 154.618 113.973 154.659 113.92C154.699 113.853 154.733 113.759 154.761 113.638C154.788 113.517 154.801 113.363 154.801 113.175V101.608L150.669 112.833V112.853L150.261 113.92L150.2 114.101H149.569L149.549 114.04L149.447 113.759L149.243 113.215L145.07 101.87V113.175C145.07 113.39 145.084 113.564 145.111 113.698C145.151 113.832 145.212 113.926 145.294 113.98C145.375 114.034 145.443 114.067 145.497 114.081C145.565 114.094 145.66 114.101 145.783 114.101H143.848C143.971 114.101 144.059 114.094 144.113 114.081C144.181 114.067 144.256 114.034 144.337 113.98C144.418 113.926 144.48 113.832 144.52 113.698C144.561 113.564 144.581 113.39 144.581 113.175V100.542L144.52 100.381C144.452 100.26 144.296 100.173 144.052 100.119C143.821 100.052 143.611 100.019 143.421 100.019H146.658C146.373 100.019 146.183 100.079 146.088 100.2C146.047 100.24 146.04 100.294 146.068 100.361L150.404 112.149L154.74 100.381C154.699 100.26 154.638 100.173 154.557 100.119C154.476 100.066 154.401 100.039 154.333 100.039C154.279 100.025 154.191 100.019 154.068 100.019H157C156.878 100.019 156.783 100.025 156.715 100.039C156.661 100.039 156.586 100.066 156.491 100.119C156.41 100.173 156.349 100.267 156.308 100.401C156.281 100.535 156.267 100.709 156.267 100.924V113.175Z" fill="#665F5F"/>
<path d="M128.739 94.0453H151.392C149.118 82.0589 143.704 71.1387 136.007 62.1169M57.3555 94.0453L9.05859 94.0697C15.2432 61.4015 44.7546 36.647 80.2276 36.647C91.04 36.647 101.298 38.9468 110.511 43.0696C110.759 43.1803 111.005 43.2922 111.251 43.4055M148.361 130.516C138.34 157.616 111.618 177 80.2276 177C51.1006 177 25.9931 160.31 14.5181 136.254" stroke="#665F5F" stroke-width="0.3" stroke-linecap="round" stroke-linejoin="round"/>
<mask id="path-28-inside-1_48_1268" fill="white">
<path fill-rule="evenodd" clip-rule="evenodd" d="M131.225 42.5365C131.056 42.7006 130.642 43.2277 130.305 43.7082C129.265 45.1933 127.094 48.0368 125.706 49.7338C124.978 50.6246 124.293 51.5087 124.185 51.6985C123.863 52.26 123.316 51.8292 123.238 50.9537C123.142 49.8669 121.793 47.2213 121.336 47.2213C121.09 47.2213 121.052 47.588 121.2 48.529C121.425 49.9491 121.293 52.8297 120.931 54.4264C120.718 55.3656 120.552 55.5845 118.297 57.9094C116.568 59.6911 115.841 60.3407 115.716 60.2144C115.62 60.1177 115.381 59.507 115.184 58.8574L114.826 57.6763L115.761 56.5972C117.684 54.3805 118.226 51.264 117.201 48.3254C116.683 46.8423 116.507 46.5593 115.757 46.0049C114.68 45.2092 113.831 45.0741 112.479 45.4835C111.55 45.7649 111.276 45.9612 110.359 47.0011C109.779 47.6582 109.261 48.1528 109.207 48.1005C109.153 48.0483 109.119 47.6363 109.13 47.1854L109.151 46.3653L108.662 46.7418C107.25 47.8297 106.669 50.9453 107.457 53.2058C108.256 55.498 110.075 57.5143 111.918 58.1512C112.698 58.4209 112.733 58.464 113.108 59.6281C113.321 60.2876 113.514 61.2466 113.538 61.7596L113.582 62.6922L111.699 64.3283C110.664 65.2282 109.756 65.9683 109.682 65.973C109.608 65.9776 109.412 65.6707 109.247 65.291C108.677 63.9801 107.213 61.4645 106.99 61.4137C106.649 61.3354 106.464 62.1873 106.72 62.6651C106.844 62.8985 107.013 63.8804 107.095 64.8475C107.244 66.6037 107.245 66.6075 108.43 67.8694L109.617 69.1331L110.36 68.6311C110.769 68.3551 111.59 67.6655 112.184 67.0986C113.486 65.8578 114.03 65.6725 116.305 65.6947C117.262 65.704 118.134 65.6262 118.242 65.5215C118.35 65.4169 118.217 64.9605 117.948 64.5075C116.916 62.7732 116.88 62.9682 118.591 61.0655C119.899 59.6116 120.245 59.321 120.845 59.1714C121.82 58.9279 123.227 59.2515 123.859 59.865C124.512 60.4977 127.08 61.8373 127.676 61.8556C128.052 61.8671 128.063 61.7462 127.755 61.0148C127.557 60.5452 127.165 59.8679 126.883 59.5099L126.373 58.8591L127.381 57.8807C128.368 56.9238 129.068 55.7146 128.94 55.1885C128.84 54.777 126.532 55.6155 125.478 56.4461C124.483 57.2304 123.742 57.3058 123.104 56.687C122.818 56.4093 122.947 56.1602 124.343 54.2961C126.142 51.893 127.921 49.2339 129.848 46.0653C131.466 43.4061 132.158 41.6312 131.225 42.5365ZM130.905 54.999C129.733 54.7963 129.427 54.9989 129.061 56.2194C128.889 56.7935 128.438 57.6541 128.06 58.1319L127.372 59.0007L128.026 60.6743C128.756 62.5391 128.836 62.595 130.534 62.4217C131.97 62.2748 133.088 61.3566 133.555 59.9404C133.743 59.3683 133.815 58.6261 133.715 58.2909C133.55 57.7381 133.408 57.637 132.193 57.1984C131.456 56.9328 130.853 56.6402 130.853 56.5486C130.853 56.4569 131.172 56.3023 131.562 56.205C132.726 55.9148 132.364 55.2512 130.905 54.999ZM87.938 47.5261C86.0692 46.2698 84.6135 45.685 82.5839 45.3752C80.9662 45.1282 79.3225 45.4087 77.5634 46.2321L76.133 46.9014L75.2343 46.0298C73.9886 44.8217 71.3502 43.5402 69.3419 43.1681C66.5519 42.6509 63.3379 43.5588 61.4517 45.3972C59.8446 46.9635 58.7771 49.5135 59.014 51.2204C59.2847 53.1711 59.8312 54.0844 62.0908 56.3618C63.5005 57.7827 64.3678 58.8125 64.7261 59.4904C65.4621 60.8832 66.1982 61.5783 66.5624 61.2251C66.9208 60.8775 66.8895 57.9435 66.5203 57.2917C66.0702 56.4966 66.1076 56.1042 66.6644 55.7809C66.9424 55.6195 67.2884 55.5145 67.4329 55.5477C67.8797 55.6499 68.1519 56.323 67.9745 56.8855C67.6643 57.8674 67.6996 62.2619 68.0202 62.5728C68.1907 62.7382 68.3705 62.8343 68.4197 62.7866C68.469 62.7388 68.7817 61.5759 69.1145 60.2022C69.5009 58.6073 69.645 57.4178 69.5134 56.9111C69.2751 55.9949 69.7046 55.4161 70.5906 55.4589C71.3415 55.4953 71.5896 56.2002 71.103 56.9154C70.6836 57.5322 69.3402 62.6234 69.4303 63.2538C69.5569 64.1365 70.0366 63.6645 70.8914 61.8166C71.37 60.7814 72.0456 59.435 72.3925 58.8247C72.8139 58.0831 72.9778 57.5047 72.8869 57.0808C72.7253 56.3289 73.1104 55.8794 73.8833 55.9167C74.3226 55.9379 74.497 56.0628 74.6997 56.5006C74.909 56.9524 74.8561 57.156 74.4197 57.5793C73.9484 58.0363 71.7968 61.7706 71.2058 63.1573C70.9215 63.8241 71.3801 63.8935 71.9961 63.2772C73.0032 62.2689 75.6128 58.6951 75.6538 58.2677C75.6771 58.0247 75.9184 57.6546 76.1899 57.4454C76.6038 57.1265 76.7739 57.1374 77.244 57.5129C77.6994 57.8769 77.7648 58.0635 77.593 58.5092C77.4549 58.8669 77.1827 59.1541 76.8103 59.3346C76.2746 59.5943 73.6209 62.6561 73.1217 63.5905C72.8959 64.0131 73.0562 64.2634 73.489 64.1643C74.0642 64.0325 77.9642 60.8113 78.1585 60.3074C78.411 59.6526 79.2634 59.4141 79.731 59.8676C80.4313 60.5467 80.0405 61.4013 78.927 61.6262C78.6068 61.691 77.633 62.2896 76.7635 62.9565C73.0874 65.7754 73.1529 65.7164 73.4171 65.9726C73.6817 66.2292 74.2682 66.0001 77.4987 64.3788C78.7243 63.7637 79.6181 63.1894 79.7944 62.9042C80.0692 62.4591 80.9302 62.2535 81.2444 62.5581C81.4288 62.737 81.5679 64.0978 81.4166 64.2445C81.3452 64.3138 80.8912 64.3956 80.4074 64.4263C79.4484 64.487 74.0322 66.9858 73.8099 67.4702C73.5772 67.9768 73.9 68.0012 75.2799 67.5816C76.0244 67.3551 77.4059 67.0098 78.3497 66.8145C79.2933 66.619 80.2111 66.325 80.389 66.1613C80.8068 65.7772 81.6176 65.6714 81.917 65.9618C82.2441 66.279 82.1604 67.1917 81.7697 67.5706C81.569 67.7652 81.1276 67.8103 80.6249 67.6873C80.114 67.5622 78.9169 67.6901 77.4366 68.028C75.008 68.582 74.469 68.8269 74.8548 69.2011C75.1379 69.4756 79.511 69.4139 80.624 69.1195C81.5801 68.8667 82.007 69.1334 81.9646 69.9571C81.9192 70.8424 81.2243 71.1908 80.4703 70.7065C79.8052 70.2795 76.6383 70.1014 76.2585 70.4698C75.9124 70.8054 76.5988 71.5894 77.6664 72.0776C78.3746 72.4012 79.4987 73.2649 81.3206 74.8845C84.11 77.3641 84.5189 77.5961 86.3751 77.7509C88.4351 77.923 90.9666 76.9937 92.5068 75.5C93.3612 74.6714 94.4645 72.7341 94.7619 71.5405C95.5455 68.3945 94.4197 64.636 91.9868 62.2766C90.8694 61.1928 90.7099 60.7346 91.2632 60.1979C91.4456 60.0211 91.7731 59.3595 91.9914 58.7278C93.1287 55.4335 92.265 51.9567 89.6044 49.1199C88.9438 48.4154 88.1939 47.6982 87.938 47.5261ZM112.996 72.0637C111.935 71.5931 110.933 71.3988 110.509 71.5816C110.285 71.6787 110.189 72.177 110.227 73.0476C110.29 74.4895 110.08 75.3326 109.351 76.5596C108.895 77.3281 108.954 77.7968 109.587 78.4241C109.895 78.7293 110.571 77.9149 110.699 77.0842C110.845 76.1437 111.524 75.7215 112.059 76.2397C112.605 76.7699 112.452 77.2274 111.41 78.1697C110.641 78.8655 110.482 79.118 110.548 79.5373C110.716 80.5896 111.374 80.5755 112.823 79.4886C113.696 78.834 114.038 78.8765 114.207 79.6602C114.393 80.5261 114.06 80.7858 112.677 80.8538C111.312 80.9209 111.184 81.0085 111.323 81.7762C111.484 82.6621 111.772 82.8033 113.304 82.7504C114.614 82.7052 114.737 82.7446 114.94 83.2692C115.243 84.0552 114.407 84.7406 113.754 84.2418C112.556 83.3262 111.538 83.2764 111.538 84.133C111.538 84.7053 111.739 84.9017 112.54 85.1135C113.358 85.3297 114.989 86.9118 115.535 88.0177C116.237 89.4414 116.342 89.4756 117.076 88.5192C118.392 86.8047 118.829 84.6982 118.287 82.6835C118.07 81.8776 117.712 81.2826 116.864 80.3219L115.732 79.0375L115.901 77.8287C116.21 75.6139 114.832 72.8783 112.996 72.0637ZM106.57 67.8225C104.281 66.526 101.779 66.8333 99.9013 68.6412C97.8407 70.6255 97.2425 73.3786 98.357 75.7513C99.1275 77.3925 99.5837 77.8079 100.083 77.3239C101.447 76.0009 105.042 75.4247 106.716 76.2605C107.166 76.4855 107.654 76.6747 107.8 76.6805C108.28 76.7001 109.123 74.548 109.203 73.099C109.246 72.3195 109.143 71.2672 108.973 70.7607C108.632 69.7401 107.489 68.3433 106.57 67.8225ZM106.503 77.3645C103.999 76.5082 101.287 77.1944 99.9093 79.0323C99.1802 80.0047 98.6003 81.4799 98.6684 82.1889C98.7348 82.8817 98.4104 83.0337 96.2407 83.3256L94.2072 83.5992L92.5117 82.1435C91.5791 81.343 90.8161 80.6287 90.8159 80.5561C90.8161 80.4835 92.3055 79.6853 94.1258 78.7821C95.946 77.8789 97.5075 77.0701 97.5956 76.9847C97.7718 76.8138 97.1505 75.0508 96.9141 75.0508C96.833 75.0508 95.9496 75.4881 94.951 76.0225C89.0083 79.2032 88.5044 79.4069 86.5098 79.4343C85.4841 79.4484 83.4422 79.6836 81.9724 79.9572C79.6917 80.3815 79.1593 80.5653 78.3421 81.2095C77.0525 82.2263 75.4392 82.7416 73.2932 82.7416C71.8678 82.7416 70.8771 82.3857 69.7398 81.8335C68.7356 81.3461 67.9967 81.3683 66.8847 81.3141C64.8079 81.2127 63.2419 80.9098 60.9428 80.1646C59.0712 79.558 58.425 79.2052 58.6987 78.9397C58.776 78.8648 59.2885 78.6398 59.838 78.4395C61.2897 77.9105 63.9581 75.323 64.3931 74.0226C64.5611 73.5197 64.7584 72.9273 64.6781 72.8493C64.5975 72.7712 63.6914 72.7798 63.1592 72.8493C62.2242 72.9713 62.4067 73.1652 61.6112 74.2619C60.9448 75.1809 60.6046 75.4721 59.669 76.0043C57.6651 77.1446 55.2417 77.2051 53.7972 76.1509C52.7239 75.3677 49.4537 73.4808 48.3429 73.0036C47.8898 72.8091 47.4497 72.5825 47.3648 72.5001C47.106 72.2492 47.6344 71.9005 48.8652 71.5097C49.9572 71.163 50.7985 70.6332 50.5854 70.4265C50.5346 70.3773 49.25 70.3506 47.7307 70.3672C44.6307 70.401 42.6987 69.9697 39.7837 68.5929C38.0947 67.7953 32.2477 66.5079 29.8 64.2362C28.3254 62.8675 25.3418 60.8134 25.2313 60.867C25.1218 60.92 23.794 62.5171 22.97 63.5444C21.5476 65.2255 19.4001 68.392 19.4001 68.392C18.3009 70.105 26.2419 71.6717 26.3516 71.7747C26.4614 71.8775 35.3357 72.1289 36.3214 72.3331C41.5524 73.4176 50.8157 77.0348 55.1025 79.6671C56.6994 80.6475 59.8679 83.0973 61.1475 84.3407C64.7783 87.8683 67.2874 92.806 68.0175 97.859C68.1995 99.1193 68.3715 100.245 68.3995 100.36C68.4582 100.601 71.7831 101.913 72.325 101.909C73.1269 101.904 72.3064 100.056 70.8909 98.6806C70.1634 97.9735 70.0576 97.7386 70.0039 96.7131C69.9364 95.4218 70.0644 95.2121 71.1189 94.8866C72.0408 94.6022 73.1189 95.0311 74.2576 96.1355C75.3333 97.1787 76.734 97.6985 78.5527 97.7296L79.8079 97.751L79.3202 96.8482C78.8479 95.974 77.958 95.1352 75.9543 93.6756L75.1343 93.0784L75.8084 91.9208C76.8104 90.2009 77.4858 86.3492 76.8127 86.195C76.4623 86.1147 74.9223 87.05 74.1347 87.8212C73.7632 88.1851 73.1383 89.1345 72.746 89.931C71.9064 91.6358 71.6268 91.9393 70.4439 92.4308C69.4272 92.8534 69.2781 92.7684 68.9863 91.6017C68.675 90.3573 67.6569 88.5414 66.1485 86.5415C65.4163 85.5703 64.7459 84.6469 64.6589 84.4891C64.5519 84.2949 65.1765 84.1978 66.6002 84.1876C71.4588 84.1527 76.3825 83.6238 82.5182 82.4779C86.9882 81.6432 88.0093 81.7207 90.2484 83.0643C91.4847 83.8062 92.126 84.3633 93.9437 86.2751C96.2317 88.6814 96.7998 89.0675 97.3158 88.5671C97.5432 88.3465 97.4619 88.105 96.9361 87.4389C95.954 86.1954 96.0626 85.9382 97.8077 85.3735C98.9589 85.0012 99.3086 84.9763 99.4224 85.2584C99.5025 85.4565 99.8623 86.1036 100.222 86.6963C101.604 88.9726 104.068 89.8214 106.736 88.941C108.053 88.5064 108.351 88.3218 109.017 87.5271C109.439 87.0244 109.958 86.1751 110.171 85.6398C111.39 82.584 109.536 78.4018 106.503 77.3645ZM112.337 85.9825C111.443 85.4477 111.339 85.4836 110.992 86.444C110.2 88.6403 107.799 90.2647 105.098 90.4316L103.701 90.5178L103.79 91.1353C104.105 93.3168 106.303 95.79 108.491 96.4245C110.729 97.0738 113.151 96.4095 114.41 94.8012C116.514 92.1129 115.521 87.8875 112.337 85.9825ZM61.3146 57.5034C60.9675 57.4713 60.1092 57.7132 59.4067 58.0407C56.0301 59.616 54.5585 63.7887 56.1439 67.2932C56.9775 69.1352 58.7632 70.8114 60.5814 71.4583C62.0149 71.9684 64.8431 72.0637 65.3031 71.6176C65.7466 71.1874 66.2529 68.1937 66.1566 66.5699C65.9884 63.7331 64.847 60.9784 62.88 58.6624C62.1 57.7439 61.8409 57.5522 61.3146 57.5034ZM78.5437 73.9091C76.5863 72.4553 73.7717 71.5016 71.0942 71.3848C69.1569 71.3004 66.4058 71.771 65.885 72.2761C65.3469 72.7979 65.5532 75.5864 66.2385 77.0547C67.0586 78.812 69.2339 80.7346 71.1063 81.3573C72.6085 81.857 74.5657 81.8179 76.1726 81.2561C78.205 80.5455 80.4584 77.9347 80.5482 76.186C80.5747 75.6718 79.9278 74.9369 78.5437 73.9091ZM68.8368 66.5117C68.2949 66.3662 67.7043 66.3437 67.5243 66.462C67.3379 66.5844 67.1625 67.3119 67.1161 68.1544C67.0715 68.9671 67.0677 69.1992 66.9732 69.5867C66.8947 69.9089 66.8277 70.2568 66.9038 70.5C67.0821 70.7513 67.2015 70.7483 68.0243 70.5933C68.5647 70.4917 69.5288 70.398 70.1662 70.3854C70.8039 70.3729 71.3934 70.2968 71.4761 70.2165C71.559 70.1361 71.4994 69.5972 71.3437 69.0188C70.9893 67.7016 70.1526 66.8649 68.8368 66.5117ZM81.1188 85.7664C80.0322 85.5313 77.9085 85.5328 77.6663 85.7687C77.6045 85.8289 77.5605 86.5637 77.5687 87.4013C77.5779 88.3462 77.3424 89.6271 76.9488 90.7743L76.3141 92.6243L77.912 94.1874C79.0459 95.2965 79.6058 95.9906 79.8407 96.5781C80.1632 97.3849 80.1863 97.4031 80.7459 97.2896C81.0617 97.2257 81.8545 96.869 82.5078 96.4971C84.7282 95.233 86.075 92.5894 85.53 90.5647C85.0053 88.6148 83.3984 87.6764 81.1027 87.9788C78.8482 88.2756 78.8656 87.6468 81.1301 86.9791C82.9557 86.4406 82.9532 86.163 81.1188 85.7664Z"/>
</mask>
<path fill-rule="evenodd" clip-rule="evenodd" d="M131.225 42.5365C131.056 42.7006 130.642 43.2277 130.305 43.7082C129.265 45.1933 127.094 48.0368 125.706 49.7338C124.978 50.6246 124.293 51.5087 124.185 51.6985C123.863 52.26 123.316 51.8292 123.238 50.9537C123.142 49.8669 121.793 47.2213 121.336 47.2213C121.09 47.2213 121.052 47.588 121.2 48.529C121.425 49.9491 121.293 52.8297 120.931 54.4264C120.718 55.3656 120.552 55.5845 118.297 57.9094C116.568 59.6911 115.841 60.3407 115.716 60.2144C115.62 60.1177 115.381 59.507 115.184 58.8574L114.826 57.6763L115.761 56.5972C117.684 54.3805 118.226 51.264 117.201 48.3254C116.683 46.8423 116.507 46.5593 115.757 46.0049C114.68 45.2092 113.831 45.0741 112.479 45.4835C111.55 45.7649 111.276 45.9612 110.359 47.0011C109.779 47.6582 109.261 48.1528 109.207 48.1005C109.153 48.0483 109.119 47.6363 109.13 47.1854L109.151 46.3653L108.662 46.7418C107.25 47.8297 106.669 50.9453 107.457 53.2058C108.256 55.498 110.075 57.5143 111.918 58.1512C112.698 58.4209 112.733 58.464 113.108 59.6281C113.321 60.2876 113.514 61.2466 113.538 61.7596L113.582 62.6922L111.699 64.3283C110.664 65.2282 109.756 65.9683 109.682 65.973C109.608 65.9776 109.412 65.6707 109.247 65.291C108.677 63.9801 107.213 61.4645 106.99 61.4137C106.649 61.3354 106.464 62.1873 106.72 62.6651C106.844 62.8985 107.013 63.8804 107.095 64.8475C107.244 66.6037 107.245 66.6075 108.43 67.8694L109.617 69.1331L110.36 68.6311C110.769 68.3551 111.59 67.6655 112.184 67.0986C113.486 65.8578 114.03 65.6725 116.305 65.6947C117.262 65.704 118.134 65.6262 118.242 65.5215C118.35 65.4169 118.217 64.9605 117.948 64.5075C116.916 62.7732 116.88 62.9682 118.591 61.0655C119.899 59.6116 120.245 59.321 120.845 59.1714C121.82 58.9279 123.227 59.2515 123.859 59.865C124.512 60.4977 127.08 61.8373 127.676 61.8556C128.052 61.8671 128.063 61.7462 127.755 61.0148C127.557 60.5452 127.165 59.8679 126.883 59.5099L126.373 58.8591L127.381 57.8807C128.368 56.9238 129.068 55.7146 128.94 55.1885C128.84 54.777 126.532 55.6155 125.478 56.4461C124.483 57.2304 123.742 57.3058 123.104 56.687C122.818 56.4093 122.947 56.1602 124.343 54.2961C126.142 51.893 127.921 49.2339 129.848 46.0653C131.466 43.4061 132.158 41.6312 131.225 42.5365ZM130.905 54.999C129.733 54.7963 129.427 54.9989 129.061 56.2194C128.889 56.7935 128.438 57.6541 128.06 58.1319L127.372 59.0007L128.026 60.6743C128.756 62.5391 128.836 62.595 130.534 62.4217C131.97 62.2748 133.088 61.3566 133.555 59.9404C133.743 59.3683 133.815 58.6261 133.715 58.2909C133.55 57.7381 133.408 57.637 132.193 57.1984C131.456 56.9328 130.853 56.6402 130.853 56.5486C130.853 56.4569 131.172 56.3023 131.562 56.205C132.726 55.9148 132.364 55.2512 130.905 54.999ZM87.938 47.5261C86.0692 46.2698 84.6135 45.685 82.5839 45.3752C80.9662 45.1282 79.3225 45.4087 77.5634 46.2321L76.133 46.9014L75.2343 46.0298C73.9886 44.8217 71.3502 43.5402 69.3419 43.1681C66.5519 42.6509 63.3379 43.5588 61.4517 45.3972C59.8446 46.9635 58.7771 49.5135 59.014 51.2204C59.2847 53.1711 59.8312 54.0844 62.0908 56.3618C63.5005 57.7827 64.3678 58.8125 64.7261 59.4904C65.4621 60.8832 66.1982 61.5783 66.5624 61.2251C66.9208 60.8775 66.8895 57.9435 66.5203 57.2917C66.0702 56.4966 66.1076 56.1042 66.6644 55.7809C66.9424 55.6195 67.2884 55.5145 67.4329 55.5477C67.8797 55.6499 68.1519 56.323 67.9745 56.8855C67.6643 57.8674 67.6996 62.2619 68.0202 62.5728C68.1907 62.7382 68.3705 62.8343 68.4197 62.7866C68.469 62.7388 68.7817 61.5759 69.1145 60.2022C69.5009 58.6073 69.645 57.4178 69.5134 56.9111C69.2751 55.9949 69.7046 55.4161 70.5906 55.4589C71.3415 55.4953 71.5896 56.2002 71.103 56.9154C70.6836 57.5322 69.3402 62.6234 69.4303 63.2538C69.5569 64.1365 70.0366 63.6645 70.8914 61.8166C71.37 60.7814 72.0456 59.435 72.3925 58.8247C72.8139 58.0831 72.9778 57.5047 72.8869 57.0808C72.7253 56.3289 73.1104 55.8794 73.8833 55.9167C74.3226 55.9379 74.497 56.0628 74.6997 56.5006C74.909 56.9524 74.8561 57.156 74.4197 57.5793C73.9484 58.0363 71.7968 61.7706 71.2058 63.1573C70.9215 63.8241 71.3801 63.8935 71.9961 63.2772C73.0032 62.2689 75.6128 58.6951 75.6538 58.2677C75.6771 58.0247 75.9184 57.6546 76.1899 57.4454C76.6038 57.1265 76.7739 57.1374 77.244 57.5129C77.6994 57.8769 77.7648 58.0635 77.593 58.5092C77.4549 58.8669 77.1827 59.1541 76.8103 59.3346C76.2746 59.5943 73.6209 62.6561 73.1217 63.5905C72.8959 64.0131 73.0562 64.2634 73.489 64.1643C74.0642 64.0325 77.9642 60.8113 78.1585 60.3074C78.411 59.6526 79.2634 59.4141 79.731 59.8676C80.4313 60.5467 80.0405 61.4013 78.927 61.6262C78.6068 61.691 77.633 62.2896 76.7635 62.9565C73.0874 65.7754 73.1529 65.7164 73.4171 65.9726C73.6817 66.2292 74.2682 66.0001 77.4987 64.3788C78.7243 63.7637 79.6181 63.1894 79.7944 62.9042C80.0692 62.4591 80.9302 62.2535 81.2444 62.5581C81.4288 62.737 81.5679 64.0978 81.4166 64.2445C81.3452 64.3138 80.8912 64.3956 80.4074 64.4263C79.4484 64.487 74.0322 66.9858 73.8099 67.4702C73.5772 67.9768 73.9 68.0012 75.2799 67.5816C76.0244 67.3551 77.4059 67.0098 78.3497 66.8145C79.2933 66.619 80.2111 66.325 80.389 66.1613C80.8068 65.7772 81.6176 65.6714 81.917 65.9618C82.2441 66.279 82.1604 67.1917 81.7697 67.5706C81.569 67.7652 81.1276 67.8103 80.6249 67.6873C80.114 67.5622 78.9169 67.6901 77.4366 68.028C75.008 68.582 74.469 68.8269 74.8548 69.2011C75.1379 69.4756 79.511 69.4139 80.624 69.1195C81.5801 68.8667 82.007 69.1334 81.9646 69.9571C81.9192 70.8424 81.2243 71.1908 80.4703 70.7065C79.8052 70.2795 76.6383 70.1014 76.2585 70.4698C75.9124 70.8054 76.5988 71.5894 77.6664 72.0776C78.3746 72.4012 79.4987 73.2649 81.3206 74.8845C84.11 77.3641 84.5189 77.5961 86.3751 77.7509C88.4351 77.923 90.9666 76.9937 92.5068 75.5C93.3612 74.6714 94.4645 72.7341 94.7619 71.5405C95.5455 68.3945 94.4197 64.636 91.9868 62.2766C90.8694 61.1928 90.7099 60.7346 91.2632 60.1979C91.4456 60.0211 91.7731 59.3595 91.9914 58.7278C93.1287 55.4335 92.265 51.9567 89.6044 49.1199C88.9438 48.4154 88.1939 47.6982 87.938 47.5261ZM112.996 72.0637C111.935 71.5931 110.933 71.3988 110.509 71.5816C110.285 71.6787 110.189 72.177 110.227 73.0476C110.29 74.4895 110.08 75.3326 109.351 76.5596C108.895 77.3281 108.954 77.7968 109.587 78.4241C109.895 78.7293 110.571 77.9149 110.699 77.0842C110.845 76.1437 111.524 75.7215 112.059 76.2397C112.605 76.7699 112.452 77.2274 111.41 78.1697C110.641 78.8655 110.482 79.118 110.548 79.5373C110.716 80.5896 111.374 80.5755 112.823 79.4886C113.696 78.834 114.038 78.8765 114.207 79.6602C114.393 80.5261 114.06 80.7858 112.677 80.8538C111.312 80.9209 111.184 81.0085 111.323 81.7762C111.484 82.6621 111.772 82.8033 113.304 82.7504C114.614 82.7052 114.737 82.7446 114.94 83.2692C115.243 84.0552 114.407 84.7406 113.754 84.2418C112.556 83.3262 111.538 83.2764 111.538 84.133C111.538 84.7053 111.739 84.9017 112.54 85.1135C113.358 85.3297 114.989 86.9118 115.535 88.0177C116.237 89.4414 116.342 89.4756 117.076 88.5192C118.392 86.8047 118.829 84.6982 118.287 82.6835C118.07 81.8776 117.712 81.2826 116.864 80.3219L115.732 79.0375L115.901 77.8287C116.21 75.6139 114.832 72.8783 112.996 72.0637ZM106.57 67.8225C104.281 66.526 101.779 66.8333 99.9013 68.6412C97.8407 70.6255 97.2425 73.3786 98.357 75.7513C99.1275 77.3925 99.5837 77.8079 100.083 77.3239C101.447 76.0009 105.042 75.4247 106.716 76.2605C107.166 76.4855 107.654 76.6747 107.8 76.6805C108.28 76.7001 109.123 74.548 109.203 73.099C109.246 72.3195 109.143 71.2672 108.973 70.7607C108.632 69.7401 107.489 68.3433 106.57 67.8225ZM106.503 77.3645C103.999 76.5082 101.287 77.1944 99.9093 79.0323C99.1802 80.0047 98.6003 81.4799 98.6684 82.1889C98.7348 82.8817 98.4104 83.0337 96.2407 83.3256L94.2072 83.5992L92.5117 82.1435C91.5791 81.343 90.8161 80.6287 90.8159 80.5561C90.8161 80.4835 92.3055 79.6853 94.1258 78.7821C95.946 77.8789 97.5075 77.0701 97.5956 76.9847C97.7718 76.8138 97.1505 75.0508 96.9141 75.0508C96.833 75.0508 95.9496 75.4881 94.951 76.0225C89.0083 79.2032 88.5044 79.4069 86.5098 79.4343C85.4841 79.4484 83.4422 79.6836 81.9724 79.9572C79.6917 80.3815 79.1593 80.5653 78.3421 81.2095C77.0525 82.2263 75.4392 82.7416 73.2932 82.7416C71.8678 82.7416 70.8771 82.3857 69.7398 81.8335C68.7356 81.3461 67.9967 81.3683 66.8847 81.3141C64.8079 81.2127 63.2419 80.9098 60.9428 80.1646C59.0712 79.558 58.425 79.2052 58.6987 78.9397C58.776 78.8648 59.2885 78.6398 59.838 78.4395C61.2897 77.9105 63.9581 75.323 64.3931 74.0226C64.5611 73.5197 64.7584 72.9273 64.6781 72.8493C64.5975 72.7712 63.6914 72.7798 63.1592 72.8493C62.2242 72.9713 62.4067 73.1652 61.6112 74.2619C60.9448 75.1809 60.6046 75.4721 59.669 76.0043C57.6651 77.1446 55.2417 77.2051 53.7972 76.1509C52.7239 75.3677 49.4537 73.4808 48.3429 73.0036C47.8898 72.8091 47.4497 72.5825 47.3648 72.5001C47.106 72.2492 47.6344 71.9005 48.8652 71.5097C49.9572 71.163 50.7985 70.6332 50.5854 70.4265C50.5346 70.3773 49.25 70.3506 47.7307 70.3672C44.6307 70.401 42.6987 69.9697 39.7837 68.5929C38.0947 67.7953 32.2477 66.5079 29.8 64.2362C28.3254 62.8675 25.3418 60.8134 25.2313 60.867C25.1218 60.92 23.794 62.5171 22.97 63.5444C21.5476 65.2255 19.4001 68.392 19.4001 68.392C18.3009 70.105 26.2419 71.6717 26.3516 71.7747C26.4614 71.8775 35.3357 72.1289 36.3214 72.3331C41.5524 73.4176 50.8157 77.0348 55.1025 79.6671C56.6994 80.6475 59.8679 83.0973 61.1475 84.3407C64.7783 87.8683 67.2874 92.806 68.0175 97.859C68.1995 99.1193 68.3715 100.245 68.3995 100.36C68.4582 100.601 71.7831 101.913 72.325 101.909C73.1269 101.904 72.3064 100.056 70.8909 98.6806C70.1634 97.9735 70.0576 97.7386 70.0039 96.7131C69.9364 95.4218 70.0644 95.2121 71.1189 94.8866C72.0408 94.6022 73.1189 95.0311 74.2576 96.1355C75.3333 97.1787 76.734 97.6985 78.5527 97.7296L79.8079 97.751L79.3202 96.8482C78.8479 95.974 77.958 95.1352 75.9543 93.6756L75.1343 93.0784L75.8084 91.9208C76.8104 90.2009 77.4858 86.3492 76.8127 86.195C76.4623 86.1147 74.9223 87.05 74.1347 87.8212C73.7632 88.1851 73.1383 89.1345 72.746 89.931C71.9064 91.6358 71.6268 91.9393 70.4439 92.4308C69.4272 92.8534 69.2781 92.7684 68.9863 91.6017C68.675 90.3573 67.6569 88.5414 66.1485 86.5415C65.4163 85.5703 64.7459 84.6469 64.6589 84.4891C64.5519 84.2949 65.1765 84.1978 66.6002 84.1876C71.4588 84.1527 76.3825 83.6238 82.5182 82.4779C86.9882 81.6432 88.0093 81.7207 90.2484 83.0643C91.4847 83.8062 92.126 84.3633 93.9437 86.2751C96.2317 88.6814 96.7998 89.0675 97.3158 88.5671C97.5432 88.3465 97.4619 88.105 96.9361 87.4389C95.954 86.1954 96.0626 85.9382 97.8077 85.3735C98.9589 85.0012 99.3086 84.9763 99.4224 85.2584C99.5025 85.4565 99.8623 86.1036 100.222 86.6963C101.604 88.9726 104.068 89.8214 106.736 88.941C108.053 88.5064 108.351 88.3218 109.017 87.5271C109.439 87.0244 109.958 86.1751 110.171 85.6398C111.39 82.584 109.536 78.4018 106.503 77.3645ZM112.337 85.9825C111.443 85.4477 111.339 85.4836 110.992 86.444C110.2 88.6403 107.799 90.2647 105.098 90.4316L103.701 90.5178L103.79 91.1353C104.105 93.3168 106.303 95.79 108.491 96.4245C110.729 97.0738 113.151 96.4095 114.41 94.8012C116.514 92.1129 115.521 87.8875 112.337 85.9825ZM61.3146 57.5034C60.9675 57.4713 60.1092 57.7132 59.4067 58.0407C56.0301 59.616 54.5585 63.7887 56.1439 67.2932C56.9775 69.1352 58.7632 70.8114 60.5814 71.4583C62.0149 71.9684 64.8431 72.0637 65.3031 71.6176C65.7466 71.1874 66.2529 68.1937 66.1566 66.5699C65.9884 63.7331 64.847 60.9784 62.88 58.6624C62.1 57.7439 61.8409 57.5522 61.3146 57.5034ZM78.5437 73.9091C76.5863 72.4553 73.7717 71.5016 71.0942 71.3848C69.1569 71.3004 66.4058 71.771 65.885 72.2761C65.3469 72.7979 65.5532 75.5864 66.2385 77.0547C67.0586 78.812 69.2339 80.7346 71.1063 81.3573C72.6085 81.857 74.5657 81.8179 76.1726 81.2561C78.205 80.5455 80.4584 77.9347 80.5482 76.186C80.5747 75.6718 79.9278 74.9369 78.5437 73.9091ZM68.8368 66.5117C68.2949 66.3662 67.7043 66.3437 67.5243 66.462C67.3379 66.5844 67.1625 67.3119 67.1161 68.1544C67.0715 68.9671 67.0677 69.1992 66.9732 69.5867C66.8947 69.9089 66.8277 70.2568 66.9038 70.5C67.0821 70.7513 67.2015 70.7483 68.0243 70.5933C68.5647 70.4917 69.5288 70.398 70.1662 70.3854C70.8039 70.3729 71.3934 70.2968 71.4761 70.2165C71.559 70.1361 71.4994 69.5972 71.3437 69.0188C70.9893 67.7016 70.1526 66.8649 68.8368 66.5117ZM81.1188 85.7664C80.0322 85.5313 77.9085 85.5328 77.6663 85.7687C77.6045 85.8289 77.5605 86.5637 77.5687 87.4013C77.5779 88.3462 77.3424 89.6271 76.9488 90.7743L76.3141 92.6243L77.912 94.1874C79.0459 95.2965 79.6058 95.9906 79.8407 96.5781C80.1632 97.3849 80.1863 97.4031 80.7459 97.2896C81.0617 97.2257 81.8545 96.869 82.5078 96.4971C84.7282 95.233 86.075 92.5894 85.53 90.5647C85.0053 88.6148 83.3984 87.6764 81.1027 87.9788C78.8482 88.2756 78.8656 87.6468 81.1301 86.9791C82.9557 86.4406 82.9532 86.163 81.1188 85.7664Z" stroke="#665F5F" stroke-width="0.6" mask="url(#path-28-inside-1_48_1268)"/>
<path d="M39.8049 156.681C35.9803 154.726 27.2768 150.606 23.0593 149.764" stroke="#665F5F" stroke-width="0.3"/>
<path d="M47.0815 151.716C44.0321 150.362 34.0987 147.298 20.5781 146.456" stroke="#665F5F" stroke-width="0.3"/>
<path d="M55.3106 146.756C48.4883 145.052 31.5876 141.974 18.5632 143.298" stroke="#665F5F" stroke-width="0.3"/>
<path d="M65.7827 141.714C60.4592 139.959 42.9568 136.883 16.1638 139.649" stroke="#665F5F" stroke-width="0.3"/>
<path d="M86.2695 176.706C96.5626 163.427 123.087 136.832 145.751 136.722" stroke="#665F5F" stroke-width="0.3"/>
<path d="M109.223 171.113C113.378 163.054 126.33 145.166 144.348 139.341" stroke="#665F5F" stroke-width="0.3"/>
<path d="M65.2964 175.62C77.1948 161.425 110.322 133.215 146.47 135.083" stroke="#665F5F" stroke-width="0.3"/>
<path d="M48.2729 169.918C60.848 155.187 98.2663 127.148 147.339 132.834" stroke="#665F5F" stroke-width="0.3"/>
<path d="M34.2683 161.21C50.1525 146.955 95.6055 120.959 148.398 130.739" stroke="#665F5F" stroke-width="0.3"/>
<path d="M75.8947 137.476C63.9727 134.938 40.3616 130.578 14.7366 136.436" stroke="#665F5F" stroke-width="0.3"/>
<path d="M34.094 124.914C33.2425 124.914 32.638 124.485 32.43 123.842L32.729 123.666C32.885 124.212 33.3465 124.583 34.094 124.583C34.8545 124.583 35.238 124.193 35.238 123.673C35.238 123.127 34.757 122.919 34.0615 122.698C33.301 122.451 32.6185 122.236 32.6185 121.443C32.6185 120.696 33.223 120.221 33.9965 120.221C34.744 120.221 35.238 120.65 35.459 121.177L35.1665 121.339C34.9975 120.93 34.6465 120.553 33.9965 120.553C33.366 120.553 32.9695 120.923 32.9695 121.43C32.9695 121.976 33.431 122.145 34.081 122.36C34.887 122.626 35.589 122.88 35.589 123.666C35.589 124.42 34.9975 124.914 34.094 124.914ZM43.3334 124.843L42.8914 123.686H40.6099L40.1679 124.843H39.8039L41.5719 120.293H41.9359L43.6974 124.843H43.3334ZM40.7399 123.361H42.7679L41.7539 120.715L40.7399 123.361ZM51.3473 124.843H50.8858L48.6043 122.6V124.843H48.2598V120.293H48.6043V122.412L50.8208 120.293H51.2823L48.9813 122.503L51.3473 124.843ZM57.2818 124.914C56.2808 124.914 55.6178 124.284 55.6178 123.322V120.293H55.9623V123.322C55.9623 124.063 56.4238 124.583 57.2818 124.583C58.1463 124.583 58.6078 124.063 58.6078 123.322V120.293H58.9523V123.322C58.9523 124.284 58.2828 124.914 57.2818 124.914ZM66.7912 124.843L65.6992 122.977H64.2627V124.843H63.9182V120.293H65.7122C66.4532 120.293 67.0577 120.897 67.0577 121.638C67.0577 122.256 66.6352 122.776 66.0567 122.932L67.1877 124.843H66.7912ZM64.2627 120.618V122.652H65.7122C66.2647 122.652 66.7132 122.197 66.7132 121.638C66.7132 121.073 66.2647 120.618 65.7122 120.618H64.2627ZM74.8661 124.843L74.4241 123.686H72.1426L71.7006 124.843H71.3366L73.1046 120.293H73.4686L75.2301 124.843H74.8661ZM72.2726 123.361H74.3006L73.2866 120.715L72.2726 123.361ZM86.8164 124.914C85.9649 124.914 85.3604 124.485 85.1524 123.842L85.4514 123.666C85.6074 124.212 86.0689 124.583 86.8164 124.583C87.5769 124.583 87.9604 124.193 87.9604 123.673C87.9604 123.127 87.4794 122.919 86.7839 122.698C86.0234 122.451 85.3409 122.236 85.3409 121.443C85.3409 120.696 85.9454 120.221 86.7189 120.221C87.4664 120.221 87.9604 120.65 88.1814 121.177L87.8889 121.339C87.7199 120.93 87.3689 120.553 86.7189 120.553C86.0884 120.553 85.6919 120.923 85.6919 121.43C85.6919 121.976 86.1534 122.145 86.8034 122.36C87.6094 122.626 88.3114 122.88 88.3114 123.666C88.3114 124.42 87.7199 124.914 86.8164 124.914ZM95.6877 120.293V120.618H94.2577V124.843H93.9067V120.618H92.4767V120.293H95.6877ZM101.902 124.914C100.901 124.914 100.238 124.284 100.238 123.322V120.293H100.582V123.322C100.582 124.063 101.044 124.583 101.902 124.583C102.766 124.583 103.228 124.063 103.228 123.322V120.293H103.572V123.322C103.572 124.284 102.903 124.914 101.902 124.914ZM110.248 120.293C111.502 120.293 112.393 121.313 112.393 122.568C112.393 123.822 111.502 124.843 110.248 124.843H108.538V120.293H110.248ZM110.248 124.518C111.32 124.518 112.055 123.647 112.055 122.568C112.055 121.489 111.32 120.618 110.248 120.618H108.883V124.518H110.248ZM117.161 120.293H117.506V124.843H117.161V120.293ZM124.62 124.914C123.307 124.914 122.274 123.868 122.274 122.568C122.274 121.268 123.307 120.221 124.62 120.221C125.933 120.221 126.967 121.268 126.967 122.568C126.967 123.868 125.933 124.914 124.62 124.914ZM124.62 124.583C125.745 124.583 126.622 123.686 126.622 122.568C126.622 121.45 125.745 120.553 124.62 120.553C123.496 120.553 122.618 121.45 122.618 122.568C122.618 123.686 123.496 124.583 124.62 124.583Z" fill="#665F5F"/>
<defs>
<linearGradient id="paint0_linear_48_1268" x1="16.8533" y1="140.346" x2="64.4243" y2="144.076" gradientUnits="userSpaceOnUse">
<stop stop-color="#D0989F"/>
<stop offset="1" stop-color="white" stop-opacity="0"/>
</linearGradient>
<linearGradient id="paint1_linear_48_1268" x1="23.1981" y1="152.447" x2="39.2848" y2="152.749" gradientUnits="userSpaceOnUse">
<stop stop-color="#D0989F"/>
<stop offset="1" stop-color="white" stop-opacity="0"/>
</linearGradient>
<linearGradient id="paint2_linear_48_1268" x1="18.6763" y1="145.075" x2="54.6395" y2="147.058" gradientUnits="userSpaceOnUse">
<stop stop-color="#D0989F"/>
<stop offset="1" stop-color="white" stop-opacity="0"/>
</linearGradient>
<linearGradient id="paint3_linear_48_1268" x1="15.3631" y1="135.446" x2="74.256" y2="141.195" gradientUnits="userSpaceOnUse">
<stop stop-color="#D0989F"/>
<stop offset="1" stop-color="white" stop-opacity="0"/>
</linearGradient>
<linearGradient id="paint4_linear_48_1268" x1="49.2865" y1="142.533" x2="146.002" y2="145.472" gradientUnits="userSpaceOnUse">
<stop stop-color="#D0989F"/>
<stop offset="1" stop-color="white" stop-opacity="0"/>
</linearGradient>
<linearGradient id="paint5_linear_48_1268" x1="35.7521" y1="138.519" x2="146.704" y2="142.576" gradientUnits="userSpaceOnUse">
<stop stop-color="#D0989F"/>
<stop offset="1" stop-color="white" stop-opacity="0"/>
</linearGradient>
<linearGradient id="paint6_linear_48_1268" x1="115.574" y1="79.3251" x2="110.447" y2="81.8515" gradientUnits="userSpaceOnUse">
<stop stop-color="#665F5F"/>
<stop offset="1" stop-color="#D9D9D9" stop-opacity="0"/>
</linearGradient>
<linearGradient id="paint7_linear_48_1268" x1="66.4504" y1="145.035" x2="145.233" y2="147.047" gradientUnits="userSpaceOnUse">
<stop stop-color="#D0989F"/>
<stop offset="1" stop-color="white" stop-opacity="0"/>
</linearGradient>
<linearGradient id="paint8_linear_48_1268" x1="109.797" y1="147.16" x2="143.757" y2="147.663" gradientUnits="userSpaceOnUse">
<stop stop-color="#D0989F"/>
<stop offset="1" stop-color="white" stop-opacity="0"/>
</linearGradient>
<linearGradient id="paint9_linear_48_1268" x1="20.6921" y1="148.842" x2="46.3982" y2="149.723" gradientUnits="userSpaceOnUse">
<stop stop-color="#D0989F"/>
<stop offset="1" stop-color="white" stop-opacity="0"/>
</linearGradient>
<linearGradient id="paint10_linear_48_1268" x1="87.0222" y1="146.314" x2="144.85" y2="147.455" gradientUnits="userSpaceOnUse">
<stop stop-color="#D0989F"/>
<stop offset="1" stop-color="white" stop-opacity="0"/>
</linearGradient>
<linearGradient id="paint11_linear_48_1268" x1="20.3905" y1="70.8869" x2="108.845" y2="73.5094" gradientUnits="userSpaceOnUse">
<stop stop-color="#665F5F"/>
<stop offset="1" stop-color="#665F5F" stop-opacity="0"/>
</linearGradient>
<linearGradient id="paint12_linear_48_1268" x1="85.7769" y1="91.4512" x2="76.3085" y2="95.0324" gradientUnits="userSpaceOnUse">
<stop stop-color="#FFD1D7"/>
<stop offset="0.461804" stop-color="#E6B9BF"/>
<stop offset="1" stop-color="#B46E77"/>
</linearGradient>
<linearGradient id="paint13_linear_48_1268" x1="80.7622" y1="76.5251" x2="68.9922" y2="84.7153" gradientUnits="userSpaceOnUse">
<stop stop-color="#FFD1D7"/>
<stop offset="0.461804" stop-color="#E6B9BF"/>
<stop offset="1" stop-color="#B46E77"/>
</linearGradient>
<linearGradient id="paint14_linear_48_1268" x1="71.4468" y1="68.538" x2="67.4483" y2="70.6022" gradientUnits="userSpaceOnUse">
<stop stop-color="#FFD1D7"/>
<stop offset="0.461804" stop-color="#E6B9BF"/>
<stop offset="1" stop-color="#B46E77"/>
</linearGradient>
<linearGradient id="paint15_linear_48_1268" x1="66.4448" y1="64.6832" x2="55.3523" y2="68.5378" gradientUnits="userSpaceOnUse">
<stop stop-color="#FFD1D7"/>
<stop offset="0.461804" stop-color="#E6B9BF"/>
<stop offset="1" stop-color="#B46E77"/>
</linearGradient>
<linearGradient id="paint16_linear_48_1268" x1="109.414" y1="72.3087" x2="98.8554" y2="77.7583" gradientUnits="userSpaceOnUse">
<stop stop-color="#FFD1D7"/>
<stop offset="0.461804" stop-color="#E6B9BF"/>
<stop offset="1" stop-color="#B46E77"/>
</linearGradient>
<linearGradient id="paint17_linear_48_1268" x1="115.775" y1="91.1918" x2="104.885" y2="96.8006" gradientUnits="userSpaceOnUse">
<stop stop-color="#FFD1D7"/>
<stop offset="0.461804" stop-color="#E6B9BF"/>
<stop offset="1" stop-color="#B46E77"/>
</linearGradient>
<linearGradient id="paint18_linear_48_1268" x1="118.524" y1="80.3473" x2="110.473" y2="82.5558" gradientUnits="userSpaceOnUse">
<stop stop-color="#FFD1D7"/>
<stop offset="0.461804" stop-color="#E6B9BF"/>
<stop offset="1" stop-color="#B46E77"/>
</linearGradient>
<linearGradient id="paint19_linear_48_1268" x1="80.7695" y1="58.2789" x2="70.9317" y2="66.8486" gradientUnits="userSpaceOnUse">
<stop stop-color="#665F5F"/>
<stop offset="1" stop-color="#D9D9D9" stop-opacity="0"/>
</linearGradient>
<linearGradient id="paint20_linear_48_1268" x1="96.2066" y1="60.3283" x2="76.5492" y2="77.0566" gradientUnits="userSpaceOnUse">
<stop stop-color="#FFD1D7"/>
<stop offset="0.461804" stop-color="#E6B9BF"/>
<stop offset="1" stop-color="#B46E77"/>
</linearGradient>
<linearGradient id="paint21_linear_48_1268" x1="98.9146" y1="83.8007" x2="111.01" y2="78.4882" gradientUnits="userSpaceOnUse">
<stop stop-color="#C9C9C9"/>
<stop offset="0.761209" stop-color="#E9BCC2"/>
</linearGradient>
<linearGradient id="paint22_linear_48_1268" x1="106.894" y1="68.8228" x2="114.368" y2="54.2646" gradientUnits="userSpaceOnUse">
<stop stop-color="#665F5F"/>
<stop offset="1" stop-color="#665F5F" stop-opacity="0"/>
</linearGradient>
<linearGradient id="paint23_linear_48_1268" x1="112.381" y1="45.4502" x2="113.789" y2="57.8958" gradientUnits="userSpaceOnUse">
<stop stop-color="#FFD1D7"/>
<stop offset="0.617708" stop-color="#D9ADB2"/>
<stop offset="1" stop-color="#BAB8B8"/>
</linearGradient>
<linearGradient id="paint24_linear_48_1268" x1="133.789" y1="58.772" x2="127.646" y2="61.6206" gradientUnits="userSpaceOnUse">
<stop stop-color="#FFD1D7"/>
<stop offset="0.461804" stop-color="#E6B9BF"/>
<stop offset="1" stop-color="#B46E77"/>
</linearGradient>
</defs>
</svg>
