<svg width="41" height="35" viewBox="0 0 41 35" fill="none" xmlns="http://www.w3.org/2000/svg">
<g clip-path="url(#clip0_32_87)">
<path d="M25.6665 1H16.1665L11.4165 7.01252H5.7165C4.70868 7.01252 3.74214 7.43483 3.0295 8.18654C2.31686 8.93825 1.9165 9.95779 1.9165 11.0209V29.0584C1.9165 30.1215 2.31686 31.1411 3.0295 31.8928C3.74214 32.6445 4.70868 33.0668 5.7165 33.0668H36.1165C37.1243 33.0668 38.0909 32.6445 38.8035 31.8928C39.5161 31.1411 39.9165 30.1215 39.9165 29.0584V11.0209C39.9165 9.95779 39.5161 8.93825 38.8035 8.18654C38.0909 7.43483 37.1243 7.01252 36.1165 7.01252H30.4165L25.6665 1Z" stroke="#665F5F" stroke-width="2" stroke-linecap="round" stroke-linejoin="round"/>
<path d="M20.9168 25.05C24.0648 25.05 26.6168 22.3581 26.6168 19.0374C26.6168 15.7168 24.0648 13.0249 20.9168 13.0249C17.7688 13.0249 15.2168 15.7168 15.2168 19.0374C15.2168 22.3581 17.7688 25.05 20.9168 25.05Z" stroke="#665F5F" stroke-width="2" stroke-linecap="round" stroke-linejoin="round"/>
</g>
<defs>
<clipPath id="clip0_32_87">
<rect width="41" height="35" fill="white"/>
</clipPath>
</defs>
</svg>
