<svg width="30" height="28" viewBox="0 0 30 28" fill="none" xmlns="http://www.w3.org/2000/svg">
<g clip-path="url(#clip0_32_82)">
<path d="M27.987 11.066C27.7292 10.6688 27.5133 10.2459 27.343 9.80403C27.2136 9.32517 27.1338 8.83424 27.105 8.33903C27.092 7.31453 26.8024 6.31258 26.267 5.43903C25.5968 4.65604 24.7275 4.06868 23.751 3.73903C23.2934 3.56131 22.8554 3.33678 22.444 3.06903C22.068 2.76129 21.7248 2.41544 21.42 2.03703C20.8026 1.20089 19.9681 0.549699 19.007 0.15403C18.0204 -0.0810567 16.9887 -0.0465174 16.02 0.25403C15.5292 0.381766 15.0265 0.458836 14.52 0.48403C14.0134 0.458913 13.5108 0.381842 13.02 0.25403C12.0512 -0.045592 11.0197 -0.080123 10.033 0.15403C9.07229 0.550408 8.23799 1.20147 7.62 2.03703C7.31446 2.41207 6.97133 2.75485 6.596 3.06003C6.185 3.32764 5.74732 3.55185 5.29 3.72903C4.31291 4.05807 3.44314 4.64552 2.773 5.42903C2.23812 6.30282 1.94864 7.30462 1.935 8.32903C1.90562 8.82451 1.82587 9.31571 1.697 9.79503C1.52724 10.24 1.3114 10.666 1.053 11.066C0.443644 11.9183 0.0794598 12.9213 0 13.966C0.0785623 15.0125 0.442788 16.0173 1.053 16.871C1.31084 17.2682 1.52667 17.6912 1.697 18.133C1.82595 18.612 1.9057 19.1029 1.935 19.598C1.94805 20.6225 2.23758 21.6245 2.773 22.498C3.4432 23.281 4.31249 23.8684 5.289 24.198C5.74658 24.3758 6.18457 24.6003 6.596 24.868C6.97177 25.1742 7.31493 25.5184 7.62 25.895C8.23749 26.7313 9.07191 27.3828 10.033 27.779C11.0196 28.0146 12.0514 27.9801 13.02 27.679C13.5108 27.5513 14.0135 27.4742 14.52 27.449C15.0266 27.4741 15.5292 27.5512 16.02 27.679C16.6325 27.8358 17.2601 27.926 17.892 27.948C18.2701 27.9517 18.6464 27.8957 19.007 27.782C19.9682 27.3845 20.8025 26.7321 21.42 25.895C21.7252 25.52 22.068 25.1773 22.443 24.872C22.854 24.6044 23.2917 24.3802 23.749 24.203C24.7261 23.874 25.5959 23.2865 26.266 22.503C26.8009 21.6292 27.0904 20.6274 27.104 19.603C27.1329 19.1075 27.2127 18.6163 27.342 18.137C27.5123 17.6952 27.7282 17.2722 27.986 16.875C28.5973 16.0203 28.9619 15.014 29.04 13.966C28.9605 12.9213 28.5964 11.9183 27.987 11.066ZM26.267 15.857C25.9309 16.379 25.6538 16.9368 25.441 17.52C25.2639 18.1359 25.1546 18.7694 25.115 19.409C25.1161 20.0774 24.9566 20.7362 24.65 21.33C24.1762 21.8103 23.5928 22.1683 22.95 22.373C22.3573 22.6056 21.7922 22.9031 21.265 23.26C20.77 23.6468 20.3189 24.0867 19.92 24.572C19.5231 25.1236 18.9976 25.5698 18.389 25.872C17.7396 25.9745 17.0751 25.9217 16.45 25.718C15.8185 25.5574 15.1713 25.4662 14.52 25.446C13.8686 25.468 13.2215 25.5606 12.59 25.722C11.9643 25.9263 11.2991 25.979 10.649 25.876C10.0409 25.5739 9.516 25.1276 9.12 24.576C8.7205 24.0888 8.2688 23.6468 7.773 23.258C7.2453 22.8994 6.67952 22.6002 6.086 22.366C5.44346 22.1607 4.86018 21.8028 4.386 21.323C4.07963 20.7291 3.92017 20.0703 3.921 19.402C3.88161 18.7624 3.77229 18.1289 3.595 17.513C3.38218 16.9298 3.10514 16.372 2.769 15.85C2.36113 15.2951 2.09694 14.6479 2 13.966C2.09781 13.2831 2.3634 12.6351 2.773 12.08C3.10914 11.558 3.38618 11.0003 3.599 10.417C3.77613 9.80111 3.88544 9.16769 3.925 8.52803C3.92389 7.85969 4.08337 7.20087 4.39 6.60703C4.86312 6.12786 5.44545 5.77064 6.087 5.56603C6.67967 5.33342 7.24477 5.03595 7.772 4.67903C8.26847 4.29027 8.72054 3.84793 9.12 3.36003C9.51686 2.80849 10.0424 2.36222 10.651 2.06003C11.3004 1.95761 11.9649 2.01038 12.59 2.21403C13.2215 2.37462 13.8687 2.46583 14.52 2.48603C15.1714 2.46403 15.8185 2.37149 16.45 2.21003C17.0757 2.00572 17.7409 1.95294 18.391 2.05603C18.9991 2.35815 19.524 2.80446 19.92 3.35603C20.3195 3.84325 20.7712 4.28522 21.267 4.67403C21.7949 5.03096 22.3607 5.32844 22.954 5.56103C23.5965 5.7664 24.1798 6.12425 24.654 6.60403C24.9605 7.19828 25.12 7.85739 25.119 8.52603C25.1585 9.16537 25.2678 9.79847 25.445 10.414C25.6578 10.9973 25.9349 11.555 26.271 12.077C26.6796 12.6334 26.9439 13.2825 27.04 13.966C26.9422 14.6489 26.6766 15.2969 26.267 15.852V15.857Z" fill="#665F5F"/>
<path d="M18.87 10.2069L12.639 15.5469L10.289 12.7259C10.1193 12.522 9.87547 12.3938 9.61123 12.3696C9.34699 12.3454 9.08397 12.4272 8.88001 12.5969C8.67606 12.7666 8.54789 13.0105 8.5237 13.2747C8.49951 13.5389 8.58128 13.802 8.75101 14.0059L11.751 17.6059C11.8358 17.7079 11.9401 17.7919 12.0577 17.8532C12.1753 17.9145 12.3039 17.9518 12.436 17.9629L12.52 17.9659C12.7585 17.9656 12.989 17.8802 13.17 17.7249L20.17 11.7249C20.2754 11.6413 20.3628 11.5374 20.4271 11.4192C20.4913 11.3011 20.5311 11.1712 20.544 11.0373C20.5569 10.9034 20.5427 10.7683 20.5021 10.6401C20.4616 10.5118 20.3956 10.3931 20.3082 10.2909C20.2207 10.1888 20.1135 10.1053 19.993 10.0456C19.8725 9.9858 19.7412 9.95095 19.607 9.94311C19.4727 9.93526 19.3382 9.95458 19.2116 9.99991C19.085 10.0452 18.9688 10.1156 18.87 10.2069Z" fill="#665F5F"/>
</g>
<defs>
<clipPath id="clip0_32_82">
<rect width="29.04" height="27.9482" fill="white"/>
</clipPath>
</defs>
</svg>
