<svg width="36" height="36" viewBox="0 0 36 36" fill="none" xmlns="http://www.w3.org/2000/svg">
<g clip-path="url(#clip0_36_10)">
<path d="M13.7811 0.506348C8.60615 1.85635 4.0499 5.56885 1.6874 10.4063C0.618649 12.7126 0.337399 14.1188 0.337399 18.0001C0.281149 22.3876 0.449899 23.0626 2.19365 26.3251C4.33115 30.2626 6.13115 31.9501 10.3499 34.2001C12.7686 35.4376 13.9499 35.6626 17.9999 35.6626C22.0499 35.6626 23.2311 35.4376 25.6499 34.2001C29.8686 31.9501 31.6686 30.2626 33.8061 26.3251C35.5499 23.0626 35.7186 22.3876 35.6624 18.0001C35.6624 13.9501 35.4374 12.7688 34.1999 10.3501C32.0061 6.13135 30.2624 4.33135 26.4936 2.30635C22.8374 0.393845 17.2686 -0.449905 13.7811 0.506348ZM25.0311 3.8251C27.6749 5.1751 30.9374 8.49385 32.3999 11.2501C33.8624 14.0063 33.8624 21.9938 32.3999 24.7501C30.9936 27.5063 27.6749 30.8251 25.0311 32.2313C21.8249 33.9751 14.1749 33.9751 10.9686 32.2313C8.3249 30.8251 5.00615 27.5063 3.5999 24.7501C2.1374 21.9938 2.1374 14.0063 3.5999 11.2501C5.6249 7.36885 9.50615 4.0501 13.4999 2.75635C15.9749 1.9126 22.6124 2.53135 25.0311 3.8251Z" fill="#665F5F"/>
<path d="M13.8938 9.39384C13.6688 9.56259 13.5 11.5876 13.5 13.8376C13.5 17.3813 13.3875 17.8876 12.375 18.1688C11.7563 18.3376 11.25 18.7313 11.25 19.1251C11.25 19.5188 11.7563 19.9126 12.375 20.0813C12.9938 20.2501 13.5 20.8126 13.5 21.3751C13.5 21.9376 12.9938 22.5001 12.375 22.6688C10.9125 23.0626 10.9125 24.1876 12.3188 24.5813C12.9938 24.7501 13.5 25.4251 13.6125 26.3813C13.8375 28.3501 15.4125 28.2938 15.6375 26.3251C15.8063 24.9751 16.0875 24.8063 18.45 24.6376C20.3625 24.5251 21.0938 24.2438 21.0938 23.6251C21.0938 23.0063 20.3625 22.7251 18.45 22.6126C16.2 22.4438 15.75 22.2751 15.75 21.3188C15.75 20.3626 16.1438 20.2501 18.9 20.2501C21.7125 20.2501 22.2188 20.0813 23.9625 18.3376C26.55 15.7501 26.55 13.5001 23.9625 10.9126C22.1625 9.11259 21.825 9.00009 18.1688 9.00009C16.0312 9.00009 14.0625 9.16884 13.8938 9.39384ZM22.6125 12.2063C23.85 13.3313 23.9063 15.6376 22.6688 16.9876C21.9938 17.7188 20.9813 18.0001 18.7313 18.0001H15.75V14.6251V11.2501H18.675C20.5875 11.2501 21.9375 11.5876 22.6125 12.2063Z" fill="#665F5F"/>
</g>
<defs>
<clipPath id="clip0_36_10">
<rect width="36" height="36" fill="white"/>
</clipPath>
</defs>
</svg>
