<svg width="40" height="33" viewBox="0 0 40 33" fill="none" xmlns="http://www.w3.org/2000/svg">
<g clip-path="url(#clip0_32_42)">
<path d="M23.8 27.6V4.8C23.8 3.79218 23.3996 2.82563 22.687 2.11299C21.9744 1.40036 21.0078 1 20 1H4.8C3.79218 1 2.82563 1.40036 2.11299 2.11299C1.40036 2.82563 1 3.79218 1 4.8V25.7C1 26.2039 1.20018 26.6872 1.5565 27.0435C1.91282 27.3998 2.39609 27.6 2.9 27.6H6.7M25.7 27.6H14.3M33.3 27.6H37.1C37.6039 27.6 38.0872 27.3998 38.4435 27.0435C38.7998 26.6872 39 26.2039 39 25.7V18.765C38.9992 18.3338 38.8518 17.9157 38.582 17.5794L31.97 9.3144C31.7923 9.09187 31.5669 8.91213 31.3103 8.78848C31.0538 8.66482 30.7728 8.60041 30.488 8.6H23.8" stroke="#665F5F" stroke-width="2" stroke-linecap="round" stroke-linejoin="round"/>
<path d="M29.5 31.4C31.5986 31.4 33.2999 29.6988 33.2999 27.6C33.2999 25.5015 31.5986 23.8 29.5 23.8C27.4013 23.8 25.7 25.5015 25.7 27.6C25.7 29.6988 27.4013 31.4 29.5 31.4Z" stroke="#665F5F" stroke-width="2" stroke-linecap="round" stroke-linejoin="round"/>
<path d="M10.5 31.4C12.5986 31.4 14.3 29.6988 14.3 27.6C14.3 25.5015 12.5986 23.8 10.5 23.8C8.40127 23.8 6.69995 25.5015 6.69995 27.6C6.69995 29.6988 8.40127 31.4 10.5 31.4Z" stroke="#665F5F" stroke-width="2" stroke-linecap="round" stroke-linejoin="round"/>
</g>
<defs>
<clipPath id="clip0_32_42">
<rect width="40" height="33" fill="white"/>
</clipPath>
</defs>
</svg>
